<svg width="17" height="16" viewBox="0 0 17 16" fill="none" xmlns="http://www.w3.org/2000/svg">
<path d="M8.5 16C5.625 16 3 14.5 1.5625 12C0.125 9.53125 0.125 6.5 1.5625 4C3 1.53125 5.625 0 8.5 0C11.3438 0 13.9688 1.53125 15.4062 4C16.8438 6.5 16.8438 9.53125 15.4062 12C13.9688 14.5 11.3438 16 8.5 16ZM8.5 4C8.0625 4 7.75 4.34375 7.75 4.75V8.25C7.75 8.6875 8.0625 9 8.5 9C8.90625 9 9.25 8.6875 9.25 8.25V4.75C9.25 4.34375 8.90625 4 8.5 4ZM7.5 11C7.5 11.5625 7.9375 12 8.5 12C9.03125 12 9.5 11.5625 9.5 11C9.5 10.4688 9.03125 10 8.5 10C7.9375 10 7.5 10.4688 7.5 11Z" fill="black"/>
</svg>
