<?xml version="1.0" encoding="utf-8"?><!-- Uploaded to: SVG Repo, www.svgrepo.com, Generator: SVG Repo Mixer Tools -->
<svg width="24" height="24" viewBox="0 0 24 24" fill="none" xmlns="http://www.w3.org/2000/svg" id="tick">
    <path d="M1.11084 12.0041C1.11084 6.00379 5.97449 1.14014 11.9748 1.14014C17.9744 1.14014 22.8388 6.00381 22.8388 12.0041C22.8388 18.0037 17.9744 22.8681 11.9748 22.8681C5.97451 22.8681 1.11084 18.0038 1.11084 12.0041ZM1.74466 12.0041C1.74466 17.6534 6.32483 22.2343 11.9748 22.2343C17.6248 22.2343 22.2049 17.6534 22.2049 12.0041C22.2049 6.35418 17.6248 1.77399 11.9748 1.77399C6.32486 1.77399 1.74466 6.35416 1.74466 12.0041Z" fill="#58B947" stroke="#58B947"/>
    <path d="M16.9352 8.79346C16.6412 8.79346 16.3741 8.91279 16.1809 9.10597L10.543 14.7568L7.04997 11.2509C6.85679 11.0577 6.59045 10.9384 6.2957 10.9384C5.70762 10.9384 5.23035 11.415 5.23035 12.0038C5.23035 12.2979 5.34893 12.5635 5.54143 12.756L9.78872 17.0175C9.9812 17.2099 10.2482 17.33 10.543 17.33C10.8378 17.33 11.1041 17.2106 11.2973 17.0175V17.0182L17.6895 10.611C17.8813 10.4186 18.0006 10.1522 18.0006 9.85816C18.0006 9.27008 17.5233 8.79346 16.9352 8.79346Z" fill="#58B947"/>
</svg>