<svg version="1.1" xmlns="http://www.w3.org/2000/svg" width="169" height="41" viewBox="0 0 2073 512" id="logo">
    <path
        d="M0 0 C3.74982739 2.72487457 6.27724118 5.8356298 7.7578125 10.27734375 C7.85293376 12.37209278 7.88681982 14.4697898 7.88911438 16.56669617 C7.89512665 18.54497406 7.89512665 18.54497406 7.90126038 20.56321716 C7.90078525 22.02871706 7.90024913 23.49421694 7.8996582 24.9597168 C7.90268998 26.50068257 7.90621149 28.04164745 7.91018677 29.58261108 C7.91807976 32.90562223 7.92322243 36.22862261 7.92647743 39.55164146 C7.93239573 44.81968324 7.94894779 50.08765772 7.96781921 55.35566711 C7.97415715 57.16145988 7.98048276 58.96725269 7.98679638 60.77304554 C7.98996219 61.67763465 7.993128 62.58222375 7.99638975 63.51422465 C8.0383869 75.77713032 8.07138831 88.04000581 8.08374023 100.30297852 C8.09215747 108.57463487 8.11478878 116.84612552 8.1530959 125.11769897 C8.17274586 129.488935 8.18529856 133.85992393 8.18026161 138.23120689 C8.17556735 142.35588156 8.18967693 146.48009053 8.21727371 150.60467148 C8.22410805 152.1056789 8.22439743 153.60673529 8.21707344 155.1077404 C8.12841734 175.34718501 13.75532253 195.10797961 27.7578125 210.27734375 C28.4178125 210.60734375 29.0778125 210.93734375 29.7578125 211.27734375 C29.7578125 211.93734375 29.7578125 212.59734375 29.7578125 213.27734375 C30.345625 213.550625 30.9334375 213.82390625 31.5390625 214.10546875 C33.69262806 215.24291535 35.3754969 216.4917705 37.2578125 218.02734375 C52.92100399 229.94183078 70.56949472 233.44623909 89.7578125 232.27734375 C93.63944185 231.68767039 97.09851026 230.68129792 100.7578125 229.27734375 C101.72847656 228.92542969 102.69914062 228.57351562 103.69921875 228.2109375 C122.35286547 220.99247651 135.72829362 208.85073655 144.359375 190.95703125 C150.32291049 177.04211511 150.90859973 164.19887013 150.86791992 149.21826172 C150.86767724 147.73372395 150.86795668 146.24918603 150.86871338 144.76464844 C150.86981198 141.58963371 150.86840625 138.41463356 150.86534691 135.23962021 C150.86168828 130.21229844 150.87090497 125.18505073 150.88313293 120.15774536 C150.88515486 119.30613764 150.88717679 118.45452991 150.88925999 117.57711589 C150.89342769 115.83706021 150.89763044 114.09700461 150.90186751 112.35694909 C150.92993586 100.66907328 150.95010756 88.9813631 150.93286133 77.29345703 C150.92128874 69.3854307 150.93092858 61.4777416 150.96491891 53.5697757 C150.98202777 49.39380709 150.98843096 45.21844745 150.9688015 41.04247665 C150.95051132 37.11697383 150.96027953 33.19252034 150.99105835 29.2671051 C150.99739717 27.83248308 150.99363613 26.39777276 150.97866249 24.96321487 C150.89451167 16.25044352 151.47948239 9.73267499 157.7578125 3.27734375 C162.59896674 -0.35855036 167.27671143 -1.38842297 173.30078125 -1.1015625 C179.03858998 -0.21671759 183.14550497 2.05832232 186.6328125 6.71484375 C190.55687289 12.62837532 191.04946962 17.73078386 191.02523804 24.66072083 C191.02976915 25.61021675 191.03430026 26.55971268 191.03896868 27.53798121 C191.0516383 30.72304268 191.04999051 33.90793368 191.04833984 37.09301758 C191.05432446 39.37678243 191.06112985 41.66054526 191.06869507 43.94430542 C191.08639299 50.15878046 191.09105272 56.37320042 191.09232664 62.58769822 C191.09374941 66.4827489 191.09802193 70.37778565 191.10332108 74.27283287 C191.12089386 87.19619434 191.13015971 100.11951689 191.12866013 113.04288975 C191.12858022 113.73957354 191.1285003 114.43625732 191.12841797 115.15405273 C191.12833621 115.85160699 191.12825445 116.54916125 191.12817021 117.26785352 C191.12736228 128.50096513 191.14636914 139.73394101 191.1746947 150.96701352 C191.2036611 162.54770503 191.21685817 174.12832485 191.21550715 185.70905322 C191.21500192 192.19122195 191.22043517 198.67323799 191.24186325 205.15537453 C191.32385672 231.80300994 191.31355377 257.95567996 186.7578125 284.27734375 C186.51049944 285.75269561 186.51049944 285.75269561 186.25819016 287.25785255 C183.14737297 305.64627272 178.11173501 324.12521502 170.7578125 341.27734375 C170.47856934 341.93831055 170.19932617 342.59927734 169.91162109 343.28027344 C151.73651665 386.12776979 123.64548321 425.64344049 85.7578125 453.27734375 C84.44505025 454.29783982 83.13251113 455.31862306 81.8203125 456.33984375 C80.47372267 457.32940454 79.11845155 458.30719113 77.7578125 459.27734375 C76.77683594 459.97859375 75.79585937 460.67984375 74.78515625 461.40234375 C43.01683402 483.5909726 6.92462135 496.57147449 -31.2421875 502.27734375 C-32.41765137 502.45313965 -33.59311523 502.62893555 -34.80419922 502.81005859 C-40.21459634 503.47020782 -45.62592967 503.47722364 -51.0703125 503.515625 C-52.20489395 503.52532822 -53.3394754 503.53503143 -54.50843811 503.54502869 C-58.16972393 503.56992391 -61.83082554 503.58254895 -65.4921875 503.58984375 C-66.73527679 503.59246216 -67.97836609 503.59508057 -69.25912476 503.59777832 C-87.29507656 503.60186318 -104.55279815 503.03678966 -122.2421875 499.27734375 C-123.91521495 498.94975572 -125.58838614 498.62290068 -127.26171875 498.296875 C-131.62231859 497.41343468 -135.93082817 496.37326216 -140.2421875 495.27734375 C-140.94359863 495.10654297 -141.64500977 494.93574219 -142.36767578 494.75976562 C-161.99945452 489.94835976 -180.52465769 482.30335005 -198.14648438 472.44873047 C-200.10220526 471.35558639 -202.06843093 470.28470145 -204.0390625 469.21875 C-216.79439263 462.23244258 -228.1193479 453.59949442 -239.2421875 444.27734375 C-240.26570312 443.45105469 -241.28921875 442.62476563 -242.34375 441.7734375 C-247.44350211 437.64660731 -252.22642953 433.52636435 -256.41015625 428.45703125 C-258.26398535 426.25140942 -260.21167213 424.15303869 -262.18554688 422.05493164 C-276.33956833 406.95232041 -287.5108537 389.47771322 -297.2421875 371.27734375 C-297.57959961 370.65311523 -297.91701172 370.02888672 -298.26464844 369.38574219 C-304.65888743 357.4643854 -309.58345883 344.96456749 -314.2421875 332.27734375 C-314.69464844 331.05253296 -314.69464844 331.05253296 -315.15625 329.80297852 C-317.74618274 322.48043468 -318.55069274 315.43377217 -316.1796875 307.90234375 C-312.82349646 303.35524621 -309.00116875 299.22475471 -303.2421875 298.27734375 C-297.01593941 297.7882729 -291.48671085 297.49640831 -286.2421875 301.27734375 C-280.94013248 306.26871758 -278.80427324 311.38458021 -276.8046875 318.27734375 C-274.16966818 326.72216631 -271.126505 334.55346337 -267.15136719 342.45605469 C-266.20232093 344.35720536 -265.28689139 346.27218199 -264.375 348.19140625 C-254.82889481 368.07771314 -242.47002014 385.37861275 -227.2421875 401.27734375 C-226.76523437 401.78152832 -226.28828125 402.28571289 -225.796875 402.80517578 C-218.51511732 410.47389852 -210.8201352 417.10091677 -202.2421875 423.27734375 C-201.69385254 423.6758252 -201.14551758 424.07430664 -200.58056641 424.48486328 C-193.426242 429.65992965 -186.11330483 434.26530936 -178.2421875 438.27734375 C-176.99501953 438.92123047 -176.99501953 438.92123047 -175.72265625 439.578125 C-173.24216014 440.83985767 -170.74751129 442.0657207 -168.2421875 443.27734375 C-167.01822266 443.87675781 -167.01822266 443.87675781 -165.76953125 444.48828125 C-160.26489589 447.09530312 -154.66227278 449.29706463 -148.9296875 451.33984375 C-148.2792749 451.5730835 -147.6288623 451.80632324 -146.95874023 452.04663086 C-135.41923927 456.07002457 -123.79127775 458.95666204 -111.7421875 460.96484375 C-109.93814453 461.28291992 -109.93814453 461.28291992 -108.09765625 461.60742188 C-94.44881311 463.9310971 -80.87013415 464.48995224 -67.0546875 464.46484375 C-66.33030487 464.46357483 -65.60592224 464.46230591 -64.85958862 464.46099854 C-38.39728945 464.37293522 -12.92282338 460.21610281 11.7578125 450.27734375 C12.66112305 449.922771 13.56443359 449.56819824 14.49511719 449.20288086 C21.73874812 446.29008876 28.49707714 442.85994598 35.2578125 438.96484375 C36.2573999 438.39378906 37.2569873 437.82273437 38.28686523 437.234375 C46.65363023 432.41638282 55.00742813 427.55426662 62.3828125 421.27734375 C64.7578125 419.27734375 64.7578125 419.27734375 66.7578125 419.27734375 C66.7578125 418.61734375 66.7578125 417.95734375 66.7578125 417.27734375 C68.40136719 415.86279297 68.40136719 415.86279297 70.6796875 414.20703125 C89.78971447 399.73630324 104.41567074 380.54050498 116.63208008 360.13525391 C117.82830068 358.16100997 119.06299574 356.21403894 120.30078125 354.265625 C140.63578964 321.77748635 148.55053988 284.01183566 150.7578125 246.27734375 C149.90960937 246.91800781 149.06140625 247.55867187 148.1875 248.21875 C140.06405005 254.24937102 132.00318993 259.09223965 122.7578125 263.27734375 C121.943125 263.66535156 121.1284375 264.05335938 120.2890625 264.453125 C99.39851056 273.7179417 72.54631283 274.66408148 50.7578125 268.27734375 C50.00395264 268.0752832 49.25009277 267.87322266 48.47338867 267.66503906 C42.38851955 265.97032515 36.99469328 263.65135108 31.4453125 260.65234375 C30.62498535 260.2135791 29.8046582 259.77481445 28.95947266 259.32275391 C14.20477376 251.29127659 1.95486108 241.7139664 -8.2421875 228.27734375 C-8.75394531 227.66632813 -9.26570313 227.0553125 -9.79296875 226.42578125 C-15.20515194 219.80278619 -18.62856923 211.97012589 -22.2421875 204.27734375 C-22.65726563 203.42269531 -23.07234375 202.56804687 -23.5 201.6875 C-32.10702083 182.40641791 -30.8697621 160.94229684 -30.84535265 140.32894278 C-30.84319068 136.70768664 -30.85303459 133.08649899 -30.86256349 129.46525776 C-30.88461024 120.9243758 -30.88570438 112.38366995 -30.87353516 103.84277344 C-30.86140906 95.05647576 -30.88622708 86.27081485 -30.92867529 77.4846257 C-30.96394209 69.90365639 -30.97590631 62.32288971 -30.96939981 54.74184144 C-30.96578596 50.22955088 -30.9709304 45.71771703 -30.99882889 41.20550156 C-31.02404166 36.97132266 -31.02004754 32.73814101 -30.99400711 28.50397682 C-30.98929183 26.95645746 -30.99468697 25.40886709 -31.01125336 23.86142921 C-31.09035559 15.89564261 -30.90900026 9.4943632 -25.89472008 2.93852425 C-18.77339771 -4.22006493 -8.64108493 -4.91527301 0 0 Z "
        fill="#FCB911" transform="translate(948.2421875,8.72265625)" />
    <path
        d="M0 0 C10.01224367 5.92187583 13.06333911 20.87728241 16.62280273 31.29614258 C19.4077534 39.43805674 22.60969999 47.3404508 26 55.25 C30.42324081 65.5733641 34.54398204 75.9623167 38.48388672 86.47753906 C40.57598797 92.018877 42.71457037 97.54231934 44.85256958 103.06607056 C45.59032083 104.97286797 46.3263314 106.88033859 47.06225586 108.7878418 C49.82172941 115.9201133 52.62936388 123.03119197 55.4765625 130.12890625 C59.35499489 139.79769641 63.16843178 149.49102661 66.95458984 159.19628906 C68.0188082 161.92319328 69.0855419 164.64910559 70.15234375 167.375 C70.83869251 169.13275361 71.52489609 170.89056391 72.2109375 172.6484375 C72.52549896 173.45155365 72.84006042 174.2546698 73.16415405 175.0821228 C74.76384986 179.18975458 76.27517723 183.30138927 77.625 187.5 C79.91918723 184.05871915 81.22689799 180.50529166 82.64453125 176.65234375 C82.93914246 175.86161972 83.23375366 175.07089569 83.53729248 174.25621033 C84.17388978 172.54663988 84.80878435 170.83643463 85.44216919 169.12567139 C87.13601721 164.55095739 88.84200609 159.980772 90.546875 155.41015625 C90.89234879 154.48303833 91.23782257 153.55592041 91.59376526 152.60070801 C94.48375253 144.85416275 97.4322906 137.13111963 100.40231323 129.41497803 C105.33944098 116.58792523 110.14535974 103.71748161 114.875 90.8125 C119.60311502 77.91327343 124.4585775 65.07891958 129.52001953 52.30615234 C131.64753634 46.9032186 133.72802034 41.48214713 135.8125 36.0625 C136.4475647 34.41906616 136.4475647 34.41906616 137.09545898 32.74243164 C138.92123863 28.00460354 140.72686917 23.26570065 142.4140625 18.4765625 C142.80815308 17.37139282 142.80815308 17.37139282 143.21020508 16.24389648 C143.87715557 14.35812141 144.52731541 12.4664298 145.17578125 10.57421875 C147.4562678 5.73663676 151.21458622 2.44027585 155.625 -0.5 C161.05865501 -2.31121834 166.77365928 -2.60642516 172.171875 -0.51171875 C178.50014549 3.25763699 180.92288405 7.84179214 183.625 14.5 C184.24475992 15.93733736 184.86739529 17.37343671 185.4921875 18.80859375 C188.88849893 26.6699291 192.09953694 34.58581242 195.06542969 42.62036133 C197.74726055 49.8768237 200.52414845 57.09645052 203.3125 64.3125 C203.6995813 65.31449432 203.6995813 65.31449432 204.09448242 66.33673096 C208.19735898 76.94325916 212.44461635 87.48515427 216.76269531 98.00610352 C220.12245229 106.21175727 223.3243961 114.46578656 226.453125 122.76171875 C228.94116595 129.35550482 231.47635847 135.93100893 234.0173645 142.5045166 C234.53811133 143.85232252 235.05821638 145.20037662 235.5776062 146.54870605 C238.45537122 154.01885405 241.40319233 161.4520157 244.5065918 168.83178711 C246.02523001 172.4548382 247.48713109 176.09920333 248.9375 179.75 C249.20111328 180.41128906 249.46472656 181.07257813 249.73632812 181.75390625 C250.366716 183.33560672 250.99599104 184.91775066 251.625 186.5 C258.24259736 174.00009388 262.54134522 160.33053149 267.4152832 147.08349609 C274.69269873 127.30889606 282.06028448 107.58766759 289.87841797 88.02001953 C293.54384534 78.84383846 297.09810188 69.65957349 300.26660156 60.29736328 C303.06205214 52.07235727 306.28854601 44.02119368 309.484375 35.9453125 C311.36256772 31.19331872 313.16482892 26.41713808 314.9375 21.625 C315.82842672 19.24810396 316.72609036 16.8739007 317.625 14.5 C318.14126953 13.11361328 318.14126953 13.11361328 318.66796875 11.69921875 C321.06630087 5.71807212 323.88197973 2.75540965 329.453125 -0.6015625 C334.52519996 -2.69972301 340.87857339 -2.46641853 346.01171875 -0.66015625 C351.05807861 2.19464161 354.64778407 6.02463282 356.625 11.5 C358.97849553 22.43032825 354.10524345 31.70719295 349.89160156 41.48291016 C347.50834165 47.15991979 345.35958422 52.92715087 343.1875 58.6875 C342.71394136 59.93720259 342.24030834 61.18687699 341.76660156 62.43652344 C338.77649582 70.34344892 335.89317713 78.28478208 333.0625 86.25 C330.19696374 94.30694546 327.16000362 102.26680923 323.9375 110.1875 C319.58364921 120.89821522 315.54095508 131.70786012 311.5625 142.5625 C311.26105072 143.38469025 310.95960144 144.20688049 310.64901733 145.0539856 C309.45911731 148.30048714 308.26991624 151.54724333 307.08177185 154.79438782 C301.75326918 169.35411829 296.32463616 183.85791117 290.49584961 198.22509766 C288.26756876 203.76512015 286.24360938 209.35024664 284.3125 215 C281.59222636 222.90178543 278.72475594 230.7442092 275.72525024 238.54394531 C275.01451786 240.39959534 274.31705077 242.26030877 273.61987305 244.12109375 C270.52436537 252.09588488 267.72870714 257.81649675 259.625 261.5 C253.16957167 263.1390736 247.57614162 262.50815005 241.625 259.5 C237.5102474 256.71118129 235.65701676 254.22595167 233.6875 249.6875 C232.93146484 247.955 232.93146484 247.955 232.16015625 246.1875 C228.30263228 236.92159001 224.64469981 227.61277946 221.1628418 218.19970703 C218.30326436 210.53071508 215.21993175 202.95017906 212.13964844 195.36767578 C210.352309 190.94278407 208.59523695 186.54131479 207.13671875 181.99609375 C205.6801783 177.49126184 203.8570414 173.17451754 202.01269531 168.81640625 C199.40558508 162.5857614 196.96675709 156.28719884 194.5 150 C193.92890601 148.5472372 193.35769637 147.09451986 192.78637695 145.6418457 C190.30093405 139.32057644 187.82005329 132.99751718 185.33921814 126.67443848 C184.16384109 123.67871551 182.98822321 120.68308712 181.8125 117.6875 C181.36430908 116.54555176 180.91611816 115.40360352 180.4543457 114.22705078 C176.84991255 105.05249325 173.20286928 95.89550168 169.52783203 86.74902344 C167.88943974 82.6676633 166.25752677 78.5837091 164.625 74.5 C161.91345037 78.56732445 160.27605588 82.92048763 158.4375 87.4375 C157.8353064 88.91271118 157.8353064 88.91271118 157.22094727 90.41772461 C154.34158723 97.5489034 151.71192083 104.73819632 149.22436523 112.01391602 C146.79944387 119.08841229 144.15827941 126.06835314 141.47119141 133.046875 C139.55567683 138.03002295 137.70531918 143.0250466 135.9375 148.0625 C134.50641599 152.11881758 132.99204475 156.1027786 131.3125 160.0625 C126.05450351 172.47400895 121.39873317 185.13659277 117 197.875 C114.38283483 205.44827567 111.54062798 212.87532247 108.51416016 220.29589844 C106.6184281 224.99514857 104.78258121 229.71819228 102.9375 234.4375 C102.55674316 235.40921143 102.17598633 236.38092285 101.78369141 237.38208008 C101.41808105 238.31689209 101.0524707 239.2517041 100.67578125 240.21484375 C100.14573486 241.56400879 100.14573486 241.56400879 99.60498047 242.94042969 C98.98429004 244.56158526 98.38651304 246.19185833 97.82080078 247.83300781 C95.71673254 253.92454539 92.89546195 256.96028344 87.625 260.5 C80.79473525 263.48047916 74.71620553 262.70504623 67.9375 260.0625 C59.4603031 254.53474257 56.70297432 242.90107138 53.47412109 233.85107422 C51.88973984 229.46418767 50.2224771 225.10871048 48.5625 220.75 C48.24619629 219.91170654 47.92989258 219.07341309 47.60400391 218.2097168 C45.9038282 213.7315988 44.13505521 209.29184692 42.28125 204.875 C39.43028625 198.07968628 36.71970234 191.23218307 34.02319336 184.37451172 C33.19374191 182.26586827 32.36164464 180.15828284 31.52929688 178.05078125 C28.28973831 169.83090223 25.14173847 161.58434727 22.09741211 153.29003906 C21.05323653 150.52453547 19.89842608 147.8292606 18.68457031 145.1340332 C16.56721287 140.42991227 14.68171767 135.65449543 12.83203125 130.83984375 C12.48442245 129.94007813 12.13681366 129.0403125 11.77867126 128.11328125 C10.66263832 125.2222387 9.55001791 122.32989678 8.4375 119.4375 C7.66905479 117.44535165 6.90049969 115.45324568 6.13183594 113.46118164 C1.81363966 102.25787852 -2.4860196 91.04824207 -6.59838867 79.76733398 C-8.55154094 74.46517802 -10.78333861 69.35443594 -13.15234375 64.2253418 C-15.03445553 60.0300515 -16.64794271 55.74592525 -18.25 51.4375 C-20.24610704 46.09167582 -22.24481944 40.75787737 -24.4453125 35.4921875 C-31.33358489 18.91094937 -31.33358489 18.91094937 -28.703125 10.30078125 C-26.53698364 5.16094584 -23.24230703 2.13128199 -18.375 -0.5 C-12.48162009 -2.46445997 -5.75018299 -2.4862696 0 0 Z "
        fill="#FDBA11" transform="translate(277.375,8.5)" />
    <path
        d="M0 0 C0 0.66 0 1.32 0 2 C0.53238281 2.226875 1.06476563 2.45375 1.61328125 2.6875 C13.77419277 9.37500617 24.14978591 21.39021388 31.19921875 33.06640625 C32.709299 35.52642853 34.29154795 37.8846051 35.92578125 40.26171875 C38.92281313 44.74401359 41.30685074 49.33046128 43.5 54.25 C43.88164307 55.10480957 44.26328613 55.95961914 44.65649414 56.84033203 C52.42719908 74.81550511 56.08209208 92.96345023 56.3125 112.5 C56.33038574 113.54003174 56.34827148 114.58006348 56.36669922 115.65161133 C56.36043882 121.15495016 56.24314506 125.32605565 53 130 C51.09765625 131.86328125 51.09765625 131.86328125 49.0625 133.3125 C48.39347656 133.80363281 47.72445312 134.29476562 47.03515625 134.80078125 C43.06258903 137.1416222 39.30566972 137.12831372 34.75761414 137.14044189 C32.83349197 137.14900711 32.83349197 137.14900711 30.87049866 137.15774536 C29.45101938 137.15899064 28.03154 137.16011575 26.61206055 137.16113281 C25.11545693 137.16576273 23.61885449 137.17078762 22.12225342 137.17617798 C18.05810074 137.18928692 13.99396458 137.19574395 9.92979407 137.20018864 C7.38959834 137.20312168 4.8494071 137.20722691 2.30921364 137.21169281 C-5.64162751 137.22536352 -13.59245837 137.23503237 -21.54331046 137.2388947 C-30.71563744 137.24337513 -39.88781538 137.26092408 -49.06009704 137.2898953 C-56.15407437 137.31152292 -63.24800979 137.32159955 -70.34201974 137.32293582 C-74.57712963 137.32398303 -78.81209933 137.32987309 -83.04717445 137.34775543 C-87.03219036 137.36425495 -91.01696097 137.36638258 -95.0019989 137.35761642 C-96.46165818 137.35684706 -97.92133074 137.36117546 -99.38095665 137.37107468 C-109.24754656 137.43404701 -116.60436031 137.19020526 -124 130 C-127.23190891 124.921286 -128.72816897 119.59871939 -127.52734375 113.6640625 C-125.72819027 107.74553576 -123.52021371 103.50140391 -118.0625 100.25 C-113.53403676 98.40164766 -109.48565083 97.87488968 -104.61528015 97.87974548 C-103.54822342 97.87837082 -102.48116669 97.87699615 -101.3817749 97.87557983 C-99.64144989 97.88097275 -99.64144989 97.88097275 -97.8659668 97.88647461 C-96.63628677 97.88632858 -95.40660675 97.88618256 -94.1396637 97.8860321 C-90.77640648 97.8866086 -87.41321096 97.8916173 -84.04996467 97.89860606 C-80.53191291 97.90486545 -77.0138603 97.90544545 -73.49580383 97.90663147 C-66.8377606 97.90973716 -60.17973382 97.91794028 -53.52169782 97.92798096 C-45.94010809 97.93916575 -38.35851756 97.94465851 -30.77692163 97.94967639 C-15.1846049 97.96012353 0.40769543 97.97770822 16 98 C15.37472906 95.43349446 14.74532792 92.86812086 14.11352539 90.30322266 C13.85018276 89.21951134 13.85018276 89.21951134 13.58152008 88.11390686 C12.30881765 82.96639392 10.72181017 78.16948473 8.4375 73.375 C8.14681641 72.73433594 7.85613281 72.09367187 7.55664062 71.43359375 C6.21528055 68.49880593 4.80238408 65.60476815 3.359375 62.71875 C2.09283011 60.18566022 1.01090893 57.64391567 0 55 C-0.66 55 -1.32 55 -2 55 C-3.47265625 53.35546875 -3.47265625 53.35546875 -5.0625 51.1875 C-5.58972656 50.47980469 -6.11695313 49.77210937 -6.66015625 49.04296875 C-8 47 -8 47 -9 44 C-9.99 43.67 -10.98 43.34 -12 43 C-13.1847832 41.84906775 -14.36517027 40.69316151 -15.51953125 39.51171875 C-29.17627304 25.56670801 -47.26344411 18.10031674 -66.69897461 17.4609375 C-90.47348656 17.27448597 -110.67289803 26.30467635 -127.74609375 42.625 C-147.16708466 62.96235425 -156.17349175 89.75073015 -156.1875 117.375 C-156.20586914 119.26992188 -156.20586914 119.26992188 -156.22460938 121.203125 C-156.23583952 128.4053917 -155.78970313 135.02100309 -154 142 C-153.83363037 142.69432129 -153.66726074 143.38864258 -153.49584961 144.10400391 C-149.32759032 160.89422914 -141.90333441 176.78946037 -130.1015625 189.58984375 C-129 191 -129 191 -129 193 C-128.41605469 193.26296875 -127.83210938 193.5259375 -127.23046875 193.796875 C-124.89736103 195.05536393 -123.24896579 196.44750354 -121.3125 198.25 C-103.71461416 213.84592451 -82.00538216 218.95746159 -59 218 C-36.71537131 216.28391198 -17.32453293 208.49260452 1 196 C1.67675781 195.54753906 2.35351562 195.09507812 3.05078125 194.62890625 C5.79634021 192.74170191 8.20430919 190.79569081 10.5625 188.4375 C15.4971919 183.5028081 19.54508311 181.32255507 26.4765625 180.90625 C32.9494728 181.14672964 37.3205489 183.75229301 41.7734375 188.3046875 C45.88999663 193.99445394 45.55912175 200.27220717 45 207 C43.18376812 213.01626811 38.72488768 216.17027226 34 220 C33.12472656 220.73734375 32.24945313 221.4746875 31.34765625 222.234375 C25.78497627 226.88424494 20.16420959 231.18308877 14 235 C13.09765625 235.56460937 12.1953125 236.12921875 11.265625 236.7109375 C1.6264247 242.55055884 -8.52732347 247.30040028 -19.42578125 250.26171875 C-21.74006482 250.92545106 -23.98462963 251.68615659 -26.2578125 252.4765625 C-57.99445007 263.07715309 -94.79273995 258.46905905 -124.22119141 243.90039062 C-133.27666371 239.3024649 -140.71387409 234.14274955 -148 227 C-149.47050928 225.69848578 -150.94916839 224.40609556 -152.4375 223.125 C-157.22318209 218.98873197 -157.22318209 218.98873197 -159 217 C-159 216.34 -159 215.68 -159 215 C-159.66 215 -160.32 215 -161 215 C-171.37921528 204.64679779 -179.70276529 189.53277931 -185 176 C-185.50630951 174.83170151 -186.01261902 173.66340302 -186.53427124 172.45970154 C-188.32494521 167.64788657 -188.45044871 163.18224458 -188.45166016 158.09008789 C-188.46334229 157.13111603 -188.47502441 156.17214417 -188.48706055 155.18411255 C-188.52050477 152.03019039 -188.53137191 148.8767399 -188.5390625 145.72265625 C-188.55125921 143.5103693 -188.56374572 141.29808393 -188.57650757 139.08580017 C-188.59895164 134.44998482 -188.60853372 129.8143334 -188.61083984 125.1784668 C-188.61610249 119.28106597 -188.66732208 113.38505796 -188.73035622 107.48803043 C-188.77153561 102.91589692 -188.78048442 98.34408982 -188.78095627 93.77178764 C-188.78629165 91.60035785 -188.80293913 89.42892153 -188.83180618 87.25767708 C-189.00247077 73.24624044 -187.48108715 62.50031137 -181 50 C-180.29185905 48.59870346 -180.29185905 48.59870346 -179.56941223 47.1690979 C-178.49327365 45.10002649 -177.34387712 43.11275064 -176.125 41.125 C-175.70355713 40.42431396 -175.28211426 39.72362793 -174.84790039 39.00170898 C-171.0830004 32.87714296 -166.77677497 27.37174694 -162 22 C-161.31679687 21.1853125 -160.63359375 20.370625 -159.9296875 19.53125 C-120.98710937 -25.87780789 -48.83746376 -36.86289332 0 0 Z "
        fill="#FDBA11" transform="translate(188,22)" />
    <path
        d="M0 0 C1.85950361 -0.01641306 3.7189481 -0.0435042 5.578125 -0.08203125 C38.54945302 -0.75887929 65.84812665 12.57683912 89.6237793 34.94506836 C97.14750556 42.2733148 103.02388844 50.4622068 108.57128906 59.35009766 C108.94092773 59.93903809 109.31056641 60.52797852 109.69140625 61.13476562 C112.15713372 65.11742682 114.42591812 69.18805622 116.57128906 73.35009766 C116.90757324 74.00107422 117.24385742 74.65205078 117.59033203 75.32275391 C136.19103859 112.15722024 137.22111242 158.92857516 125.33496094 198.03369141 C123.247665 204.3649778 120.49137914 210.36652022 117.57128906 216.35009766 C117.07628906 217.36845703 116.58128906 218.38681641 116.07128906 219.43603516 C112.65202167 226.07015721 108.36895914 231.65893436 103.57128906 237.35009766 C102.87261719 238.27048828 102.17394531 239.19087891 101.45410156 240.13916016 C100.83277344 240.86876953 100.21144531 241.59837891 99.57128906 242.35009766 C98.91128906 242.35009766 98.25128906 242.35009766 97.57128906 242.35009766 C97.33796875 242.92888672 97.10464844 243.50767578 96.86425781 244.10400391 C95.2630523 246.88555427 93.41881466 248.3271261 90.88378906 250.28759766 C90.05492187 250.93599609 89.22605469 251.58439453 88.37207031 252.25244141 C86.98568359 253.29078125 86.98568359 253.29078125 85.57128906 254.35009766 C84.01474609 255.543125 84.01474609 255.543125 82.42675781 256.76025391 C51.72392133 278.51833347 10.82379783 283.31753034 -25.49121094 277.78759766 C-50.62463384 273.49313571 -77.56241595 262.52508119 -92.81152344 241.08837891 C-106.92605037 220.34430144 -112.02603297 195.66968895 -107.36621094 170.91259766 C-104.12710784 158.37999317 -98.5883254 147.38879346 -90.42871094 137.35009766 C-89.97238281 136.71974609 -89.51605469 136.08939453 -89.04589844 135.43994141 C-74.2855931 116.03942032 -45.06567219 108.90779706 -22.42871094 105.35009766 C-17.4404 104.70512783 -12.45524621 104.47282622 -7.42871094 104.35009766 C-6.13191406 104.31013672 -4.83511719 104.27017578 -3.49902344 104.22900391 C38.86801849 103.33855736 38.86801849 103.33855736 53.57128906 114.35009766 C58.67358345 120.00399143 58.98549892 124.62532489 58.91113281 132.04541016 C58.34111516 137.58834047 56.20830567 141.11223244 51.99707031 144.68603516 C46.69345017 148.17233091 40.88743886 149.02602969 34.71582031 147.76806641 C32.78542651 147.26111952 30.86321501 146.72114061 28.95410156 146.13916016 C3.81245811 140.27471215 -29.45948078 142.348969 -52.03027344 155.70166016 C-60.84111818 161.75732218 -65.69536823 169.28339276 -68.24121094 179.66259766 C-69.03671804 195.30757058 -68.34728411 208.82574732 -57.82324219 221.24462891 C-43.98067845 234.78161729 -21.17882535 239.95771858 -2.42871094 240.35009766 C-1.08873047 240.40810547 -1.08873047 240.40810547 0.27832031 240.46728516 C7.53705174 240.65420528 14.45189706 239.71173001 21.57128906 238.35009766 C22.22403809 238.22650879 22.87678711 238.10291992 23.54931641 237.97558594 C38.29571703 235.09883481 51.55214281 230.3775368 63.43457031 220.95166016 C65.57128906 219.35009766 65.57128906 219.35009766 68.57128906 218.35009766 C68.90128906 217.36009766 69.23128906 216.37009766 69.57128906 215.35009766 C70.9046224 214.01676432 72.23795573 212.68343099 73.57128906 211.35009766 C91.94591025 190.85124281 93.64329384 160.79841641 92.76220703 134.70947266 C91.9051729 119.629179 88.13258284 105.89285003 81.57128906 92.35009766 C81.26707031 91.69960449 80.96285156 91.04911133 80.64941406 90.37890625 C75.95451294 80.42462171 70.020748 72.41575999 62.57128906 64.35009766 C61.91515625 63.60115234 61.25902344 62.85220703 60.58300781 62.08056641 C48.77157135 49.25744374 30.22570516 40.3682079 12.87597656 39.1628418 C10.06269361 39.08266923 7.26054681 39.07219594 4.44628906 39.10009766 C3.44073975 39.10759033 2.43519043 39.11508301 1.39916992 39.12280273 C-17.18134004 39.38830216 -33.55290919 42.78624258 -49.93847656 51.58300781 C-57.44162095 55.58742892 -64.02467592 57.2670511 -72.42871094 55.35009766 C-78.09182852 52.41366632 -81.92540981 48.21252935 -84.42871094 42.35009766 C-85.27994102 36.53005942 -84.76568518 31.27189747 -81.79980469 26.15087891 C-79.19870124 22.73461483 -76.05887724 20.58674851 -72.42871094 18.35009766 C-71.54699219 17.79580078 -70.66527344 17.24150391 -69.75683594 16.67041016 C-48.59295557 4.33395139 -24.14919901 0.15517894 0 0 Z "
        fill="#FDB911" transform="translate(748.4287109375,-0.35009765625)" />
    <path
        d="M0 0 C4.35581651 -0.10007178 8.71099593 -0.17202448 13.06762695 -0.21972656 C14.54463378 -0.23964487 16.02156384 -0.26679007 17.49829102 -0.30175781 C37.54882054 -0.76409623 37.54882054 -0.76409623 45.22363281 5.94335938 C51.59983299 12.64124782 52.22342325 18.59614904 52.0703125 27.5859375 C52.04710937 28.38257812 52.02390625 29.17921875 52 30 C52.721875 28.9275 53.44375 27.855 54.1875 26.75 C59.20472574 20.91629177 66.54012978 19.58224416 73.90234375 18.62109375 C80.7728645 18.31551822 86.89233895 19.8433469 93 23 C96.46433808 26.21084993 98.05955009 29.3832459 99 34 C98.94339222 37.70466481 98.48321683 41.32932535 98 45 C97.91669434 45.64904297 97.83338867 46.29808594 97.74755859 46.96679688 C97.18928003 51.31463355 96.60351899 55.65817893 96 60 C97.98 60.495 97.98 60.495 100 61 C99.69249629 63.14655501 99.3788634 65.29223285 99.0625 67.4375 C98.88847656 68.63246094 98.71445313 69.82742187 98.53515625 71.05859375 C98 74 98 74 97 75 C85.74818245 76.06743526 85.74818245 76.06743526 81.25 73 C80.5075 72.34 79.765 71.68 79 71 C77.8553125 71.9590625 77.8553125 71.9590625 76.6875 72.9375 C71.66888728 76.27137748 65.5738915 76.39846132 59.72265625 75.74609375 C54.71900069 74.68005581 49.76031001 72.6614926 46.85546875 68.26953125 C45.73206313 65.28917205 45.69853035 62.74291819 45.6875 59.5625 C45.67074219 58.45003906 45.65398437 57.33757812 45.63671875 56.19140625 C46.19323717 51.30242185 48.20359769 48.79640231 51.625 45.375 C60.39009379 38.64239172 71.45495689 39.32988808 82 39 C81.65555119 36.52733235 81.65555119 36.52733235 81 34 C78.35541621 32.67770811 76.32238699 32.90322806 73.375 32.9375 C71.87066406 32.95103516 71.87066406 32.95103516 70.3359375 32.96484375 C69.56507812 32.97644531 68.79421875 32.98804688 68 33 C67.34 34.65 66.68 36.3 66 38 C60.72 38 55.44 38 50 38 C50 37.01 50 36.02 50 35 C49.47212891 35.77923828 49.47212891 35.77923828 48.93359375 36.57421875 C44.11106409 43.38619929 39.25255794 47.95058428 31 50 C27.03776608 50.23544559 23.09236232 50.18851688 19.125 50.125 C18.05507812 50.11597656 16.98515625 50.10695312 15.8828125 50.09765625 C13.25497561 50.07419342 10.62760594 50.04136459 8 50 C7.95101563 50.81082031 7.90203125 51.62164062 7.8515625 52.45703125 C6.49812734 72.50187266 6.49812734 72.50187266 4 75 C1.30345146 75.07319621 -1.36691458 75.09242537 -4.0625 75.0625 C-4.82111328 75.05798828 -5.57972656 75.05347656 -6.36132812 75.04882812 C-8.24091871 75.0370068 -10.12046899 75.01907078 -12 75 C-11.38337904 66.55750773 -10.16229618 58.28409848 -8.75 49.94140625 C-8.52931309 48.62154724 -8.30894153 47.30163548 -8.08886719 45.98167419 C-7.63074697 43.2390669 -7.16997877 40.49692346 -6.70703125 37.75512695 C-6.11468635 34.24663042 -5.52738795 30.73731288 -4.9418335 27.22767735 C-4.37982109 23.86109538 -3.81491231 20.4950029 -3.25 17.12890625 C-3.03956055 15.87163223 -2.82912109 14.61435822 -2.61230469 13.31898499 C-2.41540039 12.1535466 -2.21849609 10.98810822 -2.015625 9.78735352 C-1.84321289 8.76352066 -1.67080078 7.73968781 -1.49316406 6.68482971 C-1.0778984 4.42408593 -0.59151548 2.2199819 0 0 Z M14 15 C13.01 21.93 12.02 28.86 11 36 C21.50872296 36.63052056 21.50872296 36.63052056 31 33 C33.64904747 29.94340677 34.84842861 27.92837475 35.5 23.9375 C34.87503832 20.26585015 33.61389919 18.61389919 31 16 C25.57364835 14.19121612 19.66885438 14.94799216 14 15 Z M63 54 C62.18129815 57.56206661 62.18129815 57.56206661 62 61 C65.80406216 63.53604144 67.48508904 63.60198813 72 63 C74.75984603 61.36918189 77.04475529 59.54623676 79 57 C79.72986387 54.38132707 79.72986387 54.38132707 80 52 C77.91695462 51.94581674 75.83350232 51.90712449 73.75 51.875 C72.58984375 51.85179687 71.4296875 51.82859375 70.234375 51.8046875 C67.14833588 51.99104252 65.45826497 52.15630127 63 54 Z "
        fill="#424042" transform="translate(1635,33)" />
    <path
        d="M0 0 C0.82564453 -0.020625 1.65128906 -0.04125 2.50195312 -0.0625 C11.20240023 -0.11734915 17.65314956 2.19826357 24.046875 8.1640625 C29.34757498 14.42639389 29.8125 20.16015272 29.8125 28.25 C24.5325 28.25 19.2525 28.25 13.8125 28.25 C13.1525 25.94 12.4925 23.63 11.8125 21.25 C9.89891287 18.97761528 8.45655865 17.57202932 5.8125 16.25 C-2.1824807 15.57068791 -7.40208973 16.27574907 -13.8125 21.3125 C-19.81646506 28.73845679 -21.78423822 37.90110124 -21.1875 47.25 C-20.79488259 50.16729647 -20.17646741 52.43144289 -19.1875 55.25 C-17.33603436 56.71804363 -17.33603436 56.71804363 -15.1875 57.25 C-14.1975 57.91 -13.2075 58.57 -12.1875 59.25 C-6.88245271 60.7657278 -2.31868115 59.99517067 2.8125 58.25 C8.03134478 55.18676502 8.19423255 53.35929073 10.8125 47.25 C5.2025 47.25 -0.4075 47.25 -6.1875 47.25 C-4.3125 34.375 -4.3125 34.375 -3.1875 33.25 C-0.73919574 33.16156207 1.68070599 33.13471248 4.12890625 33.15234375 C4.85996078 33.1537587 5.59101532 33.15517365 6.34422302 33.15663147 C8.68785632 33.16224592 11.03139539 33.17480078 13.375 33.1875 C14.96028508 33.19251314 16.54557166 33.19707637 18.13085938 33.20117188 C22.0247761 33.21222003 25.91862205 33.22949428 29.8125 33.25 C28.0521323 47.38972765 25.78991855 61.31507663 22.8125 75.25 C18.8525 75.25 14.8925 75.25 10.8125 75.25 C10.4825 73.27 10.1525 71.29 9.8125 69.25 C9.26980469 69.59933594 8.72710938 69.94867188 8.16796875 70.30859375 C7.45253906 70.76363281 6.73710938 71.21867187 6 71.6875 C5.29230469 72.13996094 4.58460937 72.59242187 3.85546875 73.05859375 C-2.76580087 76.91994601 -12.87259133 76.17303459 -20.21875 74.6015625 C-26.99415921 72.15488695 -32.1553202 68.21522889 -35.46875 61.75 C-40.94632652 48.60381635 -40.14419441 35.81670154 -35.19140625 22.58984375 C-30.52510825 12.14314892 -22.67826362 5.4917528 -12.1875 1.25 C-8.09768766 -0.11327078 -4.28400477 0.02614191 0 0 Z "
        fill="#424042" transform="translate(1344.1875,32.75)" />
    <path
        d="M0 0 C1.9375 1.6875 1.9375 1.6875 3 3 C3.56332031 2.71382812 4.12664062 2.42765625 4.70703125 2.1328125 C13.37851866 -2.15122728 20.69781565 -4.86229361 30.25 -1.875 C34.96932946 0.09374223 37.71785687 3.43571373 40 8 C41.42483017 23.26603754 37.9477815 38.10317565 35 53 C29.39 53 23.78 53 18 53 C18.3609375 51.02257812 18.721875 49.04515625 19.09375 47.0078125 C19.44186316 45.05837878 19.78991132 43.10893291 20.13623047 41.15917969 C20.37564166 39.82040514 20.61807463 38.48216686 20.86376953 37.14453125 C23.36296191 25.63404911 23.36296191 25.63404911 23 14 C20.12351775 11.66015558 20.12351775 11.66015558 16.5625 12.125 C12.51885613 13.11817569 11.51335502 13.75895903 9 17 C8.1611985 19.75522994 7.52773152 22.31263581 7 25.125 C6.67232988 26.72925964 6.3441901 28.33342342 6.015625 29.9375 C5.85126953 30.76507813 5.68691406 31.59265625 5.51757812 32.4453125 C4.65842959 36.68594 3.69988394 40.90395323 2.75 45.125 C2.41099647 46.64833479 2.07241152 48.17176283 1.734375 49.6953125 C1.49203125 50.78585938 1.2496875 51.87640625 1 53 C-4.28 53 -9.56 53 -15 53 C-13.18084334 39.98603311 -13.18084334 39.98603311 -12.1640625 34.0859375 C-12.02331299 33.25296143 -11.88256348 32.41998535 -11.73754883 31.56176758 C-11.45957564 29.92729801 -11.17328795 28.29421517 -10.87768555 26.6628418 C-10.05798877 21.78937188 -10.03679524 17.85481058 -11 13 C-15.58817182 12.07529135 -15.58817182 12.07529135 -20.1875 12.5 C-25.10665116 16.57102165 -26.69491776 22.63210107 -27.703125 28.68359375 C-27.83064148 29.38396255 -27.95815796 30.08433136 -28.08953857 30.80592346 C-28.48875152 33.01444614 -28.86965497 35.22565851 -29.25 37.4375 C-29.51962235 38.94748236 -29.79044493 40.45725092 -30.0625 41.96679688 C-30.72448252 45.64201082 -31.36153593 49.32031876 -32 53 C-37.28 53 -42.56 53 -48 53 C-46.60373645 42.91587437 -45.02694898 32.87656094 -43.34057617 22.83764648 C-42.93282423 20.40965776 -42.52775592 17.98123198 -42.12304688 15.55273438 C-41.86213346 13.9921617 -41.60107131 12.43161387 -41.33984375 10.87109375 C-41.22003647 10.15336288 -41.10022919 9.43563202 -40.97679138 8.69615173 C-40.37434609 5.11531562 -39.71237232 1.56186162 -39 -2 C-34.38 -2 -29.76 -2 -25 -2 C-24.67 -1.01 -24.34 -0.02 -24 1 C-23.2575 0.525625 -22.515 0.05125 -21.75 -0.4375 C-14.46359801 -4.57750113 -7.18311774 -3.80282704 0 0 Z "
        fill="#424042" transform="translate(1835,55)" />
    <path
        d="M0 0 C1.39456452 0.00667256 2.78911118 0.01863093 4.18359375 0.03515625 C4.89451172 0.03966797 5.60542969 0.04417969 6.33789062 0.04882812 C8.09899388 0.06064761 9.86005411 0.07858362 11.62109375 0.09765625 C11.08698512 7.45017294 10.48968459 14.77667628 9.62109375 22.09765625 C10.77609375 21.60265625 11.93109375 21.10765625 13.12109375 20.59765625 C19.44147139 18.26089691 25.33284135 18.24697195 31.59765625 20.859375 C36.82640528 24.0592079 40.61747633 28.88133444 43.12109375 34.41015625 C44.68668016 45.95635605 43.57854644 55.68637282 36.87109375 65.47265625 C32.41757485 70.93325229 26.67385026 74.4541239 19.76171875 75.8828125 C13.05925955 76.55550457 7.46854251 75.45993929 1.62109375 72.09765625 C0.96109375 72.09765625 0.30109375 72.09765625 -0.37890625 72.09765625 C-0.70890625 73.08765625 -1.03890625 74.07765625 -1.37890625 75.09765625 C-5.99890625 75.09765625 -10.61890625 75.09765625 -15.37890625 75.09765625 C-15.63220028 68.18262508 -14.65708968 61.7305982 -13.48046875 54.92578125 C-13.28544769 53.76697449 -13.09042664 52.60816772 -12.88949585 51.41424561 C-12.2670814 47.72431679 -11.63566925 44.03599475 -11.00390625 40.34765625 C-10.58663765 37.88421647 -10.16996515 35.42067563 -9.75390625 32.95703125 C-8.80991455 27.37282197 -7.86107478 21.78947655 -6.90313721 16.2076416 C-6.53633419 14.03159305 -6.18112602 11.85357271 -5.83465576 9.67419434 C-5.66024963 8.58255981 -5.48584351 7.49092529 -5.30615234 6.36621094 C-5.07440811 4.88492706 -5.07440811 4.88492706 -4.83798218 3.37371826 C-4.10850249 -0.24298414 -3.88679857 0.11233522 0 0 Z M6.36328125 38.79296875 C3.33139222 44.02986798 2.6669088 49.14393977 3.62109375 55.09765625 C4.88564578 58.74674886 4.88564578 58.74674886 7.62109375 61.09765625 C11.61100356 62.59175014 14.7609655 62.35063515 18.80859375 61.16015625 C23.64698326 57.61200394 26.54740809 52.96928992 27.62109375 47.03515625 C27.62109375 41.69090262 26.22540635 38.71521891 23.43359375 34.16015625 C17.24221664 30.53072829 10.33815008 33.43553685 6.36328125 38.79296875 Z "
        fill="#424042" transform="translate(1474.37890625,32.90234375)" />
    <path
        d="M0 0 C2.69704338 2.23162439 4.4083989 4.63476669 5.8125 7.875 C6.42171009 14.77938098 5.65854737 21.20527622 4.5 28 C4.35691406 28.87011719 4.21382812 29.74023438 4.06640625 30.63671875 C3.71661973 32.75875695 3.3591135 34.87952028 3 37 C4.32 37.33 5.64 37.66 7 38 C6.34 42.62 5.68 47.24 5 52 C-6.91523747 52.39281003 -6.91523747 52.39281003 -12 49 C-14.18451267 48.83067166 -14.18451267 48.83067166 -16.4375 50.4375 C-22.70574414 53.18672988 -29.2019455 53.84029999 -35.8125 51.875 C-39.97541892 50.23823296 -42.87625855 48.20183499 -46 45 C-47.87820879 39.45699357 -47.55571878 33.75490141 -45.8125 28.25 C-43.02022659 23.24316492 -40.27688241 20.20733429 -34.875 18.1875 C-26.86017046 16.01274442 -18.22637891 16.7719587 -10 17 C-10.96776098 13.20452079 -10.96776098 13.20452079 -13 10 C-14.96207724 9.68391655 -14.96207724 9.68391655 -17.25 9.625 C-18.01828125 9.57601562 -18.7865625 9.52703125 -19.578125 9.4765625 C-22.27351507 9.81366339 -22.27351507 9.81366339 -24.27734375 12.50390625 C-27.53227693 15.48798416 -28.89713034 15.53602442 -33.12695312 15.43945312 C-33.84818359 15.39755859 -34.56941406 15.35566406 -35.3125 15.3125 C-36.05306641 15.28994141 -36.79363281 15.26738281 -37.55664062 15.24414062 C-39.37197357 15.1855815 -41.18625681 15.09590886 -43 15 C-41.39828054 9.02285179 -39.86506186 5.11659081 -35 1 C-34.34 0.34 -33.68 -0.32 -33 -1 C-21.87514574 -5.27728083 -10.67781314 -5.68785471 0 0 Z M-30 32 C-31.15474612 34.43810155 -31.15474612 34.43810155 -31 37 C-30.10938785 38.97578739 -30.10938785 38.97578739 -28 40 C-23.6881431 40.56949053 -21.52596745 40.28779351 -17.6875 38.1875 C-14.85430578 36.10119391 -14.85430578 36.10119391 -13 33 C-13 31.68 -13 30.36 -13 29 C-14.89510699 28.91839252 -16.79124504 28.86053541 -18.6875 28.8125 C-19.74324219 28.77769531 -20.79898437 28.74289063 -21.88671875 28.70703125 C-25.39974713 29.03761736 -27.20625829 29.88078331 -30 32 Z "
        fill="#424042" transform="translate(1566,56)" />
    <path
        d="M0 0 C5.28 0 10.56 0 16 0 C17.79742962 7.80229539 19.22077233 15.64363814 20.58789062 23.53125 C20.75611328 24.48 20.92433594 25.42875 21.09765625 26.40625 C21.32207397 27.69499023 21.32207397 27.69499023 21.55102539 29.00976562 C21.81142286 30.98947889 21.81142286 30.98947889 23 32 C23.4846875 31.030625 23.969375 30.06125 24.46875 29.0625 C31.734375 14.53125 31.734375 14.53125 39 0 C44.94 0 50.88 0 57 0 C54.08795896 6.87241685 50.7227255 13.39088754 47.13378906 19.93261719 C45.37770202 23.13471562 43.63085015 26.34184202 41.8828125 29.54833984 C40.87088592 31.40342935 39.8578503 33.25791429 38.84375 35.11181641 C36.03199246 40.25533929 33.24071371 45.40884277 30.4765625 50.578125 C29.89600098 51.66053467 29.31543945 52.74294434 28.71728516 53.8581543 C27.59560394 55.95114064 26.47791035 58.0462703 25.36474609 60.14379883 C18.43135092 73.0585832 18.43135092 73.0585832 12.01123047 75.49462891 C8.21561594 76.44837036 4.45001346 76.30967004 0.5625 76.1875 C-0.67790039 76.16719727 -0.67790039 76.16719727 -1.94335938 76.14648438 C-3.9625264 76.11146992 -5.98135318 76.05767562 -8 76 C-7.85795259 74.41632253 -7.71119847 72.83306682 -7.5625 71.25 C-7.48128906 70.36828125 -7.40007812 69.4865625 -7.31640625 68.578125 C-7.03761535 66.30649548 -6.61209423 64.20148177 -6 62 C-5.25234375 61.98582031 -4.5046875 61.97164062 -3.734375 61.95703125 C2.36577357 61.70851477 2.36577357 61.70851477 7.75 59.125 C11.7146065 49.21348375 5.99413827 34.21864035 3.9375 24.0625 C3.37089819 21.25357094 2.80602014 18.44433772 2.2457428 15.63414001 C1.89903419 13.89603304 1.54864063 12.15865593 1.19407654 10.4221344 C0.95866905 9.24456825 0.95866905 9.24456825 0.71850586 8.04321289 C0.57940292 7.35691299 0.44029999 6.6706131 0.29698181 5.96351624 C0 4 0 4 0 0 Z "
        fill="#424042" transform="translate(1737,53)" />
    <path
        d="M0 0 C5.05952511 5.5059538 7.27232175 11.97534045 7.25 19.375 C7.25386719 20.66083984 7.25386719 20.66083984 7.2578125 21.97265625 C7.125 24.3125 7.125 24.3125 6.125 27.3125 C-6.085 27.3125 -18.295 27.3125 -30.875 27.3125 C-29.01051733 35.82559539 -29.01051733 35.82559539 -25.625 37.9375 C-22.05985644 38.42365594 -19.36814605 38.20166445 -15.875 37.3125 C-13.5568638 35.42138889 -12.20585985 33.97421969 -10.875 31.3125 C-5.595 31.3125 -0.315 31.3125 5.125 31.3125 C3.7644839 39.4755966 0.77870162 43.48530471 -5.875 48.3125 C-12.83193475 52.20838346 -21.2857368 53.31101605 -29.125 51.6875 C-35.60338666 49.31209156 -41.09936535 46.26638542 -44.875 40.3125 C-48.29617645 31.76573428 -48.38847688 20.89142429 -44.91015625 12.30078125 C-40.9773468 4.74681895 -35.94108626 -0.39319807 -27.90234375 -3.43359375 C-18.33045539 -6.19288562 -8.6071113 -5.05200011 0 0 Z M-25.875 11.3125 C-27.36 13.7875 -27.36 13.7875 -28.875 16.3125 C-22.275 16.3125 -15.675 16.3125 -8.875 16.3125 C-10.1634451 10.61184889 -10.1634451 10.61184889 -12.625 8.9375 C-17.87358468 7.47955981 -21.56225265 7.93223856 -25.875 11.3125 Z "
        fill="#424042" transform="translate(1925.875,56.6875)" />
    <path
        d="M0 0 C2.60538088 1.69652708 4.61641327 3.43994172 6.6875 5.75 C8.85623412 4.74308773 10.68930164 3.74855869 12.5625 2.25 C17.79314646 -1.44222103 23.48314304 -1.93237428 29.6875 -1.25 C34.56849766 -0.07064078 38.6739061 1.57733152 41.6875 5.75 C45.46920825 15.39335604 43.32750635 25.21113834 41.60620117 35.08154297 C41.24732276 37.14035882 40.89915481 39.20077352 40.55273438 41.26171875 C38.8523443 51.25546711 38.8523443 51.25546711 37.6875 54.75 C34.3875 54.75 31.0875 54.75 27.6875 54.75 C28.33124161 50.3538577 28.97785747 45.95814284 29.625 41.5625 C29.80740234 40.31662109 29.98980469 39.07074219 30.17773438 37.78710938 C30.35498047 36.58505859 30.53222656 35.38300781 30.71484375 34.14453125 C30.95835571 32.48707886 30.95835571 32.48707886 31.20678711 30.79614258 C31.63299368 28.09539125 32.14188259 25.42851213 32.6875 22.75 C33.1707949 18.56672615 33.09222715 15.59464797 31.25 11.75 C27.97167218 9.19130512 25.87482126 9.16133944 21.80859375 9.375 C19.13307176 9.84802046 17.63283869 10.88247486 15.6875 12.75 C15.0275 12.75 14.3675 12.75 13.6875 12.75 C9.49588792 22.79912126 7.91003101 33.60205228 6.04541016 44.27124023 C5.88347168 45.19364502 5.7215332 46.1160498 5.5546875 47.06640625 C5.41144043 47.89599854 5.26819336 48.72559082 5.12060547 49.58032227 C4.6875 51.75 4.6875 51.75 3.6875 54.75 C0.7175 54.75 -2.2525 54.75 -5.3125 54.75 C-6.34598828 50.61604689 -6.14825879 48.84888616 -5.31640625 44.76953125 C-5.08759766 43.60486328 -4.85878906 42.44019531 -4.62304688 41.24023438 C-4.12831895 38.80792974 -3.63352832 36.37563786 -3.13867188 33.94335938 C-0.58212276 22.67464682 -0.58212276 22.67464682 -2.75 11.6875 C-6.01112829 9.22176885 -8.12038564 9.08865454 -12.1328125 9.33203125 C-16.63607085 10.19555928 -18.67526343 12.91443551 -21.3449707 16.41503906 C-23.5024308 20.07193259 -24.33273838 23.35791279 -24.98046875 27.484375 C-25.10561356 28.20361145 -25.23075836 28.9228479 -25.35969543 29.66387939 C-25.75329763 31.94052733 -26.12736885 34.21983502 -26.5 36.5 C-26.88723724 38.79361746 -27.27847853 41.0864956 -27.67243958 43.37896729 C-27.91539873 44.80048293 -28.15375331 46.22279493 -28.38700867 47.64593506 C-29.20344491 52.53188981 -29.20344491 52.53188981 -30.3125 54.75 C-33.2825 54.75 -36.2525 54.75 -39.3125 54.75 C-40.65899893 52.05700214 -40.11158155 50.61592346 -39.59985352 47.65771484 C-39.32946007 46.06629166 -39.32946007 46.06629166 -39.05360413 44.44271851 C-38.85157883 43.29373077 -38.64955353 42.14474304 -38.44140625 40.9609375 C-38.2402269 39.78737701 -38.03904755 38.61381653 -37.83177185 37.4046936 C-37.18559611 33.64371846 -36.53039891 29.88437775 -35.875 26.125 C-35.43625545 23.58083145 -34.99809669 21.0365618 -34.56054688 18.4921875 C-33.48466802 12.24360119 -32.40137143 5.99633458 -31.3125 -0.25 C-28.3425 -0.25 -25.3725 -0.25 -22.3125 -0.25 C-21.9825 1.07 -21.6525 2.39 -21.3125 3.75 C-19.9203125 2.7909375 -19.9203125 2.7909375 -18.5 1.8125 C-12.6049731 -2.00192917 -6.55310954 -2.47287152 0 0 Z "
        fill="#424042" transform="translate(1374.3125,169.25)" />
    <path
        d="M0 0 C4.32206486 3.54901261 7.84880353 8.48186815 9 14 C10.02791782 25.01521807 8.72081759 33.83739586 3 43.3125 C-3.49966401 50.12922079 -12.80587096 52.85822785 -21.94921875 53.17578125 C-29.68944122 52.72980172 -36.33250822 49.79156117 -41.6875 44.1875 C-47.03556758 36.81583929 -46.71662522 28.78761677 -46 20 C-44.47859899 12.97216464 -41.65656137 6.61171882 -36 2 C-24.52931095 -5.07021604 -12.15563653 -6.49829626 0 0 Z M-27.1875 15.0625 C-30.32087743 20.14073239 -31.4640798 25.49396908 -30.375 31.375 C-28.83503977 34.31492407 -27.69050139 36.03666115 -25 38 C-21.1067205 39.08146653 -18.75171604 39.22551481 -14.875 38.0625 C-9.95876909 34.5356387 -7.61968139 30.20761495 -6 24.4375 C-6 19.08502709 -8.08216809 15.37674786 -11 11 C-17.87726554 8.8652103 -22.05734564 10.22549732 -27.1875 15.0625 Z "
        fill="#424042" transform="translate(1448,56)" />
    <path
        d="M0 0 C4.03569065 3.55549455 6.63826284 7.98101899 7.28100586 13.34521484 C7.26991564 20.88803966 6.21963031 28.17923984 4.91870117 35.59228516 C4.55725177 37.65494982 4.21028904 39.7196916 3.86523438 41.78515625 C2.14340817 51.85659183 2.14340817 51.85659183 1 53 C-1.69654854 53.07319621 -4.36691458 53.09242537 -7.0625 53.0625 C-8.20041992 53.05573242 -8.20041992 53.05573242 -9.36132812 53.04882812 C-11.24091871 53.0370068 -13.12046899 53.01907078 -15 53 C-14.88406494 52.33057373 -14.76812988 51.66114746 -14.64868164 50.97143555 C-14.11549045 47.87754106 -13.58896741 44.78254544 -13.0625 41.6875 C-12.88009766 40.63498047 -12.69769531 39.58246094 -12.50976562 38.49804688 C-11.6389973 33.35259771 -10.83717588 28.20521054 -10.24609375 23.01953125 C-10.09998657 21.74686401 -10.09998657 21.74686401 -9.95092773 20.44848633 C-10.00921702 17.54011194 -10.6890831 15.58506864 -12 13 C-14.82001327 11.58999336 -16.87007255 11.75451549 -20 12 C-22.84496772 13.0160599 -24.41207395 14.04522401 -26.01025391 16.640625 C-29.39914307 23.81911079 -30.53106109 31.27483475 -31.75 39.0625 C-31.97153654 40.41880316 -32.19418489 41.7749252 -32.41796875 43.13085938 C-32.95620939 46.41880762 -33.47961096 49.70917915 -34 53 C-39.28 53 -44.56 53 -50 53 C-49.63666568 42.58441624 -47.91955201 32.77849171 -45.87719727 22.5769043 C-44.45923449 15.47985856 -43.23887599 8.43161687 -42.359375 1.24609375 C-42 -1 -42 -1 -41 -2 C-38.64686445 -2.07271741 -36.29166332 -2.08370868 -33.9375 -2.0625 C-32.64714844 -2.05347656 -31.35679688 -2.04445312 -30.02734375 -2.03515625 C-29.02832031 -2.02355469 -28.02929688 -2.01195312 -27 -2 C-26.67 -1.01 -26.34 -0.02 -26 1 C-25.0925 0.525625 -24.185 0.05125 -23.25 -0.4375 C-15.61807701 -4.10669374 -7.45545791 -4.2785069 0 0 Z "
        fill="#424042" transform="translate(1984,55)" />
    <path
        d="M0 0 C3.96 0 7.92 0 12 0 C14.07870463 8.82563168 15.97759826 17.66085682 17.69921875 26.5625 C17.9391304 27.79742187 18.17904205 29.03234375 18.42622375 30.3046875 C18.9273893 32.88924715 19.42730978 35.47404852 19.92602539 38.05908203 C20.563429 41.36276587 21.20732043 44.6651501 21.85277081 47.9672699 C22.47244095 51.14403678 23.08542013 54.32209429 23.69921875 57.5 C23.93041916 58.68021729 24.16161957 59.86043457 24.39982605 61.07641602 C24.61037125 62.17526123 24.82091644 63.27410645 25.0378418 64.40625 C25.224207 65.36853516 25.4105722 66.33082031 25.60258484 67.32226562 C26 70 26 70 26 75 C22.37 75 18.74 75 15 75 C14.01 69.06 13.02 63.12 12 57 C-2.85 56.505 -2.85 56.505 -18 56 C-18.66 57.98 -19.32 59.96 -20 62 C-21.16492415 64.31403485 -22.3747085 66.60595246 -23.625 68.875 C-24.25664063 70.02742188 -24.88828125 71.17984375 -25.5390625 72.3671875 C-26.02117187 73.23601562 -26.50328125 74.10484375 -27 75 C-30.96 75 -34.92 75 -39 75 C-37.91529507 70.98659177 -36.27531916 67.55575911 -34.265625 63.9453125 C-31.21076634 58.40454773 -28.2813972 52.80715866 -25.375 47.1875 C-19.83151584 36.51329781 -14.1028277 25.9479858 -8.31591797 15.40429688 C-5.51428294 10.28546538 -2.75905456 5.1418744 0 0 Z M4 15 C-1.56861224 24.89461427 -7.02606761 34.79034931 -12 45 C-4.74 45 2.52 45 10 45 C9.319375 40.0809375 9.319375 40.0809375 8.625 35.0625 C8.48658691 34.04808838 8.34817383 33.03367676 8.20556641 31.98852539 C7.39759707 26.24637091 6.33143671 20.64413387 5 15 C4.67 15 4.34 15 4 15 Z "
        fill="#454345" transform="translate(1247,33)" />
    <path
        d="M0 0 C5.19578892 3.24871274 9.14848837 8.32545877 10.88671875 14.1796875 C12.07948484 24.82344965 11.80333667 34.57261015 5.2734375 43.34765625 C-0.5368538 50.42049421 -5.89357278 53.72411937 -15.0078125 54.9921875 C-21.14241342 55.3625785 -26.13328043 54.52608806 -31.23828125 51.0546875 C-32.16640625 50.1265625 -32.16640625 50.1265625 -33.11328125 49.1796875 C-34.58690556 54.81790224 -35.76272858 60.43587229 -36.73828125 66.1796875 C-36.87234375 66.95441406 -37.00640625 67.72914063 -37.14453125 68.52734375 C-37.47010174 70.41100157 -37.79207551 72.29528048 -38.11328125 74.1796875 C-41.41328125 74.1796875 -44.71328125 74.1796875 -48.11328125 74.1796875 C-47.49068311 66.32774063 -46.46410834 58.65640891 -45.1171875 50.8984375 C-44.92358139 49.76369995 -44.72997528 48.6289624 -44.53050232 47.45983887 C-43.91624043 43.86576026 -43.29604696 40.27273426 -42.67578125 36.6796875 C-42.26329415 34.26959587 -41.85118157 31.8594401 -41.43945312 29.44921875 C-39.71063087 19.35055262 -37.96415307 9.25680339 -36.11328125 -0.8203125 C-33.14328125 -0.8203125 -30.17328125 -0.8203125 -27.11328125 -0.8203125 C-26.78328125 0.4996875 -26.45328125 1.8196875 -26.11328125 3.1796875 C-25.02015625 2.5403125 -23.92703125 1.9009375 -22.80078125 1.2421875 C-15.76558506 -2.87273857 -7.54085271 -3.21212793 0 0 Z M-23.80078125 11.8671875 C-28.51997082 16.58637707 -30.74881742 22.24626105 -31.20703125 28.87890625 C-30.98423371 34.34672925 -29.43680699 39.33765647 -25.48828125 43.2421875 C-21.12582647 45.74655969 -18.02499546 46.08131336 -13.11328125 45.1796875 C-7.02188941 42.70183319 -3.41490928 38.85228331 -0.11328125 33.1796875 C0.9600801 30.03673121 1.05127879 27.05012946 1.07421875 23.7421875 C1.08839844 22.81535156 1.10257813 21.88851562 1.1171875 20.93359375 C0.72684159 16.26929093 -0.53319093 13.77326829 -3.80078125 10.4296875 C-10.78258485 5.07471192 -16.95776055 7.57040706 -23.80078125 11.8671875 Z "
        fill="#424042" transform="translate(1465.11328125,169.8203125)" />
    <path
        d="M0 0 C4.70645144 3.64370434 8.03377369 8.17777645 10.06640625 13.78125 C10.43734335 16.91994854 10.31837156 19.60648703 10.06640625 22.78125 C6.76640625 22.78125 3.46640625 22.78125 0.06640625 22.78125 C-0.32546875 21.585 -0.71734375 20.38875 -1.12109375 19.15625 C-3.21971042 13.65104162 -5.54125886 9.86014612 -11.12109375 7.34375 C-18.39148042 6.27107 -25.55838651 6.93206827 -31.93359375 10.78125 C-39.47654757 18.34018466 -43.94871043 28.38698554 -44.18359375 39.09375 C-44.10814538 45.57153115 -41.76803192 51.56641409 -37.93359375 56.78125 C-35.8665872 58.10918606 -35.8665872 58.10918606 -33.93359375 58.78125 C-33.93359375 59.44125 -33.93359375 60.10125 -33.93359375 60.78125 C-27.35176013 61.6744007 -21.51208867 61.73619281 -14.93359375 60.78125 C-14.93359375 60.12125 -14.93359375 59.46125 -14.93359375 58.78125 C-13.86109375 58.08 -12.78859375 57.37875 -11.68359375 56.65625 C-7.37036328 53.74285092 -5.93944616 50.5150617 -3.93359375 45.78125 C-0.30359375 45.78125 3.32640625 45.78125 7.06640625 45.78125 C5.49706337 53.62796442 2.04074898 59.41966037 -3.93359375 64.78125 C-4.53171875 65.4825 -5.12984375 66.18375 -5.74609375 66.90625 C-11.61816795 71.93945646 -19.449624 72.78125 -26.93359375 72.78125 C-34.984503 71.9501884 -42.08362162 69.06600783 -47.68359375 63.15625 C-55.72467212 53.05430028 -56.15576332 42.24363556 -54.93359375 29.78125 C-52.99328234 18.71343815 -47.68293857 9.07042505 -38.82421875 2.02734375 C-27.51862748 -5.42406868 -11.80780342 -7.44249428 0 0 Z "
        fill="#424042" transform="translate(1266.93359375,152.21875)" />
    <path
        d="M0 0 C1 1 1 1 1.09765625 4.37890625 C1.09098369 5.77347077 1.07902532 7.16801743 1.0625 8.5625 C1.05798828 9.27341797 1.05347656 9.98433594 1.04882812 10.71679688 C1.03700864 12.47790013 1.01907263 14.23896036 1 16 C-4.37670514 16.44071354 -4.37670514 16.44071354 -7 16 C-8.04892238 14.36368108 -9.04906703 12.69514137 -10 11 C-14.60031124 9.78482345 -18.3813711 9.98615463 -23 11 C-23 12.32 -23 13.64 -23 15 C-22.01 15.25394531 -21.02 15.50789063 -20 15.76953125 C-1.40371972 20.59628028 -1.40371972 20.59628028 1 23 C1.08737645 24.85369611 1.10698153 26.71067541 1.09765625 28.56640625 C1.09443359 29.69111328 1.09121094 30.81582031 1.08789062 31.97460938 C1.07532227 33.75061523 1.07532227 33.75061523 1.0625 35.5625 C1.05798828 36.75037109 1.05347656 37.93824219 1.04882812 39.16210938 C1.03699675 42.10812226 1.02051287 45.05403681 1 48 C-0.24402851 48.64333234 -1.49064147 49.28166818 -2.73828125 49.91796875 C-3.43219971 50.2739917 -4.12611816 50.63001465 -4.84106445 50.99682617 C-13.36092707 54.95567673 -23.03633099 54.92660084 -31.9140625 52.05859375 C-35.94993556 50.25495136 -39.16479509 48.43352629 -41.625 44.6875 C-43.23656466 40.36557658 -43.3201503 37.5621418 -43 33 C-38.38 33 -33.76 33 -29 33 C-28.01 34.98 -27.02 36.96 -26 39 C-23.53630468 40.23184766 -21.8105499 40.16732342 -19.0625 40.1875 C-18.18722656 40.20167969 -17.31195312 40.21585938 -16.41015625 40.23046875 C-13.73755665 40.16663349 -13.73755665 40.16663349 -11 38 C-10.27617533 35.94074861 -10.27617533 35.94074861 -10 34 C-10.64324219 33.91363281 -11.28648437 33.82726562 -11.94921875 33.73828125 C-20.39556478 32.42494071 -30.97401124 30.58779635 -37.3125 24.375 C-39.76023036 19.47953928 -39.92049416 15.36320977 -39 10 C-37.54149818 5.80593496 -35.61867247 2.99078884 -31.8046875 0.65625 C-21.53099198 -4.09067202 -10.44375932 -4.78775665 0 0 Z "
        fill="#424042" transform="translate(2072,55)" />
    <path
        d="M0 0 C4.02750645 3.23951606 6.05564823 5.90050042 7 11 C6.98190887 21.16721331 5.21627735 33.35116794 2 43 C3.65 43 5.3 43 7 43 C8.27351308 45.54702616 7.80191925 46.4282945 7.0625 49.125 C6.86785156 49.84945312 6.67320313 50.57390625 6.47265625 51.3203125 C6.23869141 52.15175781 6.23869141 52.15175781 6 53 C-2.03501094 53.63019694 -2.03501094 53.63019694 -6.0625 51 C-6.701875 50.34 -7.34125 49.68 -8 49 C-9.134375 49.639375 -10.26875 50.27875 -11.4375 50.9375 C-19.17915235 54.76070617 -26.83741977 54.64461881 -35 52 C-39.29464731 49.44148671 -41.28846012 46.68421442 -43 42 C-43.71557611 35.66204014 -42.60518659 31.28447546 -39 26 C-34.047237 21.047237 -29.01530345 19.88559493 -22.1640625 19.8046875 C-19.98428903 19.81789825 -17.80455801 19.84162632 -15.625 19.875 C-13.94857422 19.88853516 -13.94857422 19.88853516 -12.23828125 19.90234375 C-9.49196538 19.92581654 -6.74609528 19.95865272 -4 20 C-3.79286158 14.8800389 -3.79286158 14.8800389 -5.4375 10.125 C-9.08327783 7.10167205 -12.33292022 6.72403354 -17 7 C-20.87322163 8.31543376 -22.51240615 9.25119516 -24.75 12.6875 C-27 15 -27 15 -29.46875 15.3203125 C-31.99706465 15.31321049 -34.4814791 15.21628519 -37 15 C-36.05281059 8.36967411 -32.96582393 4.41865731 -27.875 0.29296875 C-20.15696835 -5.02925724 -8.01156408 -4.55202504 0 0 Z M-32 33 C-32.63065235 38.14057203 -32.63065235 38.14057203 -30.84375 42.7265625 C-26.8962881 45.45298745 -21.56700278 44.54441093 -17 44 C-12.57311963 41.86561125 -9.61470204 39.1641551 -7 35 C-6.61612288 32.67444761 -6.2771487 30.34067173 -6 28 C-8.6881249 27.91835841 -11.373723 27.85920332 -14.0625 27.8125 C-14.81466797 27.78736328 -15.56683594 27.76222656 -16.34179688 27.73632812 C-22.43508347 27.65719453 -27.50822973 28.50822973 -32 33 Z "
        fill="#434043" transform="translate(1522,171)" />
    <path
        d="M0 0 C5.28 0 10.56 0 16 0 C15.125 10.5 15.125 10.5 14 15 C17.96 15 21.92 15 26 15 C24.125 26.75 24.125 26.75 23 29 C20.49609375 29.4140625 20.49609375 29.4140625 17.4375 29.625 C16.42558594 29.69976562 15.41367188 29.77453125 14.37109375 29.8515625 C13.58863281 29.90054688 12.80617188 29.94953125 12 30 C11.30339326 33.97762895 10.61924168 37.95729857 9.9375 41.9375 C9.73833984 43.07380859 9.53917969 44.21011719 9.33398438 45.38085938 C9.15029297 46.46044922 8.96660156 47.54003906 8.77734375 48.65234375 C8.60452881 49.65257568 8.43171387 50.65280762 8.25366211 51.68334961 C8.16995361 52.44784424 8.08624512 53.21233887 8 54 C10.16090886 56.16090886 15.2005847 55.72400131 18 56 C17.67 60.62 17.34 65.24 17 70 C14.29105233 70.08144943 11.58458737 70.14070614 8.875 70.1875 C8.11445312 70.21263672 7.35390625 70.23777344 6.5703125 70.26367188 C1.60946383 70.32782078 -1.68639296 69.72230688 -6 67 C-9.43949104 63.21655986 -9.21997797 59.72970718 -9.16455078 54.88598633 C-8.87508115 49.80910128 -7.93973349 44.86574675 -7 39.875 C-6.80921875 38.823125 -6.6184375 37.77125 -6.421875 36.6875 C-5.95568717 34.12346691 -5.48162053 31.56117085 -5 29 C-7.64 29 -10.28 29 -13 29 C-12.34 24.38 -11.68 19.76 -11 15 C-8.03 15 -5.06 15 -2 15 C-1.93941406 14.33613281 -1.87882812 13.67226563 -1.81640625 12.98828125 C-1.73261719 12.10527344 -1.64882812 11.22226562 -1.5625 10.3125 C-1.48128906 9.44238281 -1.40007812 8.57226562 -1.31640625 7.67578125 C-1.01156391 5.09779359 -0.50910741 2.54553705 0 0 Z "
        fill="#424042" transform="translate(2007,38)" />
    <path
        d="M0 0 C5.56386611 4.45109289 8.55451131 9.37834199 9.421875 16.4296875 C9.79061546 26.44713677 8.22220449 34.67291957 1.91015625 42.63671875 C-4.37063935 49.30402485 -10.38143682 52.34633514 -19.51953125 52.99609375 C-26.53052792 53.00713469 -32.64454776 50.52238189 -38 46 C-43.08207826 39.56470563 -44.92960065 32.01780562 -44 24 C-41.87951245 13.37346582 -39.10918252 6.27694975 -30.0625 0.1875 C-20.2062038 -5.47660972 -9.76645951 -5.91025823 0 0 Z M-27.765625 10.76953125 C-32.51018773 16.60810723 -34.36450823 22.13175858 -33.875 29.625 C-33.13117573 34.70050682 -31.0102355 38.21596934 -27.16015625 41.6328125 C-23.30895991 44.07027854 -19.39062903 43.68665477 -15 43 C-8.59889901 40.60374729 -4.82708165 36.10309902 -2 30 C-0.20678134 24.32337788 -0.25289312 18.24132064 -2.125 12.625 C-5.19855116 8.32202838 -8.70684515 6.02550813 -13.875 5 C-19.55434923 4.57730034 -23.80543728 6.80058206 -27.765625 10.76953125 Z "
        fill="#413F41" transform="translate(1323,172)" />
    <path
        d="M0 0 C3.3 0 6.6 0 10 0 C10.20681396 1.145896 10.41362793 2.29179199 10.62670898 3.47241211 C11.39243308 7.70914093 12.16331618 11.9449172 12.93579102 16.18041992 C13.26989103 18.01642552 13.60257669 19.85268907 13.93383789 21.68920898 C14.40923587 24.32343965 14.88965273 26.95671174 15.37109375 29.58984375 C15.51904892 30.41588608 15.66700409 31.24192841 15.81944275 32.09300232 C16.22172401 35.85849283 16.22172401 35.85849283 18 39 C18.38929687 38.20980469 18.77859375 37.41960937 19.1796875 36.60546875 C22.77192062 29.36306326 26.44150507 22.16416311 30.1875 15 C30.60306152 14.19973389 31.01862305 13.39946777 31.44677734 12.57495117 C32.60584441 10.3682747 33.79297442 8.18075177 35 6 C35.49765869 5.06873291 35.49765869 5.06873291 36.00537109 4.11865234 C36.97265625 2.4609375 36.97265625 2.4609375 39 0 C41.578125 -0.5859375 41.578125 -0.5859375 44.25 -0.375 C45.58804687 -0.29378906 45.58804687 -0.29378906 46.953125 -0.2109375 C47.62859375 -0.14132813 48.3040625 -0.07171875 49 0 C48.39248161 4.15590228 46.98664116 7.25349797 44.98046875 10.9296875 C44.37009766 12.05503906 43.75972656 13.18039063 43.13085938 14.33984375 C42.48316163 15.51827793 41.83537453 16.696663 41.1875 17.875 C40.55779297 19.03386719 39.92808594 20.19273437 39.27929688 21.38671875 C36.87314192 25.80515649 34.4664113 30.2217494 31.94921875 34.578125 C30.24499391 37.56991049 28.60218964 40.58231956 26.9765625 43.6171875 C26.43 44.63683594 25.8834375 45.65648437 25.3203125 46.70703125 C24.19509245 48.809689 23.07266942 50.91384607 21.953125 53.01953125 C11.85262164 71.82164197 11.85262164 71.82164197 6 75 C3.03711722 75.44067501 0.17400941 75.38017476 -2.8125 75.25 C-3.60076172 75.23195313 -4.38902344 75.21390625 -5.20117188 75.1953125 C-7.13464261 75.14844048 -9.06748285 75.0767041 -11 75 C-10.34 72.03 -9.68 69.06 -9 66 C-7.89591797 65.99613281 -7.89591797 65.99613281 -6.76953125 65.9921875 C-1.21802771 65.90057993 -1.21802771 65.90057993 3.7734375 63.80859375 C6.89597505 60.18455775 9.17730523 55.78145798 8.86752319 50.92178345 C8.48132912 48.46479066 7.99980836 46.04561769 7.48046875 43.61328125 C7.30244217 42.71562546 7.12441559 41.81796967 6.94099426 40.89311218 C6.37084747 38.02979767 5.7803582 35.17119041 5.1875 32.3125 C4.42310363 28.56015394 3.66755206 24.80611323 2.91796875 21.05078125 C2.73910126 20.15932404 2.56023376 19.26786682 2.37594604 18.34939575 C1.17456593 12.2370669 0.35598887 6.22688721 0 0 Z "
        fill="#424042" transform="translate(1590,169)" />
    <path
        d="M0 0 C3.69315061 3.69315061 5.75076955 7.55689706 6.28320312 12.77612305 C6.27751495 21.6532239 5.071135 30.11220813 3.5 38.8125 C3.25811395 40.19839344 3.01722321 41.58446097 2.77734375 42.97070312 C2.19460273 46.3156366 1.60201588 49.65849164 1 53 C-2.3 53 -5.6 53 -9 53 C-9.29384783 45.27731184 -7.88509975 38.13451867 -6.421875 30.57617188 C-5.31439263 24.60763298 -4.59903554 19.07431227 -5 13 C-7.2156881 9.96134203 -8.87857447 8.48494077 -12.3125 7 C-17.00537757 7 -21.06669137 8.30380071 -24.63232422 11.43212891 C-28.57519739 15.86510601 -30.16896465 19.57438699 -31.1875 25.375 C-31.4182019 26.53116821 -31.4182019 26.53116821 -31.65356445 27.71069336 C-32.12951518 30.13629208 -32.57001827 32.56585793 -33 35 C-33.14566406 35.81645996 -33.29132813 36.63291992 -33.44140625 37.47412109 C-34.26690198 42.12377336 -34.26690198 42.12377336 -35.04956055 46.78076172 C-35.8969389 51.8969389 -35.8969389 51.8969389 -37 53 C-38.51928038 53.07179964 -40.04167482 53.08392007 -41.5625 53.0625 C-42.38878906 53.05347656 -43.21507812 53.04445312 -44.06640625 53.03515625 C-44.70449219 53.02355469 -45.34257813 53.01195312 -46 53 C-47.15479948 49.5427331 -46.84165857 47.06205254 -46.14453125 43.51171875 C-45.93602539 42.42294434 -45.72751953 41.33416992 -45.51269531 40.21240234 C-45.28163086 39.04918457 -45.05056641 37.8859668 -44.8125 36.6875 C-44.34377251 34.25675681 -43.87634899 31.82576185 -43.41015625 29.39453125 C-43.17312988 28.16557129 -42.93610352 26.93661133 -42.69189453 25.67041016 C-41.45255183 19.09585893 -40.34965159 12.49756091 -39.25708008 5.8972168 C-39.1052124 5.00043213 -38.95334473 4.10364746 -38.796875 3.1796875 C-38.66635742 2.39319824 -38.53583984 1.60670898 -38.40136719 0.79638672 C-38 -1 -38 -1 -37 -2 C-34.32941149 -2.14115161 -31.67567762 -2.04247107 -29 -2 C-28.67 -0.68 -28.34 0.64 -28 2 C-27.484375 1.54625 -26.96875 1.0925 -26.4375 0.625 C-18.64929663 -4.56713558 -8.07071844 -4.59353816 0 0 Z "
        fill="#414041" transform="translate(1579,171)" />
    <path
        d="M0 0 C5.28 0 10.56 0 16 0 C15.41370557 8.05257457 14.49726813 15.92102322 13.125 23.875 C12.94646484 24.92945312 12.76792969 25.98390625 12.58398438 27.0703125 C11.48477937 33.46855238 10.2241606 39.80493976 8.7890625 46.13671875 C7.43803523 52.75140179 6.40983786 59.42384806 5.35742188 66.09179688 C5.19564453 67.09919922 5.03386719 68.10660156 4.8671875 69.14453125 C4.72394043 70.05565674 4.58069336 70.96678223 4.43310547 71.90551758 C4 74 4 74 3 75 C0.46950598 75.07313567 -2.03304837 75.09247527 -4.5625 75.0625 C-5.27341797 75.05798828 -5.98433594 75.05347656 -6.71679688 75.04882812 C-8.47790013 75.03700864 -10.23896036 75.01907263 -12 75 C-11.40083321 67.07336245 -10.3330457 59.29967413 -9.00390625 51.46484375 C-8.81030014 50.30553848 -8.61669403 49.14623322 -8.41722107 47.95179749 C-8.00979782 45.51694172 -7.60043247 43.08241019 -7.18920898 40.64819336 C-6.5638041 36.94522149 -5.94447343 33.24127327 -5.32617188 29.53710938 C-4.92743824 27.15879464 -4.52836124 24.78053744 -4.12890625 22.40234375 C-3.94550186 21.30728012 -3.76209747 20.21221649 -3.57313538 19.08396912 C-2.49236241 12.69705738 -1.30211815 6.34557998 0 0 Z "
        fill="#424042" transform="translate(1586,33)" />
    <path
        d="M0 0 C5.28 0 10.56 0 16 0 C15.28055249 8.48303776 13.93765426 16.80888634 12.49609375 25.1953125 C12.25060418 26.63828584 12.00541589 28.08131047 11.76051331 29.52438354 C11.12071968 33.2894962 10.47688412 37.05390635 9.83215332 40.81817627 C9.17272975 44.67263247 8.51720164 48.52775094 7.86132812 52.3828125 C6.57799218 59.92252291 5.2900177 67.46142938 4 75 C-1.28 75 -6.56 75 -12 75 C-11.41533343 66.83558971 -10.43870838 58.89480147 -9.00390625 50.83984375 C-8.81030014 49.72871719 -8.61669403 48.61759064 -8.41722107 47.47279358 C-7.80392876 43.96014137 -7.183313 40.44882993 -6.5625 36.9375 C-6.1499131 34.58016165 -5.7377999 32.22274035 -5.32617188 29.86523438 C-3.58360246 19.90403814 -1.81631238 9.94803137 0 0 Z "
        fill="#424042" transform="translate(1388,33)" />
</svg>