<svg width="169" height="50" viewBox="0 0 169 50" fill="none" xmlns="http://www.w3.org/2000/svg" id="logo">
<g id="ezidebit_logo_charcoal_stacked 1">
<g id="Group">
<g id="Group_2">
<path id="Vector" d="M18.4342 31.7564C9.16074 31.937 10.005 29.6723 12.7431 27.5452C14.1687 27.6037 15.809 27.5986 17.7085 27.5074C17.7492 27.5056 17.7881 27.5022 17.827 27.5005C18.138 28.9065 18.6064 30.3314 19.2414 31.7254C18.973 31.7357 18.7008 31.7512 18.4342 31.7564ZM34.1708 8.55301C47.3803 4.98551 54.4636 15.2199 54.6617 15.5073C48.0968 17.6585 34.0746 21.904 21.9074 23.267C22.1981 17.2059 25.886 10.7902 34.1708 8.55301ZM26.5821 34.8196C47.0971 31.5963 60.7453 20.6013 60.7453 20.6013C60.7453 20.6013 40.3729 29.3694 23.7699 31.3605C23.0349 30.118 22.5054 28.6931 22.1962 27.1683C44.3978 24.8812 58.42 14.2321 58.42 14.2321C58.42 14.2321 57.5276 14.5539 55.9744 15.0736L58.42 14.2321C56.8612 11.7866 50.0889 4.01318 38.1494 4.01318C26.21 4.01318 17.1512 14.7604 17.3475 23.6404C0.181621 24.4458 17.7085 15.9048 17.7085 15.9048C17.7085 15.9048 12.6672 17.9011 9.54768 19.6031C4.64526 22.2775 2.01818 26.4163 10.4771 27.3766C10.3197 27.4506 10.1623 27.5229 10.0216 27.5934C3.36227 30.8425 1.12582 36.4614 18.7934 35.6233C19.6839 35.5803 20.5614 35.5166 21.4316 35.4426C24.8196 40.0117 30.4551 43.5241 38.8714 43.5241C54.0675 43.5241 58.6274 33.2811 59.7271 31.0043C56.2076 34.3636 48.8207 39.8241 40.1378 39.8241C33.6728 39.8275 29.7609 37.9896 26.5821 34.8196Z" fill="#5CB848"/>
<path id="Vector_2" d="M76.6876 25.1374C76.3395 22.6369 74.1234 20.3997 71.1168 20.3997C68.1417 20.3997 65.672 22.5767 65.4183 25.1374H76.6876ZM65.4183 26.3731C65.3239 29.8166 67.888 32.1106 71.276 32.1106C73.5532 32.1106 75.3916 30.8458 76.434 29.0216L77.6373 29.6686C76.3081 32.0229 73.9661 33.3463 71.0835 33.3463C66.7476 33.3463 63.9946 30.0799 63.9946 26.2251C63.9946 22.4304 66.8124 19.1641 71.0835 19.1641C75.5157 19.1641 78.1446 22.4597 78.1113 26.3731H65.4183Z" fill="#444144"/>
<path id="Vector_3" d="M92.5148 31.8165V33.0539H77.6372L89.6026 20.6941H79.5663V19.4585H92.5777L80.6438 31.8165H92.5148Z" fill="#444144"/>
<path id="Vector_4" d="M95.553 33.0538H94.1293V19.4601H95.553V33.0538ZM95.8973 15.1664C95.8973 15.7085 95.4401 16.1336 94.8569 16.1336C94.2737 16.1336 93.8164 15.7102 93.8164 15.1664C93.8164 14.6467 94.2718 14.1992 94.8569 14.1992C95.4401 14.1975 95.8973 14.6467 95.8973 15.1664Z" fill="#444144"/>
<path id="Vector_5" d="M147.319 14.1909C146.467 14.1909 145.775 14.8345 145.775 15.6262C145.775 16.4316 146.454 17.0614 147.319 17.0614C148.185 17.0614 148.863 16.4316 148.863 15.6262C148.863 14.8345 148.169 14.1909 147.319 14.1909Z" fill="#444144"/>
<path id="Vector_6" d="M148.519 19.4502H146.088V33.98H148.519V19.4502Z" fill="#444144"/>
<path id="Vector_7" d="M126.224 25.1291H116.144C116.636 22.99 118.819 21.3259 121.259 21.3259C123.918 21.3276 125.715 23.2 126.224 25.1291ZM121.226 19.1558C116.897 19.1558 113.631 22.3928 113.631 26.6848C113.631 31.0818 116.825 34.2724 121.226 34.2724C124.264 34.2724 126.815 32.8406 128.224 30.3453L128.448 29.9477L126.376 28.8326L126.13 29.2594C125.095 31.0663 123.377 32.1006 121.416 32.1006C119.889 32.1006 118.513 31.5912 117.543 30.6654C116.632 29.798 116.127 28.6415 116.066 27.2975H128.751L128.755 26.8346C128.774 24.5509 127.95 22.5099 126.434 21.0901C125.082 19.8252 123.281 19.1558 121.226 19.1558Z" fill="#444144"/>
<path id="Vector_8" d="M142.47 26.6264C142.47 29.3472 140.663 32.1024 137.212 32.1024C133.6 32.1024 131.954 29.2784 131.954 26.6557C131.954 23.4685 134.095 21.326 137.277 21.326C140.484 21.3277 142.47 24.0777 142.47 26.6264ZM137.242 19.1559C135.23 19.1559 133.371 19.8494 132.045 21.0541V11.4409H129.616V26.21C129.616 27.6814 129.803 29.4419 131.192 31.3349C132.564 33.2038 134.746 34.2743 137.179 34.2743C141.652 34.2743 144.899 31.0596 144.899 26.6282C144.899 22.2277 141.75 19.1559 137.242 19.1559Z" fill="#444144"/>
<path id="Vector_9" d="M110.334 26.6574C110.334 29.2801 108.688 32.1042 105.076 32.1042C101.625 32.1042 99.8185 29.3489 99.8185 26.6281C99.8185 24.0794 101.805 21.3294 105.015 21.3294C108.196 21.3277 110.334 23.4702 110.334 26.6574ZM110.24 21.054C108.918 19.8494 107.057 19.1558 105.045 19.1558C100.537 19.1558 97.3877 22.2277 97.3877 26.6264C97.3877 31.0578 100.633 34.2743 105.106 34.2743C107.539 34.2743 109.72 33.2021 111.093 31.3332C112.482 29.4419 112.669 27.6814 112.669 26.21V11.5132H110.238V21.054H110.24Z" fill="#444144"/>
<path id="Vector_10" d="M158.658 31.586L158.083 31.7908C157.764 31.9112 157.103 32.1608 156.157 32.1608C155.415 32.1608 154.917 32.0317 154.628 31.7633C154.154 31.3227 154.156 30.4244 154.16 29.2851V20.9128H159.129V18.9492H154.16V14.9463H151.751V18.9492H149.228V20.9128H151.751L151.753 29.101C151.771 29.3471 151.782 29.5983 151.794 29.8513C151.849 31.0714 151.905 32.3363 152.795 33.1641C153.565 33.88 154.593 34.2121 156.031 34.2121C157.607 34.2121 158.505 33.8043 158.89 33.6287L159.432 33.4016L158.658 31.586Z" fill="#444144"/>
<path id="Vector_11" d="M162.322 33.2915H162.131V33.9162C162.413 33.9162 162.894 33.9523 162.894 33.5806C162.894 33.2915 162.554 33.2915 162.322 33.2915ZM163.083 35.1845L162.783 34.6063C162.613 34.2793 162.581 34.2707 162.241 34.2707H162.13V35.1845H161.707V32.9369H162.298C162.62 32.9369 162.881 32.9473 163.092 33.1245C163.233 33.245 163.303 33.4136 163.303 33.5995C163.303 33.8404 163.163 34.0934 162.813 34.1313C162.994 34.1313 163.094 34.3171 163.144 34.4204L163.524 35.1862H163.083V35.1845ZM162.483 32.462C161.5 32.462 160.728 33.171 160.728 34.0848C160.728 34.9986 161.5 35.699 162.483 35.699C163.466 35.699 164.238 35.0003 164.238 34.0848C164.238 33.1693 163.464 32.462 162.483 32.462ZM162.483 36.1258C161.259 36.1258 160.276 35.2223 160.276 34.0831C160.276 32.9456 161.259 32.0317 162.483 32.0317C163.707 32.0317 164.69 32.9456 164.69 34.0831C164.69 35.2223 163.707 36.1258 162.483 36.1258Z" fill="#444144"/>
</g>
</g>
<g id="Group_3">
<g id="Group_4">
<path id="Vector_12" d="M69.2596 44.4141H68.6042L68.3247 43.0373H66.0123L65.2366 44.4141H64.522L67.4453 39.3149H68.2136L69.2596 44.4141ZM67.7248 40.0171L66.3382 42.4643H68.2154L67.7248 40.0171Z" fill="#444144"/>
<path id="Vector_13" d="M75.8172 39.492C76.1356 39.6366 76.3874 39.85 76.5707 40.1288C76.754 40.4093 76.8465 40.7414 76.8465 41.1303H75.7616C75.7468 40.8343 75.6394 40.6055 75.4413 40.442C75.2414 40.2785 74.9878 40.1976 74.6767 40.1976C74.3194 40.1976 74.0102 40.2905 73.7492 40.4781C73.4881 40.664 73.2901 40.9152 73.1549 41.2267C73.0179 41.5399 72.9513 41.879 72.9513 42.2421C72.9513 42.6258 73.0605 42.9373 73.2789 43.1748C73.4974 43.414 73.7899 43.5328 74.1565 43.5328C74.4879 43.5328 74.786 43.445 75.0488 43.2712C75.3136 43.0957 75.4895 42.8444 75.5802 42.514L75.5876 42.4486H74.2916L74.449 41.5812H76.8076L76.2948 44.407H75.5117L75.5043 43.803C75.3136 44.006 75.097 44.1661 74.8526 44.2797C74.6082 44.3932 74.3139 44.45 73.9677 44.45C73.5363 44.45 73.1549 44.3605 72.8272 44.1816C72.4977 44.0009 72.2459 43.7479 72.0663 43.4192C71.8886 43.0905 71.7979 42.7136 71.7979 42.2868C71.7979 41.7172 71.9182 41.2043 72.1607 40.7449C72.4014 40.2854 72.742 39.9257 73.1864 39.6641C73.627 39.4025 74.1398 39.27 74.723 39.27C75.134 39.2735 75.4987 39.3457 75.8172 39.492Z" fill="#444144"/>
<path id="Vector_14" d="M77.0781 44.4141L78.0057 39.3149H79.0665L78.1242 44.4141H77.0781Z" fill="#444144"/>
<path id="Vector_15" d="M79.8737 44.2402C79.6034 44.0939 79.3923 43.8943 79.2405 43.6379C79.0906 43.3832 79.0146 43.0975 79.0146 42.7826C79.0146 42.3506 79.1091 41.972 79.2979 41.645C79.4849 41.3198 79.7515 41.0685 80.0921 40.8913C80.4328 40.714 80.8271 40.6245 81.2752 40.6245C81.6269 40.6245 81.938 40.6968 82.2083 40.8431C82.4786 40.9876 82.6896 41.189 82.8414 41.4437C82.9932 41.6984 83.0673 41.984 83.0673 42.299C83.0673 42.7309 82.9729 43.1095 82.784 43.4348C82.5952 43.7601 82.3304 44.0113 81.9879 44.1886C81.6473 44.3658 81.2529 44.4536 80.8049 44.4536C80.4569 44.4588 80.1458 44.3865 79.8737 44.2402ZM81.4862 43.4468C81.6565 43.3298 81.7861 43.1732 81.875 42.977C81.962 42.7808 82.0065 42.5657 82.0065 42.3334C82.0065 42.0804 81.9287 41.8739 81.7769 41.7104C81.6232 41.5487 81.427 41.4678 81.1863 41.4678C80.9604 41.4678 80.7623 41.5263 80.5957 41.645C80.4272 41.7655 80.2995 41.9221 80.2106 42.1183C80.1218 42.3162 80.0773 42.5279 80.0773 42.7567C80.0773 43.008 80.1551 43.2162 80.3088 43.3797C80.4606 43.5415 80.6568 43.6224 80.8919 43.6224C81.1178 43.6207 81.3159 43.5621 81.4862 43.4468Z" fill="#444144"/>
<path id="Vector_16" d="M86.8401 40.8397C87.079 40.9808 87.2641 41.1736 87.4011 41.4214C87.5363 41.6692 87.6048 41.948 87.6048 42.2595C87.6048 42.6656 87.5103 43.0373 87.3252 43.3729C87.1382 43.7085 86.8883 43.9718 86.5717 44.1663C86.2551 44.3607 85.9108 44.4588 85.5405 44.4588C85.0073 44.4588 84.6259 44.285 84.3963 43.9339L84.2075 44.4141H83.2744L84.2019 39.3149H85.2628L84.9536 41.041C85.2406 40.764 85.596 40.6263 86.0237 40.6263C86.3273 40.628 86.6013 40.6986 86.8401 40.8397ZM85.9922 43.4435C86.1625 43.3247 86.294 43.1664 86.3884 42.9702C86.481 42.774 86.5273 42.5641 86.5273 42.3403C86.5273 42.0581 86.4569 41.843 86.3162 41.6916C86.1755 41.5418 85.9848 41.4661 85.7423 41.4661C85.5201 41.4661 85.3239 41.5246 85.1517 41.6434C84.9777 41.7638 84.8462 41.9204 84.7537 42.1166C84.6592 42.3145 84.6148 42.5228 84.6148 42.7482C84.6148 43.0287 84.687 43.2456 84.8277 43.3953C84.9703 43.545 85.1647 43.6207 85.4053 43.6207C85.6256 43.6207 85.8219 43.5605 85.9922 43.4435Z" fill="#444144"/>
<path id="Vector_17" d="M91.7242 43.5481L91.5668 44.4154H91.054C90.8392 44.4154 90.6763 44.3707 90.5689 44.2812C90.4615 44.1917 90.4078 44.0747 90.4078 43.9353V43.9284C90.2468 44.1074 90.069 44.2416 89.8728 44.3294C89.6766 44.4172 89.4414 44.4602 89.1656 44.4602C88.7786 44.4602 88.4584 44.3707 88.2047 44.1917C87.9529 44.011 87.8252 43.7546 87.8252 43.419C87.8252 42.9819 87.9844 42.6549 88.301 42.4398C88.6176 42.223 89.0638 42.1146 89.6414 42.1146H90.5745L90.5985 41.9769C90.6133 41.9184 90.6208 41.8581 90.6208 41.7945C90.6208 41.662 90.5652 41.5604 90.4523 41.4881C90.3393 41.4159 90.1894 41.3797 90.0042 41.3797C89.7636 41.3797 89.5858 41.4193 89.4729 41.4967C89.36 41.5742 89.2785 41.6878 89.2285 41.8392H88.1677C88.2769 41.4313 88.4898 41.1267 88.8064 40.9288C89.123 40.7292 89.547 40.6294 90.0802 40.6294C90.556 40.6294 90.9392 40.7258 91.2243 40.922C91.5094 41.1164 91.652 41.4073 91.652 41.7962C91.652 41.8977 91.6409 42.0216 91.6149 42.1662L91.4187 43.2383C91.4039 43.302 91.3965 43.3519 91.3965 43.3915C91.3965 43.4982 91.4557 43.5515 91.5779 43.5515H91.7242V43.5481ZM90.0968 43.4758C90.2727 43.3158 90.3856 43.1093 90.4356 42.8563L90.443 42.7978H89.658C89.4026 42.7978 89.2119 42.8408 89.086 42.9251C88.9601 43.0094 88.8971 43.1402 88.8971 43.3158C88.8971 43.4414 88.9453 43.5395 89.0397 43.6101C89.1341 43.6823 89.2563 43.7167 89.4026 43.7167C89.6914 43.7167 89.9209 43.6341 90.0968 43.4758Z" fill="#444144"/>
<path id="Vector_18" d="M91.9409 44.4141L92.8685 39.3149H93.9293L92.9869 44.4141H91.9409Z" fill="#444144"/>
<path id="Vector_19" d="M98.474 39.3164C98.8406 39.3164 99.159 39.3835 99.4293 39.5143C99.6996 39.6451 99.907 39.8241 100.051 40.053C100.194 40.2801 100.266 40.5365 100.266 40.8188C100.266 41.2163 100.174 41.5553 99.9866 41.8376C99.7996 42.1181 99.5422 42.3332 99.2108 42.4812C98.8795 42.6292 98.5018 42.7032 98.0741 42.7032H97.0485L96.7337 44.4155H95.6025L96.5356 39.3164H98.474ZM97.4946 40.2268L97.2151 41.7928H98.0889C98.4037 41.7928 98.6554 41.7137 98.8424 41.5588C99.0294 41.4039 99.122 41.1853 99.122 40.9031C99.122 40.6845 99.0553 40.5176 98.922 40.4006C98.7887 40.2836 98.6017 40.2251 98.3611 40.2251H97.4946V40.2268Z" fill="#444144"/>
<path id="Vector_20" d="M103.853 43.5481L103.695 44.4154H103.182C102.968 44.4154 102.805 44.3707 102.697 44.2812C102.59 44.1917 102.536 44.0747 102.536 43.9353V43.9284C102.375 44.1074 102.197 44.2416 102.001 44.3294C101.805 44.4172 101.57 44.4602 101.294 44.4602C100.907 44.4602 100.587 44.3707 100.333 44.1917C100.081 44.011 99.9536 43.7546 99.9536 43.419C99.9536 42.9819 100.113 42.6549 100.429 42.4398C100.746 42.223 101.192 42.1146 101.77 42.1146H102.703L102.727 41.9769C102.742 41.9184 102.749 41.8581 102.749 41.7945C102.749 41.662 102.694 41.5604 102.581 41.4881C102.468 41.4159 102.318 41.3797 102.133 41.3797C101.892 41.3797 101.714 41.4193 101.601 41.4967C101.488 41.5742 101.407 41.6878 101.357 41.8392H100.296C100.405 41.4313 100.618 41.1267 100.935 40.9288C101.251 40.7292 101.675 40.6294 102.209 40.6294C102.684 40.6294 103.068 40.7258 103.353 40.922C103.638 41.1164 103.78 41.4073 103.78 41.7962C103.78 41.8977 103.769 42.0216 103.743 42.1662L103.547 43.2383C103.532 43.302 103.525 43.3519 103.525 43.3915C103.525 43.4982 103.584 43.5515 103.706 43.5515H103.853V43.5481ZM102.225 43.4758C102.401 43.3158 102.514 43.1093 102.564 42.8563L102.571 42.7978H101.786C101.531 42.7978 101.34 42.8408 101.214 42.9251C101.088 43.0094 101.026 43.1402 101.026 43.3158C101.026 43.4414 101.074 43.5395 101.168 43.6101C101.263 43.6823 101.385 43.7167 101.531 43.7167C101.818 43.7167 102.049 43.6341 102.225 43.4758Z" fill="#444144"/>
<path id="Vector_21" d="M104.176 40.6709H105.285L105.722 43.3521L107.146 40.6709H108.299L105.805 44.9818C105.618 45.3071 105.439 45.536 105.267 45.6702C105.093 45.8027 104.861 45.8698 104.571 45.8698H103.562L103.721 45.0025H104.278C104.413 45.0025 104.522 44.9801 104.6 44.9337C104.682 44.8872 104.756 44.8046 104.826 44.6824L104.969 44.4346L104.176 40.6709Z" fill="#444144"/>
<path id="Vector_22" d="M114.037 40.9153C114.289 41.1063 114.413 41.411 114.413 41.8291C114.413 42.003 114.396 42.1923 114.361 42.397L113.992 44.414H112.93L113.3 42.3902C113.329 42.2439 113.344 42.1097 113.344 41.9892C113.344 41.8291 113.298 41.7018 113.202 41.6106C113.107 41.5194 112.97 41.4729 112.794 41.4729C112.554 41.4729 112.35 41.5607 112.185 41.7379C112.019 41.9152 111.908 42.1664 111.854 42.4917L111.5 44.414H110.44L110.808 42.3902C110.838 42.2439 110.854 42.1097 110.854 41.9892C110.854 41.8291 110.806 41.7018 110.712 41.6106C110.617 41.5194 110.48 41.4729 110.304 41.4729C110.064 41.4729 109.858 41.5641 109.693 41.7448C109.529 41.9272 109.418 42.1785 109.362 42.4986L109.016 44.414H107.953L108.633 40.671H109.558L109.573 41.0943C109.717 40.9446 109.875 40.8293 110.043 40.7484C110.212 40.6692 110.419 40.6279 110.665 40.6279C110.912 40.6279 111.132 40.6796 111.324 40.7811C111.519 40.8843 111.661 41.041 111.75 41.2543C111.902 41.0564 112.091 40.9016 112.319 40.7914C112.546 40.683 112.807 40.6279 113.098 40.6279C113.472 40.6279 113.785 40.7226 114.037 40.9153Z" fill="#444144"/>
<path id="Vector_23" d="M117.925 40.8293C118.186 40.9618 118.386 41.146 118.526 41.3834C118.667 41.6175 118.737 41.8894 118.737 42.194C118.737 42.428 118.715 42.6242 118.669 42.7843H115.868C115.862 42.8032 115.86 42.8307 115.86 42.8634C115.86 43.0854 115.929 43.2782 116.068 43.4382C116.207 43.5983 116.41 43.6774 116.681 43.6774C116.906 43.6774 117.086 43.6344 117.216 43.5467C117.345 43.4589 117.451 43.3264 117.532 43.1457H118.587C118.486 43.5432 118.263 43.8616 117.917 44.0991C117.571 44.3383 117.151 44.457 116.658 44.457C116.271 44.457 115.94 44.3848 115.66 44.2385C115.381 44.0922 115.17 43.8926 115.027 43.6361C114.885 43.3814 114.812 43.0941 114.812 42.774C114.812 42.3609 114.901 41.9927 115.079 41.6657C115.257 41.3404 115.512 41.0857 115.844 40.9016C116.175 40.7157 116.56 40.6245 116.997 40.6245C117.354 40.628 117.664 40.6951 117.925 40.8293ZM117.662 42.1062V42.0271C117.662 41.8188 117.597 41.6605 117.465 41.5538C117.334 41.4471 117.16 41.3938 116.938 41.3938C116.706 41.3938 116.506 41.4609 116.338 41.5934C116.17 41.7259 116.055 41.898 115.996 42.1062H117.662Z" fill="#444144"/>
<path id="Vector_24" d="M122.688 40.9375C122.951 41.144 123.084 41.471 123.084 41.9167C123.084 42.0819 123.066 42.2488 123.031 42.4192L122.67 44.4137H121.607L121.97 42.4261C121.994 42.2815 122.007 42.1542 122.007 42.0475C122.007 41.8633 121.951 41.7205 121.844 41.6207C121.737 41.5209 121.579 41.471 121.374 41.471C121.092 41.471 120.863 41.5622 120.689 41.7463C120.511 41.9322 120.392 42.1937 120.326 42.5328L119.987 44.412H118.924L119.604 40.669H120.529L120.544 41.0923C120.865 40.7826 121.257 40.626 121.72 40.626C122.103 40.6277 122.425 40.731 122.688 40.9375Z" fill="#444144"/>
<path id="Vector_25" d="M124.108 41.5384H123.469L123.627 40.6711H124.267L124.454 39.623H125.517L125.328 40.6711H126.209L126.05 41.5384H125.169L124.867 43.1837L124.852 43.3299C124.852 43.4022 124.874 43.4573 124.921 43.4934C124.967 43.5296 125.041 43.5485 125.147 43.5485H125.711L125.554 44.4158H124.769C124.438 44.4158 124.186 44.347 124.012 44.2093C123.838 44.0699 123.751 43.8651 123.751 43.5932C123.751 43.5261 123.764 43.4194 123.788 43.2731L124.108 41.5384Z" fill="#444144"/>
<path id="Vector_26" d="M129.329 40.941C129.64 41.1543 129.797 41.4555 129.797 41.8444H128.794C128.794 41.6827 128.735 41.5605 128.616 41.4762C128.5 41.3918 128.333 41.3488 128.124 41.3488C127.898 41.3488 127.72 41.3832 127.592 41.4538C127.463 41.5243 127.4 41.619 127.4 41.7412C127.4 41.8444 127.455 41.9202 127.567 41.9718C127.676 42.0234 127.841 42.063 128.055 42.0923C128.527 42.1559 128.905 42.2609 129.187 42.4089C129.468 42.5569 129.609 42.8116 129.609 43.1696C129.609 43.5964 129.435 43.9182 129.085 44.135C128.735 44.3518 128.29 44.4603 127.746 44.4603C127.235 44.4603 126.826 44.3484 126.519 44.1247C126.211 43.9027 126.06 43.5791 126.06 43.1558H127.046C127.052 43.3451 127.12 43.4879 127.256 43.5826C127.389 43.6772 127.563 43.7254 127.779 43.7254C128.029 43.7254 128.224 43.6876 128.359 43.6153C128.494 43.543 128.563 43.4363 128.563 43.2952C128.563 43.1885 128.505 43.1059 128.389 43.0508C128.272 42.9957 128.091 42.9476 127.839 42.9097C127.543 42.8615 127.291 42.8047 127.085 42.7393C126.88 42.6722 126.709 42.5707 126.574 42.4296C126.439 42.2884 126.371 42.1009 126.371 41.8685C126.371 41.4744 126.532 41.1681 126.852 40.9513C127.174 40.7327 127.602 40.6226 128.133 40.6226C128.618 40.6209 129.018 40.7276 129.329 40.941Z" fill="#444144"/>
<path id="Vector_27" d="M133.306 44.1781C132.969 43.9905 132.708 43.7307 132.521 43.3951C132.334 43.0595 132.241 42.6757 132.241 42.2438C132.241 41.7103 132.358 41.2164 132.587 40.762C132.819 40.3077 133.147 39.948 133.57 39.6779C133.994 39.4094 134.483 39.2734 135.035 39.2734C135.427 39.2734 135.772 39.344 136.07 39.4851C136.368 39.6262 136.603 39.8259 136.77 40.0857C136.938 40.3456 137.029 40.6467 137.044 40.9926H136.403C136.348 40.6381 136.198 40.3611 135.951 40.158C135.705 39.9566 135.383 39.8568 134.979 39.8568C134.557 39.8568 134.191 39.9687 133.876 40.1907C133.561 40.4144 133.322 40.7087 133.158 41.0753C132.991 41.4418 132.91 41.8342 132.91 42.2506C132.91 42.5707 132.974 42.8547 133.106 43.0991C133.235 43.3452 133.421 43.5345 133.656 43.6704C133.893 43.8064 134.161 43.8752 134.461 43.8752C134.868 43.8752 135.207 43.7806 135.477 43.5913C135.748 43.402 135.968 43.118 136.133 42.7394H136.788C136.603 43.297 136.312 43.7238 135.916 44.0163C135.518 44.3106 135.031 44.4569 134.454 44.4569C134.026 44.4586 133.643 44.3657 133.306 44.1781Z" fill="#444144"/>
<path id="Vector_28" d="M138.13 44.2523C137.877 44.1129 137.68 43.9236 137.54 43.6792C137.399 43.4365 137.329 43.1629 137.329 42.8566C137.329 42.4384 137.423 42.0615 137.612 41.7276C137.801 41.3938 138.058 41.1305 138.388 40.9412C138.715 40.7519 139.082 40.6572 139.484 40.6572C139.811 40.6572 140.1 40.7261 140.354 40.8655C140.607 41.0031 140.804 41.1942 140.944 41.4368C141.085 41.6795 141.155 41.9531 141.155 42.2594C141.155 42.6759 141.061 43.0528 140.872 43.3883C140.685 43.7239 140.426 43.9855 140.096 44.1748C139.767 44.3641 139.402 44.4588 139 44.4588C138.675 44.4588 138.384 44.3899 138.13 44.2523ZM139.826 43.705C140.05 43.5553 140.224 43.3574 140.346 43.1061C140.469 42.8566 140.53 42.583 140.53 42.287C140.53 41.9617 140.426 41.6967 140.22 41.4919C140.015 41.2871 139.752 41.1856 139.43 41.1856C139.137 41.1856 138.882 41.2596 138.658 41.4076C138.434 41.5556 138.26 41.7535 138.138 42.0047C138.014 42.256 137.953 42.5279 137.953 42.8239C137.953 43.1491 138.056 43.4142 138.262 43.6172C138.467 43.822 138.732 43.9236 139.054 43.9236C139.345 43.927 139.602 43.853 139.826 43.705Z" fill="#444144"/>
<path id="Vector_29" d="M147.232 40.9549C147.471 41.1528 147.589 41.4522 147.589 41.8515C147.589 41.9771 147.574 42.1251 147.543 42.2955L147.158 44.4139H146.541L146.934 42.2886C146.954 42.1716 146.963 42.0545 146.963 41.9392C146.963 41.6966 146.9 41.5124 146.771 41.3903C146.643 41.2663 146.464 41.2044 146.232 41.2044C145.904 41.2044 145.632 41.3163 145.414 41.54C145.197 41.7637 145.051 42.0666 144.981 42.4504L144.618 44.4174H144.001L144.394 42.292C144.414 42.1802 144.423 42.0649 144.423 41.9496C144.423 41.7069 144.359 41.5228 144.227 41.3954C144.097 41.2681 143.912 41.2061 143.677 41.2061C143.361 41.2061 143.092 41.3231 142.872 41.5555C142.652 41.7895 142.505 42.0958 142.435 42.4813L142.081 44.4191H141.465L142.142 40.7053H142.677L142.67 41.1941C142.816 41.034 142.977 40.9067 143.155 40.8086C143.333 40.7122 143.551 40.664 143.807 40.664C144.092 40.664 144.331 40.7277 144.521 40.8533C144.712 40.979 144.84 41.1614 144.907 41.3989C145.058 41.1751 145.251 40.9962 145.49 40.8637C145.729 40.7294 146.008 40.6623 146.33 40.6623C146.693 40.6571 146.993 40.7552 147.232 40.9549Z" fill="#444144"/>
<path id="Vector_30" d="M151.225 40.8687C151.467 41.0098 151.656 41.2008 151.79 41.4469C151.923 41.6913 151.989 41.9684 151.989 42.2747C151.989 42.6911 151.899 43.0663 151.717 43.4002C151.538 43.7323 151.29 43.9922 150.977 44.1798C150.662 44.3656 150.312 44.4603 149.925 44.4603C149.588 44.4603 149.311 44.4018 149.092 44.283C148.874 44.1643 148.716 44.0094 148.62 43.8201L148.259 45.8732H147.641L148.583 40.7017H149.118V41.2043C149.459 40.8411 149.884 40.6587 150.39 40.6587C150.703 40.657 150.98 40.7276 151.225 40.8687ZM150.66 43.6979C150.882 43.5447 151.055 43.3485 151.177 43.1076C151.297 42.8684 151.358 42.6189 151.358 42.3624C151.358 41.989 151.262 41.6982 151.071 41.4951C150.881 41.2903 150.621 41.1888 150.295 41.1888C149.999 41.1888 149.74 41.2645 149.516 41.4194C149.292 41.5725 149.12 41.7687 149 42.0097C148.879 42.2489 148.82 42.4984 148.82 42.7565C148.82 43.13 148.914 43.4191 149.105 43.6222C149.296 43.827 149.553 43.9285 149.873 43.9285C150.173 43.9268 150.436 43.8511 150.66 43.6979Z" fill="#444144"/>
<path id="Vector_31" d="M155.972 43.8682L155.874 44.4138H155.557C155.366 44.4138 155.216 44.3759 155.109 44.3019C155.002 44.2279 154.942 44.1298 154.931 44.0145C154.559 44.3105 154.133 44.4585 153.65 44.4585C153.252 44.4585 152.936 44.3707 152.695 44.1935C152.454 44.0162 152.332 43.7701 152.332 43.4535C152.332 43.0353 152.488 42.7238 152.8 42.5207C153.111 42.3177 153.532 42.2144 154.065 42.2144H155.209L155.246 42.0182C155.261 41.9012 155.27 41.822 155.27 41.779C155.27 41.5932 155.194 41.4503 155.044 41.3453C154.892 41.2404 154.691 41.1887 154.435 41.1887C154.139 41.1887 153.906 41.2421 153.739 41.3505C153.571 41.4572 153.448 41.6121 153.372 41.8169H152.739C152.971 41.0442 153.559 40.6587 154.504 40.6587C154.915 40.6587 155.25 40.7533 155.509 40.9426C155.766 41.1319 155.898 41.3987 155.898 41.7429C155.898 41.8461 155.885 41.97 155.861 42.1146L155.581 43.5567C155.566 43.629 155.557 43.6807 155.557 43.7099C155.557 43.8166 155.627 43.87 155.768 43.87H155.972V43.8682ZM154.644 43.6531C154.883 43.4569 155.033 43.1971 155.092 42.8787L155.122 42.7169H153.954C153.648 42.7169 153.408 42.7754 153.232 42.889C153.056 43.0026 152.969 43.173 152.969 43.4019C152.969 43.5808 153.036 43.7185 153.169 43.8097C153.302 43.9009 153.484 43.9474 153.715 43.9474C154.095 43.9491 154.404 43.851 154.644 43.6531Z" fill="#444144"/>
<path id="Vector_32" d="M159.767 40.9702C160.012 41.1784 160.132 41.4916 160.132 41.9098C160.132 42.0458 160.117 42.1972 160.086 42.3693L159.71 44.4155H159.093L159.462 42.3986C159.493 42.2334 159.508 42.0871 159.508 41.9615C159.508 41.7223 159.436 41.5381 159.29 41.4039C159.143 41.2696 158.938 41.2025 158.673 41.2025C158.31 41.2025 158.007 41.3264 157.762 41.5708C157.516 41.8169 157.353 42.1525 157.272 42.5793L156.933 44.4155H156.316L156.994 40.7017H157.529L157.522 41.1819C157.673 41.027 157.857 40.9014 158.071 40.8033C158.288 40.7069 158.536 40.6587 158.818 40.6587C159.205 40.657 159.523 40.7602 159.767 40.9702Z" fill="#444144"/>
<path id="Vector_33" d="M160.584 40.7002H161.21L161.821 43.7239L163.554 40.7002H164.224L161.654 45.0628C161.519 45.2865 161.408 45.4517 161.323 45.5584C161.238 45.6668 161.141 45.7442 161.032 45.7959C160.925 45.8475 160.78 45.8716 160.599 45.8716H159.838L159.936 45.3261H160.464C160.634 45.3261 160.764 45.2951 160.851 45.2349C160.939 45.1746 161.036 45.0507 161.141 44.8666L161.382 44.4432L160.584 40.7002Z" fill="#444144"/>
</g>
</g>
</g>
</svg>
