<svg width="171" height="25" viewBox="0 0 171 25" fill="none" xmlns="http://www.w3.org/2000/svg" id="logo">
<path id="Vector" fill-rule="evenodd" clip-rule="evenodd" d="M18.0526 19.0574H14.6286V0H18.0526V19.0574ZM12.9283 4.3244C12.9283 5.26805 12.1227 6.03278 11.1286 6.03278C10.1345 6.03278 9.32878 5.26805 9.32878 4.3244C9.32878 3.38076 10.1345 2.61658 11.1286 2.61658C12.1227 2.61658 12.9283 3.38076 12.9283 4.3244ZM6.30445 11.9589C7.70819 11.9589 8.64462 11.0971 8.64462 9.76354C8.64462 8.43042 7.68085 7.51613 6.22181 7.51613C4.90011 7.51613 3.96428 8.40446 3.96428 9.81594C3.96428 11.175 4.84541 11.9589 6.30445 11.9589ZM3.24883 20.1657C3.24883 21.054 4.29465 21.6822 6.05692 21.6822C8.45238 21.6822 9.80138 20.9502 9.80138 19.9828C9.80138 19.2249 9.16818 18.937 7.87447 18.8851L4.70787 18.7282C3.71675 19.1724 3.24883 19.5906 3.24883 20.1657ZM0.605257 15.9575C0.605257 14.9902 1.34846 14.0499 2.7528 13.3699C1.43169 12.6125 0.743197 11.3838 0.743197 9.78944C0.743197 6.99296 2.94543 5.03343 6.22203 5.03343C7.56632 5.03343 8.90466 5.44486 9.93328 6.27845C10.6128 6.82872 11.1473 7.55 11.4399 8.35255C11.6384 8.89605 11.7009 9.47849 11.7009 10.0513C11.7009 12.6909 9.66328 14.4162 6.30467 14.4162C5.69882 14.4162 5.17561 14.3637 4.73504 14.2588C4.10184 14.4941 3.79921 14.8079 3.79921 15.1736C3.79921 15.9522 4.7564 16.0118 6.56854 16.1246C6.88581 16.1443 7.22929 16.1657 7.59842 16.1929C11.3156 16.4542 12.8846 17.1337 12.8846 19.7474C12.8846 22.4395 10.5445 23.9814 6.11204 23.9814C2.06489 23.9814 0 22.7787 0 20.5573C0 19.2767 0.797897 18.5712 2.50487 18.0486C1.21111 17.4481 0.605257 16.8984 0.605257 15.9575ZM26.1437 16.5415C27.9939 16.5415 28.8775 15.0995 28.8775 12.1902C28.8775 9.28024 27.9939 7.86477 26.1437 7.86477C24.3214 7.86477 23.4099 9.28024 23.4099 12.1902C23.4099 15.0995 24.3214 16.5415 26.1437 16.5415ZM26.1438 5.05908C30.0102 5.05908 32.3295 7.68119 32.3295 12.19C32.3295 16.6983 29.9822 19.3204 26.1438 19.3204C22.3053 19.3204 19.958 16.6723 19.958 12.19C19.958 7.68119 22.278 5.05908 26.1438 5.05908ZM43.2102 12.1899C43.2102 15.0468 42.0502 16.5938 40.1447 16.5938C39.2059 16.5938 38.4324 16.2004 37.5762 15.4142V8.88661C38.4603 8.12639 39.2332 7.73301 40.172 7.73301C42.0223 7.73301 43.2102 9.30594 43.2102 12.1899ZM34.2347 0.000945985V15.86C34.2347 16.5153 34.1794 17.5904 34.0689 19.0578H36.72L37.0797 17.5904C38.267 18.7959 39.4543 19.3202 41.0008 19.3202C44.2869 19.3202 46.6342 16.4633 46.6342 12.1898C46.6342 7.76006 44.2316 5.0595 41.1114 5.0595C39.6476 5.0595 38.5982 5.53132 37.6041 6.63299V0.000945985H34.2347ZM51.0243 15.2832C51.0243 16.2008 51.5767 16.7517 52.5708 16.7517C53.6481 16.7517 54.6975 16.2793 55.7469 15.3091V12.3732C52.5434 12.7925 51.0243 13.6577 51.0243 15.2832ZM55.8296 17.8521C54.5043 18.7692 53.0679 19.2151 51.5215 19.2151C49.0915 19.2151 47.6557 17.8256 47.6557 15.5449C47.6557 12.4781 50.3341 10.8527 55.857 10.1974V9.12287C55.857 8.12674 55.1393 7.54994 53.8135 7.54994C52.4882 7.54994 51.4109 8.10021 50.6379 9.12287L48.318 7.73336C49.5333 5.95048 51.3835 5.05932 53.8694 5.05932C57.2655 5.05932 59.171 6.60629 59.171 9.12287V17.1969C59.171 17.6693 59.2543 18.298 59.3922 19.0576H56.1334L55.8296 17.8521ZM65.494 19.0574H62.0699V0H65.494V19.0574ZM70.4529 15.3875C71.8888 17.1179 73.1867 17.9831 74.7884 17.9831C77.1637 17.9831 78.5716 15.9643 78.5716 12.2157C78.5716 8.46709 77.1637 6.44886 74.7884 6.44886C73.1867 6.44886 71.8888 7.28753 70.4529 9.01736V15.3875ZM68.7405 5.34773H70.0111L70.4528 7.13005H70.5908C71.944 5.76707 73.3798 5.08529 74.9263 5.08529C78.0744 5.08529 80.2838 7.68032 80.2838 12.1897C80.2838 16.6985 78.0744 19.2936 74.9263 19.2936C73.3798 19.2936 71.944 18.6383 70.5908 17.2748H70.4528V24.0383H68.7405V5.34773ZM83.1003 15.5713C83.1003 13.2382 85.337 12.373 90.1975 11.3509V15.5713C88.5131 17.1962 87.0773 18.0095 85.5029 18.0095C84.0117 18.0095 83.1003 17.0918 83.1003 15.5713ZM85.2822 19.3193C87.0492 19.3193 88.623 18.6386 90.1974 17.2486C90.2253 17.8259 90.3353 18.4287 90.4739 19.0574H92.1582C91.9924 18.1928 91.9097 17.5635 91.9097 17.222V8.70331C91.9097 6.65856 90.0042 5.11103 87.2704 5.11103C84.7846 5.11103 83.2661 6.02871 82.1334 7.91657L83.4593 8.65083C84.3155 7.18231 85.4748 6.44805 87.0492 6.44805C89.0374 6.44805 90.2253 7.36573 90.2253 8.70331V10.0397C84.1769 11.0618 81.3879 12.4779 81.3879 15.6491C81.3879 17.7734 82.9069 19.3193 85.2822 19.3193ZM93.4273 5.34787H95.1396L99.3924 17.013L103.617 5.34787H105.247L99.8064 20.1329C98.8122 22.8583 97.6522 23.9854 95.1669 23.9854C94.7252 23.9854 94.2281 23.96 93.6758 23.881V22.5705C94.1175 22.6489 94.5319 22.6755 94.8911 22.6755C96.9619 22.6755 97.9007 21.5744 98.453 18.9788L93.4273 5.34787ZM108.533 5.34784H106.958V19.0577H108.615V9.06993C110.051 7.36663 111.46 6.52739 112.785 6.52739C114.828 6.52739 115.27 7.68099 115.27 10.0925V19.0577H116.927V9.06993C118.336 7.36663 119.772 6.52739 121.097 6.52739C123.141 6.52739 123.583 7.68099 123.583 10.0925V19.0577H125.212V9.51579C125.212 6.57988 123.997 5.11192 121.567 5.11192C120.021 5.11192 118.502 5.89811 116.927 7.47104H116.735C116.072 5.89811 114.912 5.11192 113.283 5.11192C111.763 5.11192 110.162 5.89811 108.643 7.47104H108.533V5.34784ZM133.276 6.42237C131.011 6.42237 129.409 8.04779 129.133 10.9837H137.059C136.976 8.02127 135.54 6.42237 133.276 6.42237ZM138.744 15.7545C137.473 18.2185 135.844 19.2937 133.303 19.2937C129.714 19.2937 127.421 16.5931 127.421 12.2937C127.421 7.75948 129.796 5.08544 133.248 5.08544C136.728 5.08544 138.66 7.3661 138.66 11.7174V12.1633H129.133C129.161 15.9638 130.68 17.9826 133.414 17.9826C135.264 17.9826 136.452 17.118 137.473 15.0992L138.744 15.7545ZM142.609 5.34784H140.897V19.0577H142.609V9.06993C144.155 7.36663 145.673 6.52739 147.11 6.52739C149.319 6.52739 149.817 7.68099 149.817 10.0925V19.0577H151.502V9.51579C151.502 6.57988 150.203 5.11192 147.607 5.11192C146.005 5.11192 144.321 5.89811 142.609 7.49756V5.34784ZM158.542 18.0352C158.929 18.0352 159.426 17.9302 160.061 17.7728V19.0838C159.426 19.2419 158.764 19.3457 158.127 19.3457C156.139 19.3457 155.283 18.4021 155.283 16.4098V6.68499H153.13V5.34797H155.283V1.28442H156.968V5.34797H159.978V6.68499H156.968V16.4888C156.968 17.5369 157.466 18.0352 158.542 18.0352ZM169.12 15.4927C169.12 16.9341 167.932 18.0093 166.137 18.0093C164.452 18.0093 163.015 17.1966 161.773 15.6231L160.503 16.5932C161.939 18.4286 163.678 19.2932 165.944 19.2932C168.925 19.2932 170.859 17.6424 170.859 15.3618C170.859 13.1855 169.396 12.3468 166.523 11.3242C166.292 11.2411 166.07 11.1628 165.858 11.088C163.863 10.3836 162.712 9.97764 162.712 8.65074C162.712 7.31372 163.734 6.3966 165.308 6.3966C166.91 6.3966 168.098 7.05184 169.202 8.44079L170.417 7.60212C169.146 5.95074 167.49 5.08554 165.611 5.08554C162.74 5.08554 160.945 6.63194 160.945 8.72918C160.945 10.8258 162.464 11.6131 165.391 12.6352C165.536 12.6866 165.678 12.7361 165.815 12.7843C167.927 13.5235 169.12 13.9413 169.12 15.4927Z" fill="white"/>
</svg>
