<svg xmlns="http://www.w3.org/2000/svg" width="30" height="30" viewBox="0 0 24 24" fill="none" id="phone">
    <g id="phone">
        <path d="M16.6771 12.7477C16.0366 12.4743 15.2946 12.654 14.8532 13.1929L13.5566 14.7786C11.76 13.7358 10.2603 12.2361 9.2175 10.4395L10.7993 9.14676C11.3382 8.70543 11.5218 7.96337 11.2445 7.32286L9.36982 2.94861C9.0769 2.26123 8.33875 1.87849 7.6084 2.03471L3.23416 2.97205C2.51554 3.12437 2 3.76097 2 4.49913C2 13.7436 9.16673 21.3126 18.2472 21.9531C18.4229 21.9648 18.6026 21.9766 18.7822 21.9844C18.7822 21.9844 18.7822 21.9844 18.7862 21.9844C19.0244 21.9922 19.2587 22 19.5009 22C20.239 22 20.8756 21.4845 21.028 20.7658L21.9653 16.3916C22.1215 15.6613 21.7388 14.9231 21.0514 14.6302L16.6771 12.7555V12.7477ZM19.4853 20.7463C10.5181 20.7385 3.24978 13.4702 3.24978 4.49913C3.24978 4.35072 3.35133 4.22574 3.49583 4.19449L7.87008 3.25716C8.01458 3.22591 8.16299 3.30402 8.22158 3.44072L10.0963 7.81496C10.1509 7.94384 10.1158 8.09225 10.0064 8.17818L8.42076 9.47483C7.94819 9.86148 7.82321 10.5371 8.13175 11.0683C9.28389 13.0562 10.9399 14.7122 12.9239 15.8604C13.455 16.169 14.1307 16.044 14.5174 15.5714L15.814 13.9858C15.9038 13.8764 16.0523 13.8413 16.1772 13.8959L20.5515 15.7706C20.6882 15.8292 20.7663 15.9776 20.735 16.1221L19.7977 20.4964C19.7665 20.6409 19.6376 20.7424 19.4931 20.7424C19.4892 20.7424 19.4853 20.7424 19.4813 20.7424L19.4853 20.7463Z" fill="white"/>
    </g>
</svg>