<?xml version="1.0" encoding="UTF-8"?>
<svg version="1.1" xmlns="http://www.w3.org/2000/svg" width="1751" height="384">
<path d="M0 0 C577.83 0 1155.66 0 1751 0 C1751 126.72 1751 253.44 1751 384 C1173.17 384 595.34 384 0 384 C0 257.28 0 130.56 0 0 Z " fill="#000001" transform="translate(0,0)"/>
<path d="M0 0 C10.70339519 8.91949599 18.37526335 21.43182853 19.80932617 35.45898438 C20.86603759 54.97591688 15.93814627 70.23641015 6.5703125 87.12109375 C6.18182129 87.8279834 5.79333008 88.53487305 5.39306641 89.26318359 C-0.14051963 99.24687193 -6.31296927 108.20814312 -13.4296875 117.12109375 C-14.99891065 119.22025128 -16.56159477 121.32431547 -18.1171875 123.43359375 C-25.82945943 133.73029723 -25.82945943 133.73029723 -29.4296875 137.12109375 C-30.0896875 137.12109375 -30.7496875 137.12109375 -31.4296875 137.12109375 C-31.6771875 137.69859375 -31.9246875 138.27609375 -32.1796875 138.87109375 C-33.61268738 141.45049354 -35.21393426 143.18230967 -37.4296875 145.12109375 C-38.0896875 145.12109375 -38.7496875 145.12109375 -39.4296875 145.12109375 C-39.7596875 146.11109375 -40.0896875 147.10109375 -40.4296875 148.12109375 C-41.8203125 149.5234375 -41.8203125 149.5234375 -43.6796875 151.05859375 C-46.76272827 153.65855243 -49.71678774 156.34183561 -52.62353516 159.13745117 C-65.40096353 171.31950831 -79.99328977 181.46239647 -94.78173828 191.04199219 C-97.33754936 192.71557515 -99.84635459 194.4579229 -102.3671875 196.18359375 C-110.77076056 201.7897663 -119.62782956 206.75176199 -128.67089844 211.25097656 C-129.37857361 211.60347473 -130.08624878 211.9559729 -130.81536865 212.31915283 C-131.34809387 212.58379333 -131.88081909 212.84843384 -132.4296875 213.12109375 C-131.67099932 213.1234821 -130.91231113 213.12587046 -130.1306324 213.12833118 C-111.64241232 213.18755075 -93.15432496 213.26314526 -74.66624641 213.35680866 C-65.72542629 213.40171221 -56.78464552 213.44113936 -47.84375 213.4675293 C-40.04791946 213.49055352 -32.25221401 213.52400076 -24.45648277 213.56979531 C-20.33136337 213.59366803 -16.2063674 213.6124357 -12.08118057 213.61870766 C-8.19216927 213.62478558 -4.30347353 213.64488221 -0.41457939 213.67536926 C1.00669851 213.68410635 2.42801772 213.68788112 3.84932137 213.68610191 C18.07600247 213.67392428 29.25526917 216.36317225 39.90234375 226.296875 C49.01699293 236.087936 52.12032004 246.24567878 51.87890625 259.5234375 C50.74064739 272.7935186 43.82813648 281.90988027 33.96484375 290.328125 C25.58134653 296.60549078 17.75563793 298.2321332 7.37561035 298.26826477 C6.34120827 298.2737798 6.34120827 298.2737798 5.28590918 298.27940625 C2.9933327 298.29034964 0.70080169 298.29427091 -1.59179688 298.2980957 C-3.2433486 298.30436754 -4.89489893 298.31101497 -6.54644775 298.31800842 C-11.95543449 298.3389697 -17.36442125 298.34940501 -22.7734375 298.359375 C-24.64252232 298.36342585 -26.511607 298.36754287 -28.38069153 298.37172508 C-37.16661223 298.39076119 -45.95252463 298.4049942 -54.73846197 298.41333705 C-64.84685134 298.42309666 -74.95502101 298.44938948 -85.06333303 298.48983794 C-92.89804049 298.52010185 -100.73268532 298.53481572 -108.56745005 298.53811806 C-113.23652835 298.54045725 -117.90537152 298.5492689 -122.5743866 298.57457924 C-126.973998 298.59804498 -131.37322253 298.60201979 -135.77288055 298.59181786 C-137.37593125 298.59132681 -138.97900222 298.59751782 -140.5819931 298.6113739 C-159.13451425 298.76259712 -175.11500436 294.69135926 -188.8046875 281.37109375 C-195.37956948 274.67609374 -200.17477588 267.58119672 -201.4296875 258.12109375 C-202.0896875 258.12109375 -202.7496875 258.12109375 -203.4296875 258.12109375 C-205.6208746 244.7601968 -205.5021762 231.80231551 -200.4296875 219.12109375 C-200.10226563 218.19941406 -199.77484375 217.27773438 -199.4375 216.328125 C-195.93787611 207.06817129 -190.69553832 198.72880222 -185.67333984 190.23876953 C-181.07333633 182.40594062 -176.93386567 174.30687719 -172.69506836 166.27514648 C-170.00555139 161.18573511 -167.25627188 156.13600152 -164.4296875 151.12109375 C-163.7696875 151.12109375 -163.1096875 151.12109375 -162.4296875 151.12109375 C-162.089375 149.91453125 -162.089375 149.91453125 -161.7421875 148.68359375 C-158.9267422 141.04167079 -154.29028338 134.17076398 -150.1875 127.1640625 C-147.03456967 121.70598977 -144.06009531 116.15197254 -141.07421875 110.60131836 C-137.35658671 103.72903603 -133.45772474 96.97770557 -129.4921875 90.24609375 C-125.20544269 82.939713 -121.02133388 75.61797236 -117.0703125 68.125 C-114.77582169 63.9238966 -112.30425875 59.83622281 -109.79956055 55.75756836 C-107.64821823 52.23435558 -105.62414247 48.6647553 -103.6640625 45.03125 C-100.3570529 38.92535677 -96.85175984 32.94415104 -93.3059082 26.9753418 C-92.23005562 25.16315862 -91.15883744 23.34828885 -90.08789062 21.53320312 C-89.39610724 20.36572307 -88.70405975 19.19839946 -88.01171875 18.03125 C-87.39530518 16.99105713 -86.7788916 15.95086426 -86.14379883 14.87915039 C-84.66870798 12.50568489 -83.25093539 10.24064674 -81.4296875 8.12109375 C-80.7696875 8.12109375 -80.1096875 8.12109375 -79.4296875 8.12109375 C-79.17445313 7.53199219 -78.91921875 6.94289063 -78.65625 6.3359375 C-75.08686611 -0.10941494 -67.6673608 -4.30510189 -61.4296875 -7.87890625 C-60.099375 -8.71421875 -60.099375 -8.71421875 -58.7421875 -9.56640625 C-38.59645297 -17.54867842 -16.64250201 -12.8698448 0 0 Z " fill="#D01818" transform="translate(290.4296875,56.87890625)"/>
<path d="M0 0 C9.24 0 18.48 0 28 0 C28 21.45 28 42.9 28 65 C31.63 62.03 35.26 59.06 39 56 C52.78477902 47.05198555 69.87551681 44.48464767 86 47.75 C87.34297698 48.13444989 88.67713118 48.5512161 90 49 C91.11955078 49.33257812 91.11955078 49.33257812 92.26171875 49.671875 C107.40805939 54.84260643 120.13150612 66.67178 127.3125 80.75 C136.1361814 99.23464644 138.25309338 119.39973298 132.390625 139.2578125 C125.3032218 158.33009413 114.77845144 172.5586542 96.15234375 181.67578125 C95.11207031 182.11277344 94.07179688 182.54976562 93 183 C92.36578125 183.26997803 91.7315625 183.53995605 91.078125 183.81811523 C84.45954784 186.35659275 78.15464754 186.48219718 71.125 186.4375 C70.01769531 186.45748047 68.91039062 186.47746094 67.76953125 186.49804688 C57.45807675 186.49198844 49.01749504 183.87375504 40.5625 178 C39.59441406 177.34 38.62632813 176.68 37.62890625 176 C35.18134764 174.13796432 33.03274919 172.30666575 31 170 C31 169.34 31 168.68 31 168 C30.34 168 29.68 168 29 168 C28.67 173.28 28.34 178.56 28 184 C18.76 184 9.52 184 0 184 C0 123.28 0 62.56 0 0 Z " fill="#FBFBFA" transform="translate(1337,122)"/>
<path d="M0 0 C15.04848613 11.51059701 26.02090962 26.7124449 29.359375 45.8046875 C29.62732649 49.22678115 29.64581373 52.62352939 29.609375 56.0546875 C29.60188232 56.98418213 29.59438965 57.91367676 29.58666992 58.87133789 C29.2717738 79.02293027 22.88763586 96.55177819 8.99609375 111.38671875 C0.45024641 119.22357727 -9.62680439 124.31893045 -20.640625 127.8046875 C-21.383125 128.04960937 -22.125625 128.29453125 -22.890625 128.546875 C-39.24338388 133.0686606 -56.37978752 128.88818347 -70.90234375 121.04296875 C-76.18149841 118.00788688 -80.43977523 114.18752354 -84.640625 109.8046875 C-85.33414062 109.14210938 -86.02765625 108.47953125 -86.7421875 107.796875 C-91.14433147 103.32674425 -94.12817732 98.47845887 -96.953125 92.9296875 C-97.27877441 92.29409912 -97.60442383 91.65851074 -97.93994141 91.00366211 C-102.72991572 81.10114371 -104.17617326 71.5557936 -104.078125 60.6171875 C-104.07055176 59.43116943 -104.06297852 58.24515137 -104.05517578 57.02319336 C-103.68584334 37.26929958 -97.41152292 20.9217883 -83.515625 6.6171875 C-78.11565592 1.52578808 -72.3778869 -2.11318882 -65.640625 -5.1953125 C-64.5990625 -5.68386719 -63.5575 -6.17242187 -62.484375 -6.67578125 C-42.56962071 -14.68205071 -17.86517876 -11.88958448 0 0 Z " fill="#FBFBFB" transform="translate(1290.640625,179.1953125)"/>
<path d="M0 0 C1.134375 0.36222656 2.26875 0.72445312 3.4375 1.09765625 C24.27608394 8.34692779 37.65683551 23.0726285 47.421875 42.21484375 C49.40724593 46.9767854 50.64251343 52.02254923 52 57 C41.77 57 31.54 57 21 57 C19.659375 54.339375 18.31875 51.67875 16.9375 48.9375 C10.76174247 37.13661872 3.91686262 30.69451745 -8.7890625 25.9609375 C-24.33883903 21.57089505 -42.55561589 21.99791812 -56.875 29.5078125 C-70.03877672 37.19860596 -77.50274101 49.23085422 -82.1328125 63.48828125 C-82.85942881 66.32067394 -83.48639722 69.12212656 -84 72 C-84.17055908 72.92538574 -84.34111816 73.85077148 -84.5168457 74.80419922 C-86.62687224 88.7608679 -86.13529009 104.48372777 -82 118 C-81.7834375 118.80695313 -81.566875 119.61390625 -81.34375 120.4453125 C-76.99666294 135.29785997 -68.33064228 145.53007228 -55 153 C-42.82265358 159.42078266 -25.69459404 160.1860064 -12.51293945 156.41137695 C-9.29203159 155.38497542 -6.15202403 154.22381069 -3 153 C-2.18789062 152.7009375 -1.37578125 152.401875 -0.5390625 152.09375 C8.70420664 148.14800665 16.07797634 139.05174363 20 130 C21.68020087 124.75201412 22.84159786 119.38211454 24 114 C24.33 112.68 24.66 111.36 25 110 C7.84 110 -9.32 110 -27 110 C-27 101.42 -27 92.84 -27 84 C-0.27 84 26.46 84 54 84 C54 110.43347887 53.78260865 134.76076561 37 156 C36.37867188 156.79535156 35.75734375 157.59070313 35.1171875 158.41015625 C21.55978634 174.59399121 1.90717074 184.03209221 -19 186 C-42.19858483 187.71511129 -64.80997104 183.07529797 -83 168 C-83.6290625 167.52046875 -84.258125 167.0409375 -84.90625 166.546875 C-97.22282157 156.80558658 -105.37569149 142.59912824 -110.375 127.9375 C-110.61371826 127.24261475 -110.85243652 126.54772949 -111.09838867 125.83178711 C-114.65251959 114.68608397 -115.36434041 103.31677297 -115.3125 91.6875 C-115.30903564 90.41729004 -115.30557129 89.14708008 -115.30200195 87.83837891 C-115.19415431 78.51819741 -114.34758468 70.01735796 -112 61 C-111.80664062 60.06414062 -111.61328125 59.12828125 -111.4140625 58.1640625 C-107.25049738 39.72541697 -94.79759816 21.81303258 -79.6484375 10.65625 C-73.71070889 6.94298019 -67.39317642 3.84846064 -61 1 C-60.38785645 0.72607422 -59.77571289 0.45214844 -59.14501953 0.16992188 C-41.27180108 -7.19533933 -18.03428572 -6.13890306 0 0 Z " fill="#FBFBFA" transform="translate(1066,123)"/>
<path d="M0 0 C11.10051818 7.33948735 19.4075683 17.46437189 22.375 30.5703125 C23.15235013 38.18360591 22.98142945 45.87610247 22.984375 53.51953125 C22.99937287 55.74584649 23.01610336 57.97215067 23.03448486 60.19844055 C23.07798991 66.02624044 23.09812013 71.85389026 23.11322021 77.68182373 C23.13285214 83.64148774 23.17481524 89.60099113 23.21484375 95.56054688 C23.28996354 107.2304462 23.33829864 118.90022905 23.375 130.5703125 C14.465 130.5703125 5.555 130.5703125 -3.625 130.5703125 C-3.625 124.9603125 -3.625 119.3503125 -3.625 113.5703125 C-5.3575 115.1171875 -5.3575 115.1171875 -7.125 116.6953125 C-21.28840799 128.99837794 -34.65372809 134.6280228 -53.625 133.5703125 C-68.6791653 132.21218577 -79.59444511 126.63588671 -89.625 115.5703125 C-96.5679546 106.14665081 -97.43531233 95.97899559 -96.625 84.5703125 C-94.73459313 73.14844241 -87.90897559 64.24049188 -78.625 57.5703125 C-62.33069789 48.39955009 -45.20619706 47.88538349 -26.9375 48.2578125 C-24.75979173 48.28297049 -22.5820549 48.30577018 -20.40429688 48.32617188 C-15.14389264 48.38047028 -9.8845865 48.46348025 -4.625 48.5703125 C-4.74671282 46.67261311 -4.87899403 44.77558993 -5.015625 42.87890625 C-5.12438965 41.29420532 -5.12438965 41.29420532 -5.23535156 39.67749023 C-6.10888746 32.71164351 -9.04765142 26.90825028 -14.625 22.5703125 C-21.37815542 18.63747129 -27.41282474 17.94870133 -35.125 18.0703125 C-36.59646484 18.04710937 -36.59646484 18.04710937 -38.09765625 18.0234375 C-46.12218124 18.06617798 -52.38135291 19.74974981 -58.5 25.0703125 C-59.20125 25.8953125 -59.9025 26.7203125 -60.625 27.5703125 C-61.181875 28.2096875 -61.73875 28.8490625 -62.3125 29.5078125 C-64.06206941 32.07306864 -64.06206941 32.07306864 -65.625 37.5703125 C-74.865 37.5703125 -84.105 37.5703125 -93.625 37.5703125 C-91.99677691 27.80097399 -89.64555762 20.50449479 -83.625 12.5703125 C-83.01140625 11.74144531 -82.3978125 10.91257813 -81.765625 10.05859375 C-74.16487057 1.22341023 -63.48208452 -2.38918186 -52.625 -5.4296875 C-52.01769043 -5.60927002 -51.41038086 -5.78885254 -50.78466797 -5.97387695 C-35.1667307 -9.27013389 -14.11522226 -7.75408591 0 0 Z " fill="#FBFBFA" transform="translate(1581.625,175.4296875)"/>
<path d="M0 0 C9.24 0 18.48 0 28 0 C28.01981934 2.59359375 28.03963867 5.1871875 28.06005859 7.859375 C28.12707498 16.44489497 28.20471282 25.03029549 28.28752708 33.61567688 C28.33739498 38.81911573 28.38372574 44.02253521 28.421875 49.22607422 C28.45884803 54.25120142 28.50524032 59.27616275 28.55806351 64.30114746 C28.57654371 66.21477335 28.591675 68.12843471 28.60334396 70.04211426 C28.62031587 72.73007053 28.64937657 75.41765217 28.68115234 78.10546875 C28.68331253 78.89022079 28.68547272 79.67497284 28.68769836 80.48350525 C28.81681955 89.07766438 30.57418779 97.01865067 36.3125 103.6875 C43.79443577 110.12544473 51.50120591 110.64682835 61 110 C70.34551966 108.27960793 76.99391173 102.79300282 82.67578125 95.41796875 C86.21355907 88.95813255 87.44626928 82.55978606 87.43237305 75.26733398 C87.44766052 74.03641273 87.44766052 74.03641273 87.46325684 72.78062439 C87.49314576 70.10237589 87.50261546 67.42448641 87.51171875 64.74609375 C87.52858336 62.87564427 87.54673598 61.00520599 87.56611633 59.13478088 C87.61342896 54.23749292 87.64335919 49.34025042 87.66955566 44.44281006 C87.69945615 39.43508936 87.7459537 34.42752503 87.79101562 29.41992188 C87.8768355 19.61334548 87.94273918 9.80678477 88 0 C97.24 0 106.48 0 116 0 C116 44.22 116 88.44 116 134 C106.76 134 97.52 134 88 134 C87.505 126.575 87.505 126.575 87 119 C86.401875 119.845625 85.80375 120.69125 85.1875 121.5625 C78.53882621 129.50710174 67.97159467 134.18132313 58.125 136.75 C41.29834635 138.09613229 27.3922424 135.546825 14.1875 124.4375 C5.1426611 115.75863724 0.0791765 104.7497412 -0.24050903 92.23521423 C-0.2462178 90.51480465 -0.24119375 88.79433553 -0.22705078 87.07397461 C-0.22734283 86.12656403 -0.22763489 85.17915344 -0.22793579 84.20303345 C-0.22655359 81.1027071 -0.21104503 78.00262759 -0.1953125 74.90234375 C-0.19157842 72.74044425 -0.18873331 70.57854304 -0.18673706 68.41664124 C-0.17913171 62.74988056 -0.15951 57.08322378 -0.1373291 51.41650391 C-0.11680372 45.62468877 -0.10772107 39.83285671 -0.09765625 34.04101562 C-0.07626103 22.69395762 -0.04110431 11.34700374 0 0 Z " fill="#FCFBFB" transform="translate(544,172)"/>
<path d="M0 0 C9.24 0 18.48 0 28 0 C28.0093457 2.60817627 28.01869141 5.21635254 28.02832031 7.90356445 C28.06219557 16.55298198 28.1178029 25.20216356 28.18390274 33.85139179 C28.2232918 39.09177657 28.25552224 44.33199547 28.27099609 49.57250977 C28.28621923 54.63667118 28.32076469 59.70037628 28.36830902 64.76433372 C28.38306467 66.68942469 28.39103765 68.61458083 28.39188385 70.53972816 C28.40292315 83.06952921 29.04305267 93.16178654 36 104 C37.8562856 105.58750699 37.8562856 105.58750699 39.9375 106.75 C40.60652344 107.15734375 41.27554688 107.5646875 41.96484375 107.984375 C50.10296628 112.04562616 60.51942125 110.61354028 68.87890625 107.94921875 C71.20031487 106.91035633 72.97709614 105.52680059 75 104 C75.66 104 76.32 104 77 104 C77.2475 103.443125 77.495 102.88625 77.75 102.3125 C79 100 79 100 80.9375 97.6875 C86.33499844 90.65439597 87.14028204 83.38061738 87.20532227 74.81323242 C87.21522186 74.00295593 87.22512146 73.19267944 87.23532104 72.35784912 C87.26680619 69.69041831 87.29164193 67.02296971 87.31640625 64.35546875 C87.336987 62.50172982 87.35798377 60.64799546 87.37937927 58.79426575 C87.43448417 53.92322503 87.48394439 49.05214276 87.53222656 44.18103027 C87.5825263 39.20723793 87.63816809 34.23350567 87.69335938 29.25976562 C87.80079925 19.5065599 87.90178165 9.75330295 88 0 C97.24 0 106.48 0 116 0 C116 44.22 116 88.44 116 134 C107.09 134 98.18 134 89 134 C89 128.72 89 123.44 89 118 C88.01 118 87.02 118 86 118 C85.75121094 118.57878906 85.50242187 119.15757812 85.24609375 119.75390625 C80.82824753 127.71710868 72.18730376 131.91631479 64 135 C62.61554687 135.54914063 62.61554687 135.54914063 61.203125 136.109375 C48.9382543 139.51960734 35.1236794 137.18364193 24.00390625 131.45703125 C11.9520674 124.31096127 6.07359799 114.48591977 1.578125 101.49609375 C-0.00395279 94.66536597 -0.1445415 87.69752273 -0.11352539 80.71655273 C-0.11367142 79.83741714 -0.11381744 78.95828156 -0.1139679 78.05250549 C-0.11327755 75.17950881 -0.10552674 72.30657895 -0.09765625 69.43359375 C-0.09578895 67.428635 -0.09436652 65.4236758 -0.09336853 63.41871643 C-0.08956796 58.16627725 -0.07975891 52.91386615 -0.06866455 47.66143799 C-0.05839731 42.29187398 -0.05385957 36.92230539 -0.04882812 31.55273438 C-0.03813424 21.03514199 -0.02055759 10.51757773 0 0 Z " fill="#FBFBFA" transform="translate(815,172)"/>
<path d="M0 0 C9.9 0 19.8 0 30 0 C30 51.81 30 103.62 30 157 C59.37 157 88.74 157 119 157 C119 165.91 119 174.82 119 184 C79.73 184 40.46 184 0 184 C0 123.28 0 62.56 0 0 Z " fill="#F7F7F6" transform="translate(684,122)"/>
<path d="M0 0 C9.57 0 19.14 0 29 0 C29 51.81 29 103.62 29 157 C59.03 157 89.06 157 120 157 C120 165.91 120 174.82 120 184 C80.4 184 40.8 184 0 184 C0 123.28 0 62.56 0 0 Z " fill="#FBFBFA" transform="translate(412,122)"/>
<path d="M0 0 C6.80076258 5.59301616 11.00223973 13.03009914 13.625 21.3125 C13.97433594 22.19679687 14.32367187 23.08109375 14.68359375 23.9921875 C15.86149997 28.14662852 15.91800212 31.89445537 15.875 36.1875 C15.88660156 37.33412109 15.88660156 37.33412109 15.8984375 38.50390625 C15.85459426 51.41574188 10.51263471 62.99654555 1.625 72.3125 C-7.75323707 80.17922633 -17.3052882 82.32889678 -29.375 81.3125 C-40.2081442 79.71743582 -47.86516341 75.88157503 -54.6875 67.25 C-58.74766042 61.34578266 -60.69671058 55.22477675 -62.375 48.3125 C-62.5493457 47.6736084 -62.72369141 47.0347168 -62.90332031 46.37646484 C-65.78944062 33.7474477 -63.34319227 19.35915137 -56.625 8.4375 C-42.8188695 -10.4678797 -19.06468444 -12.84396207 0 0 Z " fill="#020202" transform="translate(1428.375,201.6875)"/>
<path d="M0 0 C0.63808594 0.31710938 1.27617188 0.63421875 1.93359375 0.9609375 C11.5632589 6.25443764 18.46996845 15.3313264 21.6875 25.75 C25.37084893 40.13073465 23.36239467 54.5364972 16.8125 67.75 C11.37538223 76.77860842 3.98025725 83.00148998 -6.26171875 85.56640625 C-17.91771297 87.41207723 -28.08997598 86.92470623 -38 80 C-46.46368679 73.60450735 -51.31536229 63.63798309 -53.52734375 53.42578125 C-55.54921337 38.77140395 -54.80234065 23.27144289 -45.6953125 10.9609375 C-34.43881535 -2.05925045 -16.11259344 -8.3440216 0 0 Z " fill="#020202" transform="translate(1269,197)"/>
<path d="M0 0 C9.24 0 18.48 0 28 0 C28 60.72 28 121.44 28 184 C18.76 184 9.52 184 0 184 C0 123.28 0 62.56 0 0 Z " fill="#FAFAFA" transform="translate(1631,122)"/>
<path d="M0 0 C9.24 0 18.48 0 28 0 C28 60.72 28 121.44 28 184 C18.76 184 9.52 184 0 184 C0 123.28 0 62.56 0 0 Z " fill="#FAFAFA" transform="translate(1141,122)"/>
<path d="M0 0 C1.96873974 0.01507681 3.93749067 0.0287599 5.90625 0.04101562 C10.68778058 0.07377745 15.46876423 0.12539362 20.25 0.1875 C20.29856087 13.33661096 17.78827136 21.89021338 8.3125 31.4375 C-0.4791404 38.80068291 -11.92889808 41.14316435 -23.15625 40.7421875 C-30.09954809 39.67050453 -36.28547278 36.92350698 -41.01953125 31.66796875 C-44.71644133 26.36878614 -44.33691045 20.42032362 -43.75 14.1875 C-41.17075118 8.73139672 -37.18522078 4.55320973 -31.54785156 2.31201172 C-21.15922366 -0.6488045 -10.6966712 -0.14316252 0 0 Z " fill="#020203" transform="translate(1556.75,244.8125)"/>
<path d="M0 0 C1.98 0.33 3.96 0.66 6 1 C4.35811429 2.69661523 2.69244411 4.35413692 1 6 C0.37609375 6.6084375 -0.2478125 7.216875 -0.890625 7.84375 C-9.28170545 15.70672049 -18.64567035 22.34006495 -28 29 C-28.59184082 29.42812988 -29.18368164 29.85625977 -29.79345703 30.29736328 C-33.37885102 32.81481491 -35.59664204 33.41936743 -40 33 C-40.33 31.68 -40.66 30.36 -41 29 C-39.906875 28.773125 -38.81375 28.54625 -37.6875 28.3125 C-33.91701391 27.33665858 -33.91701391 27.33665858 -32.0625 24.5625 C-30.80849249 22.00046938 -30.80849249 22.00046938 -31 19 C-29.4221875 19.3403125 -29.4221875 19.3403125 -27.8125 19.6875 C-23.55498117 20.03647695 -22.375443 19.41103071 -19 17 C-18.34 17 -17.68 17 -17 17 C-17 15.02 -17 13.04 -17 11 C-16.01 11.33 -15.02 11.66 -14 12 C-11.78508786 11.5596445 -11.78508786 11.5596445 -10 10 C-9.18415432 6.94091587 -9.18415432 6.94091587 -9 4 C-7.88625 3.896875 -6.7725 3.79375 -5.625 3.6875 C-4.42875 3.460625 -3.2325 3.23375 -2 3 C-1.34 2.01 -0.68 1.02 0 0 Z " fill="#DB1A1D" transform="translate(233,213)"/>
<path d="M0 0 C0.33 0 0.66 0 1 0 C1.78287497 6.10642479 -0.89174849 10.00459579 -4 15 C-3.34 15.33 -2.68 15.66 -2 16 C-2.56775536 17.29858939 -3.15491663 18.58870441 -3.75 19.875 C-4.07484375 20.59429687 -4.3996875 21.31359375 -4.734375 22.0546875 C-6.23606028 24.3628334 -7.57646172 24.80529803 -10 26 C-11.91463538 30.94367261 -11.91463538 30.94367261 -11 36 C-11.77734375 37.9375 -11.77734375 37.9375 -12.9375 40 C-14.46769739 42.73879397 -15 43.77775564 -15 47 C-16.98 47.495 -16.98 47.495 -19 48 C-17.33786359 30.71035423 -12.08262795 16.76147494 -3 2 C-2.01 2 -1.02 2 0 2 C0 1.34 0 0.68 0 0 Z " fill="#D71616" transform="translate(106,248)"/>
<path d="M0 0 C14.39044898 -0.86342694 23.76349205 0.56321278 35.1875 10.125 C38.06256801 12.70479075 39.25221572 14.23841845 40 18 C40.66 18.99 41.32 19.98 42 21 C41.625 23.1875 41.625 23.1875 41 25 C40.505 24.01 40.505 24.01 40 23 C39.01 23.33 38.02 23.66 37 24 C36.505 23.01 36.505 23.01 36 22 C36.33 21.34 36.66 20.68 37 20 C36.01 20.33 35.02 20.66 34 21 C34.33 18.69 34.66 16.38 35 14 C34.401875 13.896875 33.80375 13.79375 33.1875 13.6875 C30.66608978 12.89505679 29.80534232 11.88056492 28 10 C25.90010348 8.82425289 25.90010348 8.82425289 24 8 C24 7.34 24 6.68 24 6 C23.24074219 6.02320313 22.48148437 6.04640625 21.69921875 6.0703125 C20.70535156 6.08835937 19.71148437 6.10640625 18.6875 6.125 C17.20830078 6.15980469 17.20830078 6.15980469 15.69921875 6.1953125 C13 6 13 6 10 4 C10 3.67 10 3.34 10 3 C7.03 2.505 7.03 2.505 4 2 C4 2.66 4 3.32 4 4 C3.34 4 2.68 4 2 4 C2 3.34 2 2.68 2 2 C1.34 2 0.68 2 0 2 C0 1.34 0 0.68 0 0 Z " fill="#E0201A" transform="translate(294,272)"/>
<path d="M0 0 C5.26732053 7.90098079 4.02468284 20.30677169 2.63378906 29.39208984 C0.39281466 39.95169168 -4.26469316 54.26469316 -12 62 C-12 60.68 -12 59.36 -12 58 C-11.34 58 -10.68 58 -10 58 C-10 56.35 -10 54.7 -10 53 C-9.34 53 -8.68 53 -8 53 C-7.87625 51.865625 -7.7525 50.73125 -7.625 49.5625 C-7.315625 47.7990625 -7.315625 47.7990625 -7 46 C-6.01 45.505 -6.01 45.505 -5 45 C-4.56681377 41.85910095 -4.56681377 41.85910095 -4.4375 38.1875 C-4.24086643 34.31502253 -4.05322354 30.73415619 -3 27 C-3 26.34 -3 25.68 -3 25 C-2.34 25 -1.68 25 -1 25 C-1.33 20.38 -1.66 15.76 -2 11 C-1.34 11.33 -0.68 11.66 0 12 C0.26932521 7.34947128 0.26932521 7.34947128 -1 3 C-0.67 2.01 -0.34 1.02 0 0 Z " fill="#DF1E25" transform="translate(307,84)"/>
<path d="M0 0 C3 1 3 1 4 3 C4.33 2.34 4.66 1.68 5 1 C5.66 1 6.32 1 7 1 C7.1875 3.375 7.1875 3.375 7 6 C6.01 6.66 5.02 7.32 4 8 C2.80767387 10.05003955 2.80767387 10.05003955 2 12 C1.01 12 0.02 12 -1 12 C-0.896875 12.7425 -0.79375 13.485 -0.6875 14.25 C-1 17 -1 17 -3.0625 19.25 C-6.50665885 21.30183931 -9.00691393 21.85210792 -13 22 C-13.99 21.34 -14.98 20.68 -16 20 C-15.236875 19.71125 -14.47375 19.4225 -13.6875 19.125 C-10.84970692 18.03730987 -10.84970692 18.03730987 -8 16 C-7.34 16 -6.68 16 -6 16 C-4.92474806 13.34771188 -3.90543849 10.71631546 -3 8 C-1.68 8.33 -0.36 8.66 1 9 C0.67 8.34 0.34 7.68 0 7 C-0.04022391 4.6670134 -0.04320247 2.33293334 0 0 Z " fill="#DF1A1B" transform="translate(328,328)"/>
<path d="M0 0 C0.33 0 0.66 0 1 0 C0.67 2.31 0.34 4.62 0 7 C-0.99 7.33 -1.98 7.66 -3 8 C-3.0825 9.155 -3.165 10.31 -3.25 11.5 C-3.84979297 16.10936792 -5.05678037 20.32326769 -8 24 C-11.25 25 -11.25 25 -14 25 C-13.70867187 24.27683594 -13.41734375 23.55367187 -13.1171875 22.80859375 C-12.42026161 21.05653182 -11.7357545 19.29941634 -11.0703125 17.53515625 C-9.18244439 12.59705494 -7.35853441 8.11691314 -4 4 C-3.01 4 -2.02 4 -1 4 C-0.67 2.68 -0.34 1.36 0 0 Z " fill="#D91314" transform="translate(174,128)"/>
<path d="M0 0 C0.33 0 0.66 0 1 0 C1 2.31 1 4.62 1 7 C0.0409375 7.37125 0.0409375 7.37125 -0.9375 7.75 C-3.13144244 8.80770763 -3.13144244 8.80770763 -3.8125 10.875 C-4.01502672 13.17030283 -3.70156953 14.81733924 -3 17 C-3.99 17.33 -4.98 17.66 -6 18 C-6.474375 19.134375 -6.94875 20.26875 -7.4375 21.4375 C-9.09463348 25.21576434 -9.44316011 25.54658904 -13 27 C-12.55037804 25.03964825 -12.09001752 23.08175691 -11.625 21.125 C-11.36976562 20.03445312 -11.11453125 18.94390625 -10.8515625 17.8203125 C-10 15 -10 15 -8 13 C-7.52419612 11.6798505 -7.09027502 10.34423075 -6.6875 9 C-5.35044549 5.19559748 -5.35044549 5.19559748 -2.3125 3.5 C-1.1678125 3.2525 -1.1678125 3.2525 0 3 C0 2.01 0 1.02 0 0 Z M-15 27 C-14.34 27.33 -13.68 27.66 -13 28 C-13.99 28.99 -14.98 29.98 -16 31 C-15.67 29.68 -15.34 28.36 -15 27 Z " fill="#E11215" transform="translate(134,199)"/>
<path d="M0 0 C0.99 0 1.98 0 3 0 C2.39816251 2.02045442 1.72693904 4.02111039 1 6 C0.01 6.495 0.01 6.495 -1 7 C-1.72886734 9.7696959 -2 12.12862585 -2 15 C-2.33 15.66 -2.66 16.32 -3 17 C-2.34 17 -1.68 17 -1 17 C-2.27446435 19.5489287 -3.46363493 19.80641644 -6 21 C-6.99 21.66 -7.98 22.32 -9 23 C-9 16.60238776 -8.98383421 11.20962935 -5 6 C-4.01 5.34 -3.02 4.68 -2 4 C-0.80767387 1.94996045 -0.80767387 1.94996045 0 0 Z " fill="#D91215" transform="translate(145,178)"/>
<path d="M0 0 C1.65 0 3.3 0 5 0 C4.649375 0.94875 4.29875 1.8975 3.9375 2.875 C2.64973223 5.87060172 2.64973223 5.87060172 4 8 C4.66 8.33 5.32 8.66 6 9 C5.34 9 4.68 9 4 9 C4.33 10.32 4.66 11.64 5 13 C5.66 13 6.32 13 7 13 C7.33 13.66 7.66 14.32 8 15 C10.52733235 15.65555119 10.52733235 15.65555119 13 16 C12 19 12 19 9.9375 20.1875 C9.298125 20.455625 8.65875 20.72375 8 21 C8 20.34 8 19.68 8 19 C7.34 19 6.68 19 6 19 C5.34 17.35 4.68 15.7 4 14 C3.34 14 2.68 14 2 14 C-1.62870159 4.58997722 -1.62870159 4.58997722 0 0 Z " fill="#EA0F15" transform="translate(91,312)"/>
<path d="M0 0 C0 0.33 0 0.66 0 1 C-23.13746065 3.64428122 -23.13746065 3.64428122 -29 0 C-19.60428905 -3.95608882 -9.70453808 -1.70361797 0 0 Z " fill="#E11009" transform="translate(269,47)"/>
<path d="M0 0 C0.66 0 1.32 0 2 0 C3.38058774 5.00463055 2.71762223 8.13340368 1 13 C0.71125 14.0725 0.4225 15.145 0.125 16.25 C-1.18584414 19.45428568 -1.94987781 19.69104068 -5 21 C-4.41576994 13.75554731 -3.28533279 6.57066558 0 0 Z " fill="#E20D11" transform="translate(92,275)"/>
<path d="M0 0 C-0.66 1.32 -1.32 2.64 -2 4 C-2.66 4 -3.32 4 -4 4 C-4.2475 4.5775 -4.495 5.155 -4.75 5.75 C-6.18299988 8.32939979 -7.78424676 10.06121592 -10 12 C-10.66 12 -11.32 12 -12 12 C-12.33 12.99 -12.66 13.98 -13 15 C-13.99 15.33 -14.98 15.66 -16 16 C-16.33 15.01 -16.66 14.02 -17 13 C-16.34 12.67 -15.68 12.34 -15 12 C-14.34 12.33 -13.68 12.66 -13 13 C-13 12.34 -13 11.68 -13 11 C-13.66 10.67 -14.32 10.34 -15 10 C-13.35 9.67 -11.7 9.34 -10 9 C-10 7.68 -10 6.36 -10 5 C-8.57421875 3.515625 -8.57421875 3.515625 -6.6875 2.25 C-6.07261719 1.82203125 -5.45773437 1.3940625 -4.82421875 0.953125 C-3 0 -3 0 0 0 Z " fill="#CE1F25" transform="translate(263,190)"/>
<path d="M0 0 C0.66 0 1.32 0 2 0 C8.85603362 11.72856066 10.34393143 19.39560107 10 33 C9.67 33 9.34 33 9 33 C8.67 28.38 8.34 23.76 8 19 C7.34 19 6.68 19 6 19 C5.81824219 18.10796875 5.63648438 17.2159375 5.44921875 16.296875 C5.19785156 15.12640625 4.94648438 13.9559375 4.6875 12.75 C4.32205078 11.00976562 4.32205078 11.00976562 3.94921875 9.234375 C3.03442176 6.11728897 2.0223152 4.46983033 0 2 C0 1.34 0 0.68 0 0 Z " fill="#D3222F" transform="translate(332,287)"/>
<path d="M0 0 C0.66 1.32 1.32 2.64 2 4 C1.01 5.485 1.01 5.485 0 7 C-0.99 7 -1.98 7 -3 7 C-3.103125 7.556875 -3.20625 8.11375 -3.3125 8.6875 C-4.14898763 11.50114022 -5.28217263 13.62146979 -7 16 C-7.99 16 -8.98 16 -10 16 C-9.67 14.35 -9.34 12.7 -9 11 C-8.01 10.67 -7.02 10.34 -6 10 C-6.33 9.01 -6.66 8.02 -7 7 C-6.8125 4.9375 -6.8125 4.9375 -6 3 C-4.0625 1.6875 -4.0625 1.6875 -2 1 C-1.34 1.33 -0.68 1.66 0 2 C0 1.34 0 0.68 0 0 Z " fill="#E01014" transform="translate(118,231)"/>
<path d="M0 0 C2.04294823 5.33720224 -1.04604112 10.18646886 -3.16162109 15.12548828 C-5.57221949 20.51528867 -8.27581667 25.7636015 -11 31 C-11.33 29.68 -11.66 28.36 -12 27 C-11.34 27 -10.68 27 -10 27 C-10 25.35 -10 23.7 -10 22 C-9.34 22 -8.68 22 -8 22 C-7.814375 20.2984375 -7.814375 20.2984375 -7.625 18.5625 C-7.41875 17.386875 -7.2125 16.21125 -7 15 C-6.34 14.67 -5.68 14.34 -5 14 C-4.42145148 12.04722151 -4.42145148 12.04722151 -4.0625 9.75 C-3.3089628 5.97025738 -2.25935897 3.18364218 0 0 Z " fill="#CC242C" transform="translate(307,115)"/>
<path d="M0 0 C4.29 0 8.58 0 13 0 C13.33 0.66 13.66 1.32 14 2 C15.89533342 2.46523063 15.89533342 2.46523063 18.0625 2.625 C19.361875 2.74875 20.66125 2.8725 22 3 C22 3.66 22 4.32 22 5 C20.56465159 5.2226746 19.12654475 5.42761906 17.6875 5.625 C16.88699219 5.74101562 16.08648437 5.85703125 15.26171875 5.9765625 C13 6 13 6 10 4 C10 3.67 10 3.34 10 3 C7.03 2.505 7.03 2.505 4 2 C4 2.66 4 3.32 4 4 C3.34 4 2.68 4 2 4 C2 3.34 2 2.68 2 2 C1.34 2 0.68 2 0 2 C0 1.34 0 0.68 0 0 Z " fill="#E6140F" transform="translate(294,272)"/>
<path d="M0 0 C5.57232741 1.15289533 9.57999608 2.35349677 14 6 C14 6.99 14 7.98 14 9 C12.35 9 10.7 9 9 9 C8.67 8.34 8.34 7.68 8 7 C4.82109196 4.99846531 1.68746328 4.5028359 -2 4 C-1.34 2.68 -0.68 1.36 0 0 Z " fill="#DE1B18" transform="translate(274,49)"/>
<path d="M0 0 C1 3 1 3 -0.4375 6.625 C-3.13807312 11.75895173 -7.02101734 15.82786284 -11 20 C-11.33 18.68 -11.66 17.36 -12 16 C-10.68 15.34 -9.36 14.68 -8 14 C-8 13.01 -8 12.02 -8 11 C-7.01 10.67 -6.02 10.34 -5 10 C-5 8.02 -5 6.04 -5 4 C-3.68 4 -2.36 4 -1 4 C-0.67 2.68 -0.34 1.36 0 0 Z " fill="#D42932" transform="translate(339,324)"/>
<path d="M0 0 C-0.33 1.65 -0.66 3.3 -1 5 C-4.63 5 -8.26 5 -12 5 C-11.34 4.67 -10.68 4.34 -10 4 C-10 3.34 -10 2.68 -10 2 C-6.3558226 -0.4294516 -4.28758728 -0.16179575 0 0 Z " fill="#C2230B" transform="translate(180,275)"/>
<path d="M0 0 C0.66 0 1.32 0 2 0 C2 1.98 2 3.96 2 6 C1.01 6.495 1.01 6.495 0 7 C-0.72693904 8.97888961 -1.39816251 10.97954558 -2 13 C-2.66 13 -3.32 13 -4 13 C-4.45374191 7.32822615 -3.65083143 4.4024732 0 0 Z " fill="#DD1215" transform="translate(184,108)"/>
<path d="M0 0 C0.99 0 1.98 0 3 0 C1.37815499 3.58513106 -0.79256239 6.58992323 -3.125 9.75 C-3.84945313 10.73484375 -4.57390625 11.7196875 -5.3203125 12.734375 C-5.87460937 13.48203125 -6.42890625 14.2296875 -7 15 C-8.13583456 11.28272326 -7.66670026 9.52948291 -6 6 C-5.34 6 -4.68 6 -4 6 C-4 5.34 -4 4.68 -4 4 C-3.01 3.34 -2.02 2.68 -1 2 C-0.67 1.34 -0.34 0.68 0 0 Z " fill="#CE1D29" transform="translate(279,166)"/>
<path d="M0 0 C0.66 0 1.32 0 2 0 C2.66 1.65 3.32 3.3 4 5 C5.32 5 6.64 5 8 5 C8.66 5 9.32 5 10 5 C10.12375 5.804375 10.2475 6.60875 10.375 7.4375 C10.58125 8.283125 10.7875 9.12875 11 10 C11.66 10.33 12.32 10.66 13 11 C12.34 11 11.68 11 11 11 C10.67 11.66 10.34 12.32 10 13 C5.68496083 9.00415551 2.2948164 5.53455721 0 0 Z " fill="#DE2027" transform="translate(93,326)"/>
<path d="M0 0 C2.31 0 4.62 0 7 0 C7 1.98 7 3.96 7 6 C6.01 6.33 5.02 6.66 4 7 C4 7.66 4 8.32 4 9 C3.34 9 2.68 9 2 9 C2 7.68 2 6.36 2 5 C1.34 4.67 0.68 4.34 0 4 C0 2.68 0 1.36 0 0 Z " fill="#E21612" transform="translate(240,200)"/>
<path d="M0 0 C2.81228361 0.35536481 3.82581484 0.80350348 5.73828125 2.9609375 C6.25777344 3.75757812 6.77726562 4.55421875 7.3125 5.375 C7.84488281 6.16648437 8.37726563 6.95796875 8.92578125 7.7734375 C10 10 10 10 9 13 C8.34 11.02 7.68 9.04 7 7 C6.54625 7.495 6.0925 7.99 5.625 8.5 C4 10 4 10 2 10 C2 9.34 2 8.68 2 8 C2.66 8 3.32 8 4 8 C4 7.01 4 6.02 4 5 C3.01 4.67 2.02 4.34 1 4 C0.3125 1.9375 0.3125 1.9375 0 0 Z " fill="#DE2629" transform="translate(295,65)"/>
<path d="M0 0 C0 0.99 0 1.98 0 3 C-1.1446875 3.2165625 -1.1446875 3.2165625 -2.3125 3.4375 C-5.08172908 3.9632594 -5.08172908 3.9632594 -8 5 C-8 5.66 -8 6.32 -8 7 C-8.66 7 -9.32 7 -10 7 C-10 6.34 -10 5.68 -10 5 C-10.66 4.67 -11.32 4.34 -12 4 C-8.81646865 0.10901724 -4.81837115 -1.60612372 0 0 Z " fill="#D41517" transform="translate(230,53)"/>
<path d="M0 0 C1.125 1.6875 1.125 1.6875 2 4 C1.125 6.75 1.125 6.75 0 9 C-2.31 9 -4.62 9 -7 9 C-7 7.35 -7 5.7 -7 4 C-5 4 -3 4 -1 4 C-0.67 2.68 -0.34 1.36 0 0 Z " fill="#DF1519" transform="translate(271,172)"/>
<path d="M0 0 C-0.99 0 -1.98 0 -3 0 C-3.433125 0.928125 -3.433125 0.928125 -3.875 1.875 C-5 4 -5 4 -7 6 C-9.1640625 6.4140625 -9.1640625 6.4140625 -11.625 6.625 C-12.44226563 6.69976562 -13.25953125 6.77453125 -14.1015625 6.8515625 C-14.72804687 6.90054688 -15.35453125 6.94953125 -16 7 C-11.99405619 2.32639889 -6.27505804 -2.17105803 0 0 Z " fill="#BB1918" transform="translate(239,47)"/>
<path d="M0 0 C5.94 0 11.88 0 18 0 C17.67 0.66 17.34 1.32 17 2 C11.48452632 3.26396272 6.56220441 2.81982605 1 2 C0.67 2.66 0.34 3.32 0 4 C0 2.68 0 1.36 0 0 Z " fill="#DF121F" transform="translate(180,272)"/>
<path d="M0 0 C0.33 0.66 0.66 1.32 1 2 C2.32 1.67 3.64 1.34 5 1 C1.32442148 5.00972202 -2.18966896 7.45335415 -7 10 C-7.33 9.34 -7.66 8.68 -8 8 C-7.01 7.67 -6.02 7.34 -5 7 C-5.33 6.01 -5.66 5.02 -6 4 C-4.02 3.34 -2.04 2.68 0 2 C0 1.34 0 0.68 0 0 Z " fill="#D92128" transform="translate(216,228)"/>
<path d="M0 0 C0.33 1.98 0.66 3.96 1 6 C-1.31 5.67 -3.62 5.34 -6 5 C-6.33 3.68 -6.66 2.36 -7 1 C-4 0 -4 0 0 0 Z " fill="#EB0F17" transform="translate(111,336)"/>
<path d="M0 0 C1.9375 0.375 1.9375 0.375 4 1 C4.33 1.66 4.66 2.32 5 3 C0.545 5.97 0.545 5.97 -4 9 C-4.66 8.67 -5.32 8.34 -6 8 C-6.625 5.9375 -6.625 5.9375 -7 4 C-6.34 3.67 -5.68 3.34 -5 3 C-4.67 3.66 -4.34 4.32 -4 5 C-2.68 5 -1.36 5 0 5 C0 3.35 0 1.7 0 0 Z " fill="#DA2125" transform="translate(189,246)"/>
<path d="M0 0 C1.32 0 2.64 0 4 0 C2.58832253 5.26170694 0.25149768 8.72171358 -3 13 C-3.99 11.68 -4.98 10.36 -6 9 C-5.34 8.67 -4.68 8.34 -4 8 C-3.34 8.33 -2.68 8.66 -2 9 C-2 7.35 -2 5.7 -2 4 C-1.01 4.33 -0.02 4.66 1 5 C0.67 3.35 0.34 1.7 0 0 Z " fill="#CC2127" transform="translate(287,152)"/>
<path d="M0 0 C0.99 0 1.98 0 3 0 C3.2954439 5.02254631 2.98514628 7.89542386 0 12 C-0.66 11.67 -1.32 11.34 -2 11 C-2.24042276 6.91281305 -1.42258812 3.82320557 0 0 Z " fill="#E41C22" transform="translate(338,316)"/>
<path d="M0 0 C0.66 0 1.32 0 2 0 C2 0.66 2 1.32 2 2 C2.66 2 3.32 2 4 2 C3.79375 2.99 3.5875 3.98 3.375 5 C2.72137698 9.37837888 3.74542211 12.79347412 5 17 C2.36001029 15.68000515 2.29985024 14.63086688 1.375 11.875 C0.05373468 7.72529737 -0.27625262 4.32795771 0 0 Z " fill="#E21E22" transform="translate(88,308)"/>
<path d="M0 0 C1.26950234 3.0006419 0.98068499 4.05184556 -0.1875 7.1875 C-2 10 -2 10 -4.1875 10.875 C-5.0846875 10.936875 -5.0846875 10.936875 -6 11 C-5.33333333 9.33333333 -4.66666667 7.66666667 -4 6 C-3.505 4.63875 -3.505 4.63875 -3 3.25 C-2 1 -2 1 0 0 Z " fill="#E41113" transform="translate(166,142)"/>
<path d="M0 0 C0.99 0.66 1.98 1.32 3 2 C0.69 4.64 -1.62 7.28 -4 10 C-4.66 9.01 -5.32 8.02 -6 7 C-5.34 7 -4.68 7 -4 7 C-3.67 5.68 -3.34 4.36 -3 3 C-2.34 3 -1.68 3 -1 3 C-0.67 2.01 -0.34 1.02 0 0 Z " fill="#D21F25" transform="translate(268,180)"/>
<path d="M0 0 C2.31 0 4.62 0 7 0 C6.34 1.98 5.68 3.96 5 6 C3.35 6.33 1.7 6.66 0 7 C0 4.69 0 2.38 0 0 Z " fill="#E21518" transform="translate(258,184)"/>
<path d="M0 0 C1.67542976 0.28604898 3.34385343 0.61781233 5 1 C5 1.99 5 2.98 5 4 C0.71 4 -3.58 4 -8 4 C-8 3.67 -8 3.34 -8 3 C-6.865625 2.690625 -5.73125 2.38125 -4.5625 2.0625 C-1.21224901 1.37075469 -1.21224901 1.37075469 0 0 Z " fill="#E1121F" transform="translate(307,350)"/>
<path d="M0 0 C0.66 0.33 1.32 0.66 2 1 C0.48446596 4.47775179 -1.5773456 6.9557984 -4.125 9.75 C-5.21167969 10.94882812 -5.21167969 10.94882812 -6.3203125 12.171875 C-6.87460938 12.77515625 -7.42890625 13.3784375 -8 14 C-8.66 13.67 -9.32 13.34 -10 13 C-9.52949219 12.48050781 -9.05898437 11.96101563 -8.57421875 11.42578125 C-5.32559823 7.78705723 -2.30339528 4.33580287 0 0 Z " fill="#D2D1CD" transform="translate(1574,263)"/>
<path d="M0 0 C2.05078125 0.03255208 4.1015625 0.06510417 6.15234375 0.09765625 C5.16234375 0.42765625 4.17234375 0.75765625 3.15234375 1.09765625 C2.41910579 3.11273983 2.41910579 3.11273983 2.15234375 5.09765625 C0.83234375 5.09765625 -0.48765625 5.09765625 -1.84765625 5.09765625 C-2.41015625 3.16015625 -2.41015625 3.16015625 -2.84765625 1.09765625 C-1.84765625 0.09765625 -1.84765625 0.09765625 0 0 Z " fill="#E31715" transform="translate(194.84765625,240.90234375)"/>
<path d="M0 0 C1.32 0 2.64 0 4 0 C2.49776416 4.20626034 -0.28550034 5.73900021 -4 8 C-4.33 6.02 -4.66 4.04 -5 2 C-2.03 2.495 -2.03 2.495 1 3 C0.67 2.01 0.34 1.02 0 0 Z " fill="#CE1D22" transform="translate(243,206)"/>
<path d="M0 0 C1.0625 1.8125 1.0625 1.8125 2 4 C1.67 4.99 1.34 5.98 1 7 C0.34 7 -0.32 7 -1 7 C-1.33 7.66 -1.66 8.32 -2 9 C-2.66 7.35 -3.32 5.7 -4 4 C-2.68 2.68 -1.36 1.36 0 0 Z " fill="#CF100F" transform="translate(215,59)"/>
<path d="M0 0 C-0.6875 2.4375 -0.6875 2.4375 -2 5 C-4.4375 5.9375 -4.4375 5.9375 -7 6 C-7.99 5.34 -8.98 4.68 -10 4 C-9.236875 3.71125 -8.47375 3.4225 -7.6875 3.125 C-0.22222222 0 -0.22222222 0 0 0 Z " fill="#E31113" transform="translate(322,344)"/>
<path d="M0 0 C0.66 0 1.32 0 2 0 C2.67354499 1.43429001 3.33859701 2.87257057 4 4.3125 C4.556875 5.51326172 4.556875 5.51326172 5.125 6.73828125 C6 9 6 9 6 12 C5.34 12 4.68 12 4 12 C3.67 10.02 3.34 8.04 3 6 C2.01 6 1.02 6 0 6 C0 4.02 0 2.04 0 0 Z " fill="#E2141E" transform="translate(300,72)"/>
<path d="M0 0 C1.85776765 3.13498292 2.20140476 5.37471432 2 9 C0.68 9.33 -0.64 9.66 -2 10 C-1.85950482 8.52031676 -1.71245174 7.04125484 -1.5625 5.5625 C-1.48128906 4.73878906 -1.40007812 3.91507812 -1.31640625 3.06640625 C-1 1 -1 1 0 0 Z " fill="#EC0914" transform="translate(89,286)"/>
<path d="M0 0 C2.03833424 1.2739589 4.03852126 2.61061923 6 4 C6 4.66 6 5.32 6 6 C6.66 6 7.32 6 8 6 C9.625 8.5 9.625 8.5 11 11 C9.68 10.34 8.36 9.68 7 9 C7 8.34 7 7.68 7 7 C6.34 7 5.68 7 5 7 C5 6.34 5 5.68 5 5 C3.68 4.67 2.36 4.34 1 4 C0.67 2.68 0.34 1.36 0 0 Z " fill="#EA1913" transform="translate(324,281)"/>
<path d="M0 0 C2.31 0 4.62 0 7 0 C4.22719294 3.08089673 1.93673644 4.68775452 -2 6 C-1.34 4.02 -0.68 2.04 0 0 Z " fill="#DA2223" transform="translate(199,240)"/>
<path d="M0 0 C0.625 1.875 0.625 1.875 1 4 C0.34 4.66 -0.32 5.32 -1 6 C-1.39764263 7.98821313 -1.73775349 9.98944339 -2 12 C-3.32 12.33 -4.64 12.66 -6 13 C-4.31326082 8.50202887 -2.18326108 4.27113698 0 0 Z " fill="#B31B18" transform="translate(126,208)"/>
<path d="M0 0 C1.45606519 4.52092968 0.27032841 7.51648796 -1 12 C-3 9 -3 9 -4 7 C-3.22265625 5.2734375 -3.22265625 5.2734375 -2.0625 3.375 C-1.381875 2.26125 -0.70125 1.1475 0 0 Z " fill="#C21214" transform="translate(192,92)"/>
<path d="M0 0 C1.9375 0.75 1.9375 0.75 4 2 C4.75 4.125 4.75 4.125 5 6 C1.22454612 4.90931332 -1.47043472 4.0916909 -4 1 C-2.68 1.33 -1.36 1.66 0 2 C0 1.34 0 0.68 0 0 Z " fill="#D0171F" transform="translate(117,345)"/>
<path d="M0 0 C0.33 0 0.66 0 1 0 C1.36923077 5.53846154 1.36923077 5.53846154 -0.5 7.875 C-1.2425 8.431875 -1.2425 8.431875 -2 9 C-2.66 8.67 -3.32 8.34 -4 8 C-4 7.34 -4 6.68 -4 6 C-3.34 6 -2.68 6 -2 6 C-2 4.68 -2 3.36 -2 2 C-1.34 2 -0.68 2 0 2 C0 1.34 0 0.68 0 0 Z " fill="#E21013" transform="translate(106,248)"/>
<path d="M0 0 C0 0.66 0 1.32 0 2 C-1.65 2.33 -3.3 2.66 -5 3 C-5 3.99 -5 4.98 -5 6 C-5.66 6 -6.32 6 -7 6 C-7 4.02 -7 2.04 -7 0 C-3.98968256 -0.93423645 -3.13349732 -1.04449911 0 0 Z " fill="#DE1711" transform="translate(231,217)"/>
<path d="M0 0 C0 1.65 0 3.3 0 5 C-2.9375 4.625 -2.9375 4.625 -6 4 C-6.33 3.34 -6.66 2.68 -7 2 C-2.25 0 -2.25 0 0 0 Z " fill="#E31612" transform="translate(239,209)"/>
<path d="M0 0 C0.33 0 0.66 0 1 0 C1.1875 2.375 1.1875 2.375 1 5 C0.01 5.66 -0.98 6.32 -2 7 C-2.33 7.99 -2.66 8.98 -3 10 C-3.99 10.33 -4.98 10.66 -6 11 C-4.55007731 6.89188572 -2.54592427 3.53144334 0 0 Z " fill="#BC1C1D" transform="translate(179,116)"/>
<path d="M0 0 C1.32 0.33 2.64 0.66 4 1 C4 1.66 4 2.32 4 3 C5.65 3.33 7.3 3.66 9 4 C6.00468461 4.99843846 4.82744268 5.00732761 1.8125 4.5625 C0.554375 4.376875 -0.70375 4.19125 -2 4 C-1.34 2.68 -0.68 1.36 0 0 Z " fill="#E81011" transform="translate(274,49)"/>
<path d="M0 0 C0 0.99 0 1.98 0 3 C0.99 3.33 1.98 3.66 3 4 C-5.57142857 3.14285714 -5.57142857 3.14285714 -9 1 C-5.94152152 0.45627049 -3.11227195 0 0 0 Z " fill="#CD1B26" transform="translate(131,350)"/>
<path d="M0 0 C2.3431213 0.25561323 4.67843403 0.59270772 7 1 C7.33 1.66 7.66 2.32 8 3 C7.67 3.66 7.34 4.32 7 5 C3.34683329 3.75023244 2.21934164 3.32901247 0 0 Z " fill="#DE1B25" transform="translate(106,341)"/>
<path d="M0 0 C0.66 1.32 1.32 2.64 2 4 C1.01 5.485 1.01 5.485 0 7 C-0.99 7 -1.98 7 -3 7 C-2.38722388 4.03824877 -1.74627478 2.61941217 0 0 Z " fill="#E10F10" transform="translate(150,170)"/>
<path d="M0 0 C0.99 0.33 1.98 0.66 3 1 C2.67 1.99 2.34 2.98 2 4 C1.34 4 0.68 4 0 4 C-0.33 5.32 -0.66 6.64 -1 8 C-1.66 6.02 -2.32 4.04 -3 2 C-2.01 1.34 -1.02 0.68 0 0 Z " fill="#DE171D" transform="translate(300,126)"/>
<path d="M0 0 C0.99 0 1.98 0 3 0 C2.75 2.375 2.75 2.375 2 5 C-0.0625 6.3125 -0.0625 6.3125 -2 7 C-1.42415568 4.61435923 -0.77772405 2.33317216 0 0 Z " fill="#E30D1B" transform="translate(208,68)"/>
<path d="M0 0 C2.31 0 4.62 0 7 0 C7 0.99 7 1.98 7 3 C4.69 3 2.38 3 0 3 C0 2.01 0 1.02 0 0 Z " fill="#E5150F" transform="translate(176,252)"/>
<path d="M0 0 C0.99 0.33 1.98 0.66 3 1 C3 1.66 3 2.32 3 3 C2.34 3 1.68 3 1 3 C0.67 4.32 0.34 5.64 0 7 C-0.99 6.67 -1.98 6.34 -3 6 C-1.125 1.125 -1.125 1.125 0 0 Z " fill="#DC1318" transform="translate(285,154)"/>
<path d="M0 0 C0.99 0.33 1.98 0.66 3 1 C3 1.99 3 2.98 3 4 C2.34 4 1.68 4 1 4 C1 5.65 1 7.3 1 9 C0.01 8.67 -0.98 8.34 -2 8 C-2 7.34 -2 6.68 -2 6 C-1.34 6 -0.68 6 0 6 C0 4.02 0 2.04 0 0 Z " fill="#DE131D" transform="translate(296,133)"/>
<path d="M0 0 C0.99 0.33 1.98 0.66 3 1 C3 1.99 3 2.98 3 4 C0.36 4 -2.28 4 -5 4 C-3.36587557 2.29159719 -2.13093906 1.06546953 0 0 Z " fill="#DF110E" transform="translate(227,52)"/>
<path d="M0 0 C2.31 0 4.62 0 7 0 C4.60490662 2.89932357 2.68754757 3.50168276 -1 4 C-0.67 2.68 -0.34 1.36 0 0 Z " fill="#D31F2A" transform="translate(313,349)"/>
<path d="M0 0 C2 2 2 2 2 6 C1.34 6 0.68 6 0 6 C0 5.34 0 4.68 0 4 C-0.99 4 -1.98 4 -3 4 C-2.67 3.01 -2.34 2.02 -2 1 C-1.34 0.67 -0.68 0.34 0 0 Z " fill="#E21613" transform="translate(251,193)"/>
<path d="M0 0 C0.99 0 1.98 0 3 0 C2.34 1.98 1.68 3.96 1 6 C0.34 6 -0.32 6 -1 6 C-1.042721 4.33388095 -1.04063832 2.66617115 -1 1 C-0.67 0.67 -0.34 0.34 0 0 Z " fill="#E20E14" transform="translate(145,178)"/>
<path d="M0 0 C-0.75 4.75 -0.75 4.75 -3 7 C-3.33 5.02 -3.66 3.04 -4 1 C-2 0 -2 0 0 0 Z " fill="#D71A26" transform="translate(295,144)"/>
<path d="M0 0 C0.82638376 2.89234315 1 4.88742431 1 8 C0.01 8 -0.98 8 -2 8 C-1.125 1.125 -1.125 1.125 0 0 Z " fill="#DA0F18" transform="translate(170,132)"/>
<path d="M0 0 C0.33 0 0.66 0 1 0 C1 2.31 1 4.62 1 7 C0.01 7.33 -0.98 7.66 -2 8 C-2.125 5.125 -2.125 5.125 -2 2 C-1.34 1.34 -0.68 0.68 0 0 Z " fill="#E30D1A" transform="translate(178,121)"/>
<path d="M0 0 C0.66 0.33 1.32 0.66 2 1 C0.68 2.65 -0.64 4.3 -2 6 C-3.32 5.34 -4.64 4.68 -6 4 C-4.02 2.68 -2.04 1.36 0 0 Z " fill="#240407" transform="translate(197,246)"/>
<path d="M0 0 C-0.66 1.98 -1.32 3.96 -2 6 C-3.32 5.34 -4.64 4.68 -6 4 C-2.25 0 -2.25 0 0 0 Z " fill="#210306" transform="translate(205,242)"/>
<path d="M0 0 C0.33 1.32 0.66 2.64 1 4 C-0.9375 6.25 -0.9375 6.25 -3 8 C-3.66 7.67 -4.32 7.34 -5 7 C-3.35 4.69 -1.7 2.38 0 0 Z " fill="#2A0206" transform="translate(279,170)"/>
<path d="M0 0 C0.66 0 1.32 0 2 0 C1.67 1.98 1.34 3.96 1 6 C0.01 6 -0.98 6 -2 6 C-1.125 1.125 -1.125 1.125 0 0 Z " fill="#E61113" transform="translate(158,155)"/>
<path d="M0 0 C2 3 2 3 2 6 C-0.5 7.6875 -0.5 7.6875 -3 9 C-2.01 6.03 -1.02 3.06 0 0 Z " fill="#180207" transform="translate(301,134)"/>
<path d="M0 0 C0.66 0 1.32 0 2 0 C2.1875 2.875 2.1875 2.875 2 6 C1.01 6.66 0.02 7.32 -1 8 C-0.67 5.36 -0.34 2.72 0 0 Z " fill="#E10C18" transform="translate(193,92)"/>
<path d="M0 0 C0.33 0 0.66 0 1 0 C1 2.31 1 4.62 1 7 C0.01 7 -0.98 7 -2 7 C-2 5.35 -2 3.7 -2 2 C-1.34 2 -0.68 2 0 2 C0 1.34 0 0.68 0 0 Z " fill="#E30C18" transform="translate(202,78)"/>
</svg>
