<svg width="100" height="100" viewBox="0 0 38 42" fill="none" xmlns="http://www.w3.org/2000/svg" id="submittedIconSettlement">
<g clip-path="url(#clip0_4064_4054)">
<path d="M36.7361 22.3358L36.9146 22.4283V12.5267C36.9163 12.3763 36.8913 12.227 36.8411 12.0871C36.788 11.9442 36.7095 11.8144 36.6101 11.7054C36.5112 11.596 36.3934 11.5094 36.2637 11.4509C36.2218 11.4454 36.1795 11.4454 36.1377 11.4509L36.0852 11.3468L29.219 3.79339C29.2252 3.63887 29.2001 3.48476 29.1455 3.34227C29.0327 3.06431 28.8308 2.84192 28.5785 2.71763C28.4484 2.65935 28.3096 2.62797 28.1691 2.62508H16.8513C15.8197 2.61822 14.8219 3.02997 14.0481 3.78182C13.7307 4.09626 13.455 4.45841 13.2292 4.85758H4.26323C3.7013 4.84621 3.14343 4.96442 2.62541 5.20461C2.10371 5.436 1.62951 5.78048 1.23094 6.21763C0.832372 6.65477 0.517554 7.17567 0.305168 7.74941C0.0953287 8.32247 -0.00819748 8.93604 0.000700479 9.55391V34.6665C-0.00960752 35.2883 0.0939445 35.9059 0.305168 36.4826C0.517792 37.0577 0.831812 37.5806 1.22906 38.021C1.63252 38.4537 2.10619 38.799 2.62541 39.039C3.14554 39.2701 3.70244 39.3842 4.26323 39.3744H20.064C20.9431 39.3777 21.801 39.077 22.5168 38.5146C23.2325 37.9522 23.77 37.1565 24.0535 36.2397C25.4298 37.2457 27.0278 37.8218 28.6776 37.9067C30.3274 37.9915 31.9672 37.5819 33.4225 36.7215C34.8778 35.861 36.0941 34.5819 36.942 33.0203C37.7899 31.4587 38.2376 29.6731 38.2375 27.8534C38.2425 25.8912 37.7201 23.9713 36.7361 22.3358ZM29.219 6.22252L33.8909 11.3584H29.9854C29.8867 11.3583 29.7891 11.3356 29.6987 11.2918C29.6083 11.248 29.5272 11.184 29.4604 11.1039C29.3145 10.9532 29.2279 10.7457 29.219 10.5256V6.22252ZM16.8513 4.90385H27.1192V10.5256C27.13 11.3594 27.4355 12.1557 27.9707 12.7453C28.5059 13.3349 29.2286 13.6715 29.9854 13.6834H34.8043V19.9992C33.3347 18.7008 31.5356 17.9367 29.6551 17.8124C27.7747 17.6881 25.9055 18.2096 24.3055 19.3051V14.6782C24.3072 14.5278 24.2822 14.3785 24.232 14.2387C24.1792 14.0955 24.1009 13.9654 24.0017 13.8562C23.9026 13.7469 23.7845 13.6606 23.6546 13.6025H23.5811L16.7044 5.96803C16.7027 5.81688 16.6742 5.66755 16.6204 5.52849C16.5672 5.38831 16.4926 5.2592 16.3999 5.14677C16.3533 5.10802 16.3042 5.07323 16.2529 5.04266C16.4458 4.96684 16.6471 4.92013 16.8513 4.90385ZM21.3028 13.5562H17.4078C17.208 13.5474 17.0188 13.4553 16.8784 13.2985C16.738 13.1417 16.657 12.932 16.6519 12.7118V8.42032L21.3028 13.5562ZM22.2267 34.5971C22.2361 34.9097 22.186 35.2209 22.0798 35.5109C21.9777 35.8088 21.8162 36.0775 21.6073 36.2975C21.4058 36.5211 21.165 36.6969 20.8996 36.8143C20.6342 36.9316 20.3498 36.988 20.064 36.98H4.26323C3.97561 36.9896 3.68927 36.934 3.42197 36.8166C3.15467 36.6992 2.91213 36.5225 2.7094 36.2975C2.50708 36.0732 2.34866 35.8055 2.24393 35.511C2.1392 35.2166 2.09037 34.9016 2.10047 34.5856V9.47293C2.09181 9.15879 2.14135 8.84601 2.24604 8.55366C2.35073 8.26132 2.50839 7.99553 2.7094 7.77253C2.91554 7.55109 3.15775 7.3745 3.42332 7.25201C3.69029 7.1353 3.97615 7.08019 4.26323 7.09007H14.5311V12.7118C14.5392 13.5476 14.8435 14.3468 15.379 14.9389C15.9144 15.531 16.6387 15.8692 17.3973 15.8812H22.2162V21.2716C20.7683 23.0954 19.9702 25.4361 19.9702 27.8592C19.9702 30.2822 20.7683 32.623 22.2162 34.4468L22.2267 34.5971ZM29.114 36.1818C27.6189 36.1818 26.1574 35.6934 24.9143 34.7782C23.6712 33.8631 22.7024 32.5624 22.1302 31.0405C21.5581 29.5187 21.4084 27.8441 21.7001 26.2286C21.9917 24.613 22.7117 23.129 23.7688 21.9643C24.826 20.7995 26.1729 20.0063 27.6393 19.685C29.1056 19.3636 30.6255 19.5285 32.0067 20.1589C33.388 20.7892 34.5686 21.8567 35.3992 23.2263C36.2298 24.596 36.6731 26.2062 36.6731 27.8534C36.6704 30.0613 35.8731 32.1779 34.456 33.7391C33.039 35.3003 31.1179 36.1788 29.114 36.1818ZM25.3554 16.4017H28.7885C28.9973 16.4017 29.1976 16.3104 29.3453 16.1477C29.493 15.985 29.5759 15.7643 29.5759 15.5342C29.5759 15.3041 29.493 15.0834 29.3453 14.9207C29.1976 14.7581 28.9973 14.6667 28.7885 14.6667H25.3554C25.1466 14.6667 24.9463 14.7581 24.7986 14.9207C24.6509 15.0834 24.568 15.3041 24.568 15.5342C24.568 15.7643 24.6509 15.985 24.7986 16.1477C24.9463 16.3104 25.1466 16.4017 25.3554 16.4017ZM16.2004 28.0616H8.20029C7.99146 28.0616 7.79118 28.153 7.64351 28.3157C7.49584 28.4784 7.41288 28.6991 7.41288 28.9291C7.41288 29.1592 7.49584 29.3799 7.64351 29.5426C7.79118 29.7053 7.99146 29.7967 8.20029 29.7967H16.2004C16.4092 29.7967 16.6095 29.7053 16.7572 29.5426C16.9049 29.3799 16.9878 29.1592 16.9878 28.9291C16.9878 28.6991 16.9049 28.4784 16.7572 28.3157C16.6095 28.153 16.4092 28.0616 16.2004 28.0616ZM16.2004 23.0298H8.20029C7.99146 23.0298 7.79118 23.1212 7.64351 23.2839C7.49584 23.4466 7.41288 23.6673 7.41288 23.8974C7.41288 24.1274 7.49584 24.3481 7.64351 24.5108C7.79118 24.6735 7.99146 24.7649 8.20029 24.7649H16.2004C16.4092 24.7649 16.6095 24.6735 16.7572 24.5108C16.9049 24.3481 16.9878 24.1274 16.9878 23.8974C16.9878 23.6673 16.9049 23.4466 16.7572 23.2839C16.6095 23.1212 16.4092 23.0298 16.2004 23.0298ZM31.0038 23.2959C30.9219 23.3669 30.8537 23.455 30.803 23.5553C30.7523 23.6556 30.7201 23.7659 30.7084 23.88C30.6967 23.994 30.7056 24.1095 30.7347 24.2197C30.7638 24.3299 30.8124 24.4326 30.8778 24.522L33.072 27.5064H24.148C23.9392 27.5064 23.7389 27.5978 23.5912 27.7605C23.4436 27.9232 23.3606 28.1438 23.3606 28.3739C23.3606 28.604 23.4436 28.8247 23.5912 28.9874C23.7389 29.15 23.9392 29.2415 24.148 29.2415H33.135H33.2505L30.9618 32.3531C30.8312 32.5333 30.7702 32.7628 30.7918 32.9922C30.8134 33.2215 30.9159 33.4324 31.0773 33.5792C31.2205 33.705 31.398 33.7743 31.5812 33.7758C31.6979 33.7735 31.8128 33.7433 31.9179 33.6874C32.023 33.6315 32.1159 33.5512 32.1901 33.452L35.4133 29.0564C35.5258 28.9023 35.5871 28.7105 35.5871 28.5127C35.5871 28.315 35.5258 28.1232 35.4133 27.9691L32.1061 23.4462C31.9777 23.2657 31.7897 23.1486 31.5831 23.1204C31.3765 23.0922 31.1682 23.1553 31.0038 23.2959Z" fill="#0072CE"/>
</g>
<defs>
<clipPath id="clip0_4064_4054">
<rect width="100" height="100" fill="white"/>
</clipPath>
</defs>
</svg>
