<svg xmlns="http://www.w3.org/2000/svg" width="24" height="24" viewBox="0 0 24 24" fill="none"
    id="verifyYourAccountSettlement">
    <g clip-path="url(#clip0_4063_3706)">
        <path
            d="M23.2018 12.7633L23.3145 12.8162V7.15811C23.3155 7.07217 23.2998 6.98686 23.2681 6.90694C23.2345 6.82525 23.1849 6.75109 23.1222 6.68881C23.0597 6.62627 22.9853 6.57682 22.9034 6.5434C22.877 6.54021 22.8502 6.54021 22.8238 6.5434L22.7907 6.48391L18.4541 2.16765C18.458 2.07935 18.4422 1.99129 18.4077 1.90987C18.3364 1.75104 18.2089 1.62395 18.0496 1.55293C17.9674 1.51963 17.8797 1.5017 17.791 1.50005H10.6429C9.99139 1.49612 9.36118 1.73141 8.87251 2.16104C8.67201 2.34072 8.4979 2.54766 8.35531 2.77576H2.69257C2.33767 2.76926 1.98532 2.83681 1.65815 2.97406C1.32866 3.10629 1.02916 3.30313 0.777436 3.55293C0.525708 3.80273 0.326876 4.10038 0.192737 4.42823C0.0602076 4.7557 -0.00517736 5.10631 0.000442408 5.45938V19.8094C-0.00606791 20.1647 0.0593334 20.5177 0.192737 20.8472C0.327026 21.1758 0.525355 21.4746 0.77625 21.7263C1.03106 21.9736 1.33022 22.1709 1.65815 22.308C1.98666 22.4401 2.33838 22.5053 2.69257 22.4997H12.672C13.2272 22.5016 13.769 22.3297 14.2211 22.0084C14.6732 21.687 15.0126 21.2323 15.1917 20.7084C16.0609 21.2833 17.0702 21.6125 18.1122 21.661C19.1542 21.7094 20.1898 21.4754 21.109 20.9837C22.0281 20.492 22.7963 19.7611 23.3318 18.8688C23.8673 17.9764 24.1501 16.956 24.15 15.9162C24.1531 14.795 23.8232 13.6979 23.2018 12.7633ZM18.4541 3.55572L21.4048 6.49052H18.9381C18.8758 6.49044 18.8141 6.47748 18.7571 6.45245C18.7 6.42742 18.6488 6.39087 18.6066 6.3451C18.5144 6.25899 18.4597 6.14038 18.4541 6.0146V3.55572ZM10.6429 2.8022H17.1279V6.0146C17.1348 6.49106 17.3277 6.94609 17.6657 7.28303C18.0037 7.61997 18.4602 7.81227 18.9381 7.8191H21.9817V11.4281C21.0535 10.6861 19.9172 10.2495 18.7295 10.1785C17.5419 10.1075 16.3614 10.4055 15.3508 11.0315V8.38755C15.3519 8.30161 15.3361 8.2163 15.3044 8.13638C15.2711 8.05457 15.2216 7.98025 15.159 7.91781C15.0964 7.85537 15.0218 7.80608 14.9397 7.77284H14.8933L10.5501 3.41031C10.5491 3.32393 10.531 3.2386 10.4971 3.15914C10.4635 3.07903 10.4164 3.00526 10.3578 2.94101C10.3284 2.91887 10.2974 2.89899 10.265 2.88152C10.3868 2.83819 10.5139 2.8115 10.6429 2.8022ZM13.4544 7.74639H10.9944C10.8682 7.7414 10.7487 7.68876 10.66 7.59916C10.5714 7.50955 10.5202 7.38969 10.517 7.26387V4.81161L13.4544 7.74639ZM14.0379 19.7698C14.0438 19.9484 14.0122 20.1263 13.9451 20.292C13.8806 20.4622 13.7787 20.6157 13.6467 20.7414C13.5194 20.8692 13.3673 20.9697 13.1997 21.0367C13.0321 21.1038 12.8525 21.136 12.672 21.1314H2.69257C2.51091 21.1369 2.33006 21.1051 2.16124 21.038C1.99243 20.971 1.83924 20.87 1.7112 20.7414C1.58342 20.6132 1.48337 20.4603 1.41722 20.292C1.35107 20.1238 1.32023 19.9438 1.32661 19.7632V5.4131C1.32115 5.23359 1.35243 5.05486 1.41855 4.88781C1.48467 4.72075 1.58425 4.56887 1.7112 4.44145C1.84139 4.31491 1.99437 4.214 2.1621 4.144C2.33071 4.07732 2.51126 4.04582 2.69257 4.05147H9.17753V7.26387C9.18267 7.74148 9.37484 8.19817 9.71302 8.53653C10.0512 8.87489 10.5087 9.06812 10.9878 9.07499H14.0313V12.1552C13.1168 13.1974 12.6128 14.5349 12.6128 15.9195C12.6128 17.3041 13.1168 18.6417 14.0313 19.6839L14.0379 19.7698ZM18.3878 20.6753C17.4435 20.6753 16.5205 20.3962 15.7354 19.8733C14.9503 19.3503 14.3383 18.6071 13.977 17.7375C13.6156 16.8678 13.5211 15.9109 13.7053 14.9878C13.8895 14.0646 14.3442 13.2166 15.0119 12.551C15.6796 11.8854 16.5303 11.4322 17.4564 11.2485C18.3825 11.0649 19.3424 11.1592 20.2148 11.5194C21.0872 11.8796 21.8328 12.4896 22.3574 13.2722C22.882 14.0548 23.162 14.9749 23.162 15.9162C23.1602 17.1779 22.6567 18.3874 21.7617 19.2795C20.8668 20.1716 19.6534 20.6736 18.3878 20.6753ZM16.0139 9.37243H18.1822C18.3141 9.37243 18.4406 9.3202 18.5339 9.22723C18.6271 9.13426 18.6795 9.00817 18.6795 8.87669C18.6795 8.74521 18.6271 8.61911 18.5339 8.52614C18.4406 8.43317 18.3141 8.38095 18.1822 8.38095H16.0139C15.882 8.38095 15.7555 8.43317 15.6623 8.52614C15.569 8.61911 15.5166 8.74521 15.5166 8.87669C15.5166 9.00817 15.569 9.13426 15.6623 9.22723C15.7555 9.3202 15.882 9.37243 16.0139 9.37243ZM10.2318 16.0352H5.17913C5.04724 16.0352 4.92074 16.0874 4.82748 16.1804C4.73421 16.2734 4.68182 16.3995 4.68182 16.5309C4.68182 16.6624 4.73421 16.7885 4.82748 16.8815C4.92074 16.9745 5.04724 17.0267 5.17913 17.0267H10.2318C10.3637 17.0267 10.4902 16.9745 10.5835 16.8815C10.6768 16.7885 10.7291 16.6624 10.7291 16.5309C10.7291 16.3995 10.6768 16.2734 10.5835 16.1804C10.4902 16.0874 10.3637 16.0352 10.2318 16.0352ZM10.2318 13.1599H5.17913C5.04724 13.1599 4.92074 13.2121 4.82748 13.3051C4.73421 13.3981 4.68182 13.5242 4.68182 13.6556C4.68182 13.7871 4.73421 13.9132 4.82748 14.0062C4.92074 14.0991 5.04724 14.1514 5.17913 14.1514H10.2318C10.3637 14.1514 10.4902 14.0991 10.5835 14.0062C10.6768 13.9132 10.7291 13.7871 10.7291 13.6556C10.7291 13.5242 10.6768 13.3981 10.5835 13.3051C10.4902 13.2121 10.3637 13.1599 10.2318 13.1599ZM19.5813 13.3119C19.5296 13.3525 19.4865 13.4029 19.4545 13.4602C19.4225 13.5175 19.4022 13.5805 19.3948 13.6457C19.3874 13.7109 19.393 13.7768 19.4114 13.8398C19.4298 13.9028 19.4605 13.9615 19.5018 14.0126L20.8876 15.7179H15.2514C15.1195 15.7179 14.993 15.7702 14.8997 15.8631C14.8065 15.9561 14.7541 16.0822 14.7541 16.2137C14.7541 16.3451 14.8065 16.4712 14.8997 16.5642C14.993 16.6572 15.1195 16.7094 15.2514 16.7094H20.9274H21.0003L19.5548 18.4875C19.4724 18.5904 19.4338 18.7216 19.4474 18.8527C19.4611 18.9837 19.5258 19.1042 19.6277 19.1881C19.7182 19.26 19.8303 19.2996 19.946 19.3005C20.0197 19.2991 20.0923 19.2819 20.1587 19.25C20.2251 19.218 20.2837 19.1721 20.3306 19.1154L22.3663 16.6036C22.4373 16.5156 22.476 16.406 22.476 16.293C22.476 16.18 22.4373 16.0704 22.3663 15.9823L20.2776 13.3978C20.1965 13.2947 20.0777 13.2278 19.9472 13.2117C19.8168 13.1955 19.6852 13.2316 19.5813 13.3119Z"
            fill="#148EE6" />
    </g>
    <defs>
        <clipPath id="clip0_4063_3706">
            <rect width="24" height="24" fill="white" />
        </clipPath>
    </defs>
</svg>