<svg xmlns="http://www.w3.org/2000/svg" width="24" height="24" viewBox="0 0 24 24" fill="none"
    id="verifyYourAccountTrashCan">
    <path
        d="M9.66406 3.54297L9.06641 4.5H14.9336L14.3359 3.54297C14.2227 3.35938 14.0195 3.25 13.8047 3.25H10.1914C9.97656 3.25 9.77734 3.35938 9.66016 3.54297H9.66406ZM15.3984 2.88281L16.4102 4.5H18.25H19.5H20.125C20.4688 4.5 20.75 4.78125 20.75 5.125C20.75 5.46875 20.4688 5.75 20.125 5.75H19.5V18.875C19.5 20.6016 18.1016 22 16.375 22H7.625C5.89844 22 4.5 20.6016 4.5 18.875V5.75H3.875C3.53125 5.75 3.25 5.46875 3.25 5.125C3.25 4.78125 3.53125 4.5 3.875 4.5H4.5H5.75H7.58984L8.60156 2.88281C8.94531 2.33203 9.54688 2 10.1914 2H13.8047C14.4531 2 15.0508 2.33203 15.3945 2.88281H15.3984ZM5.75 5.75V18.875C5.75 19.9102 6.58984 20.75 7.625 20.75H16.375C17.4102 20.75 18.25 19.9102 18.25 18.875V5.75H5.75ZM8.875 8.875V17.625C8.875 17.9688 8.59375 18.25 8.25 18.25C7.90625 18.25 7.625 17.9688 7.625 17.625V8.875C7.625 8.53125 7.90625 8.25 8.25 8.25C8.59375 8.25 8.875 8.53125 8.875 8.875ZM12.625 8.875V17.625C12.625 17.9688 12.3438 18.25 12 18.25C11.6562 18.25 11.375 17.9688 11.375 17.625V8.875C11.375 8.53125 11.6562 8.25 12 8.25C12.3438 8.25 12.625 8.53125 12.625 8.875ZM16.375 8.875V17.625C16.375 17.9688 16.0938 18.25 15.75 18.25C15.4062 18.25 15.125 17.9688 15.125 17.625V8.875C15.125 8.53125 15.4062 8.25 15.75 8.25C16.0938 8.25 16.375 8.53125 16.375 8.875Z"
        fill="#0074C7" />
</svg>