<svg xmlns="http://www.w3.org/2000/svg" width="20" height="20" viewBox="0 0 20 20" fill="none"
    id="verifyYourAccountFileImage">
    <path
        d="M15.2083 16.2498V7.9165H11.5625C10.6999 7.9165 10 7.21663 10 6.354V2.70817H5.83333C5.25716 2.70817 4.79167 3.17367 4.79167 3.74984V16.2498C4.79167 16.826 5.25716 17.2915 5.83333 17.2915H14.1667C14.7428 17.2915 15.2083 16.826 15.2083 16.2498ZM15.1921 6.87484C15.1693 6.78369 15.1237 6.69906 15.0553 6.63395L11.2826 2.86117C11.2142 2.79281 11.1328 2.74723 11.0417 2.72445V6.354C11.0417 6.64046 11.276 6.87484 11.5625 6.87484H15.1921ZM3.75 3.74984C3.75 2.60075 4.68424 1.6665 5.83333 1.6665H10.9147C11.3281 1.6665 11.7253 1.83252 12.0182 2.12549L15.791 5.89502C16.084 6.18799 16.25 6.58512 16.25 6.99854V16.2498C16.25 17.3989 15.3158 18.3332 14.1667 18.3332H5.83333C4.68424 18.3332 3.75 17.3989 3.75 16.2498V3.74984ZM6.09375 9.99984C6.09375 9.79264 6.17606 9.59392 6.32257 9.44741C6.46909 9.3009 6.6678 9.21859 6.875 9.21859C7.0822 9.21859 7.28091 9.3009 7.42743 9.44741C7.57394 9.59392 7.65625 9.79264 7.65625 9.99984C7.65625 10.207 7.57394 10.4058 7.42743 10.5523C7.28091 10.6988 7.0822 10.7811 6.875 10.7811C6.6678 10.7811 6.46909 10.6988 6.32257 10.5523C6.17606 10.4058 6.09375 10.207 6.09375 9.99984ZM9.65169 13.675C9.55729 13.8149 9.40104 13.9028 9.23177 13.9061C9.0625 13.9093 8.90299 13.8345 8.80208 13.6978L8.33333 13.0695L6.97266 15.2082H13.0306L10.9017 11.8L9.65169 13.675ZM10.9082 10.5207C11.1686 10.5207 11.4128 10.6541 11.5527 10.8787L14.0267 14.8338C14.1178 14.9803 14.1667 15.1496 14.1667 15.3254C14.1667 15.8364 13.7533 16.2498 13.2422 16.2498H6.75781C6.24674 16.2498 5.83333 15.8364 5.83333 15.3254C5.83333 15.1496 5.88216 14.9771 5.97656 14.8306L7.66276 12.1808C7.80273 11.9595 8.05013 11.826 8.31055 11.826C8.55143 11.826 8.7793 11.9399 8.92578 12.132L9.18945 12.4868L10.2734 10.8625C10.4134 10.6509 10.651 10.5239 10.9049 10.5239L10.9082 10.5207Z"
        fill="#25262D" />
</svg>