<svg xmlns="http://www.w3.org/2000/svg" width="16" height="16" viewBox="0 0 16 16" fill="none"
    id="verifyYourAccountCircleCheck">
    <path
        d="M7.99967 14.6668C9.76779 14.6668 11.4635 13.9645 12.7137 12.7142C13.964 11.464 14.6663 9.76827 14.6663 8.00016C14.6663 6.23205 13.964 4.53636 12.7137 3.28612C11.4635 2.03588 9.76779 1.3335 7.99967 1.3335C6.23156 1.3335 4.53587 2.03588 3.28563 3.28612C2.03539 4.53636 1.33301 6.23205 1.33301 8.00016C1.33301 9.76827 2.03539 11.464 3.28563 12.7142C4.53587 13.9645 6.23156 14.6668 7.99967 14.6668ZM10.9424 6.7762L7.60905 10.1095C7.36426 10.3543 6.96842 10.3543 6.72624 10.1095L5.05957 8.44287C4.81478 8.19808 4.81478 7.80225 5.05957 7.56006C5.30436 7.31787 5.7002 7.31527 5.94238 7.56006L7.16634 8.78402L10.057 5.89079C10.3018 5.646 10.6976 5.646 10.9398 5.89079C11.182 6.13558 11.1846 6.53141 10.9398 6.7736L10.9424 6.7762Z"
        fill="#579E00" />
</svg>