<svg xmlns="http://www.w3.org/2000/svg" width="24" height="24" viewBox="0 0 24 24" fill="none"
    id="verifyYourAccountSettlement2">
    <path
        d="M0.942343 12.2633L0.83032 12.3162V6.65811C0.829271 6.57217 0.844938 6.48686 0.876448 6.40694C0.909769 6.32525 0.959063 6.25109 1.02142 6.18881C1.0835 6.12627 1.15744 6.07682 1.23888 6.0434C1.26514 6.04021 1.29169 6.04021 1.31795 6.0434L1.3509 5.98391L5.66054 1.66765C5.65664 1.57935 5.67239 1.49129 5.70667 1.40987C5.77748 1.25104 5.90417 1.12395 6.06251 1.05293C6.14421 1.01963 6.23133 1.0017 6.31951 1.00005H13.4232C14.0707 0.996124 14.697 1.23141 15.1826 1.66104C15.3819 1.84072 15.5549 2.04766 15.6966 2.27576H21.3242C21.6769 2.26926 22.027 2.33681 22.3521 2.47406C22.6796 2.60629 22.9772 2.80313 23.2274 3.05293C23.4776 3.30273 23.6752 3.60038 23.8085 3.92823C23.9402 4.2557 24.0051 4.60631 23.9996 4.95938V19.3094C24.006 19.6647 23.941 20.0177 23.8085 20.3472C23.675 20.6758 23.4779 20.9746 23.2286 21.2263C22.9753 21.4736 22.678 21.6709 22.3521 21.808C22.0257 21.9401 21.6761 22.0053 21.3242 21.9997H11.4067C10.8549 22.0016 10.3165 21.8297 9.86722 21.5084C9.41798 21.187 9.0806 20.7323 8.90265 20.2084C8.03886 20.7833 7.03583 21.1125 6.00032 21.161C4.96481 21.2094 3.93557 20.9754 3.02215 20.4837C2.10873 19.992 1.3453 19.2611 0.813129 18.3688C0.280958 17.4764 -4.76837e-05 16.456 2.28882e-05 15.4162C-0.00312042 14.295 0.324764 13.1979 0.942343 12.2633ZM5.66054 3.05572L2.72814 5.99052H5.17949C5.24145 5.99044 5.30272 5.97748 5.35943 5.95245C5.41615 5.92742 5.46706 5.89087 5.50898 5.8451C5.60055 5.75899 5.65494 5.64038 5.66054 5.5146V3.05572ZM13.4232 2.3022H6.97847V5.5146C6.97166 5.99106 6.77994 6.44609 6.44403 6.78303C6.10812 7.11996 5.65449 7.31227 5.17949 7.3191H2.15484V10.9281C3.07729 10.1861 4.20652 9.74955 5.38679 9.67851C6.56706 9.60748 7.74022 9.90551 8.7445 10.5315V7.88755C8.74345 7.80161 8.75912 7.7163 8.79063 7.63638C8.82377 7.55457 8.87291 7.48025 8.93516 7.41781C8.99741 7.35537 9.0715 7.30608 9.15306 7.27284H9.19918L13.5154 2.91031C13.5165 2.82393 13.5344 2.7386 13.5681 2.65914C13.6015 2.57903 13.6483 2.50526 13.7065 2.44101C13.7357 2.41887 13.7666 2.39899 13.7988 2.38152C13.6777 2.33819 13.5514 2.3115 13.4232 2.3022ZM10.6291 7.24639H13.0739C13.1993 7.2414 13.3181 7.18876 13.4062 7.09916C13.4943 7.00955 13.5451 6.88969 13.5484 6.76387V4.31161L10.6291 7.24639ZM10.0493 19.2698C10.0434 19.4484 10.0748 19.6263 10.1415 19.792C10.2056 19.9622 10.3069 20.1157 10.438 20.2414C10.5645 20.3692 10.7157 20.4697 10.8823 20.5367C11.0488 20.6038 11.2273 20.636 11.4067 20.6314H21.3242C21.5047 20.6369 21.6844 20.6051 21.8522 20.538C22.0199 20.471 22.1722 20.37 22.2994 20.2414C22.4264 20.1132 22.5258 19.9603 22.5916 19.792C22.6573 19.6238 22.688 19.4438 22.6816 19.2632V4.9131C22.6871 4.73359 22.656 4.55486 22.5903 4.38781C22.5245 4.22075 22.4256 4.06887 22.2994 3.94145C22.17 3.81491 22.018 3.714 21.8513 3.644C21.6838 3.57732 21.5043 3.54582 21.3242 3.55147H14.8795V6.76387C14.8744 7.24148 14.6834 7.69817 14.3473 8.03653C14.0112 8.37489 13.5566 8.56812 13.0805 8.57499H10.0558V11.6552C10.9646 12.6974 11.4656 14.0349 11.4656 15.4195C11.4656 16.8041 10.9646 18.1417 10.0558 19.1839L10.0493 19.2698ZM5.72644 20.1753C6.66482 20.1753 7.58213 19.8962 8.36237 19.3733C9.14261 18.8503 9.75073 18.1071 10.1098 17.2375C10.4689 16.3678 10.5629 15.4109 10.3798 14.4878C10.1968 13.5646 9.74488 12.7166 9.08134 12.051C8.41781 11.3854 7.5724 10.9322 6.65205 10.7485C5.7317 10.5649 4.77773 10.6592 3.91078 11.0194C3.04382 11.3796 2.30282 11.9896 1.78148 12.7722C1.26015 13.5548 0.981884 14.4749 0.981884 15.4162C0.983627 16.6779 1.48405 17.8874 2.37345 18.7795C3.26285 19.6716 4.46864 20.1736 5.72644 20.1753ZM8.08554 8.87243H5.93071C5.79964 8.87243 5.67393 8.8202 5.58125 8.72723C5.48856 8.63426 5.43649 8.50817 5.43649 8.37669C5.43649 8.24521 5.48856 8.11911 5.58125 8.02614C5.67393 7.93317 5.79964 7.88095 5.93071 7.88095H8.08554C8.21661 7.88095 8.34232 7.93317 8.435 8.02614C8.52769 8.11911 8.57976 8.24521 8.57976 8.37669C8.57976 8.50817 8.52769 8.63426 8.435 8.72723C8.34232 8.8202 8.21661 8.87243 8.08554 8.87243ZM13.8317 15.5352H18.853C18.9841 15.5352 19.1098 15.5874 19.2025 15.6804C19.2952 15.7734 19.3473 15.8995 19.3473 16.0309C19.3473 16.1624 19.2952 16.2885 19.2025 16.3815C19.1098 16.4745 18.9841 16.5267 18.853 16.5267H13.8317C13.7006 16.5267 13.5749 16.4745 13.4822 16.3815C13.3896 16.2885 13.3375 16.1624 13.3375 16.0309C13.3375 15.8995 13.3896 15.7734 13.4822 15.6804C13.5749 15.5874 13.7006 15.5352 13.8317 15.5352ZM13.8317 12.6599H18.853C18.9841 12.6599 19.1098 12.7121 19.2025 12.8051C19.2952 12.8981 19.3473 13.0242 19.3473 13.1556C19.3473 13.2871 19.2952 13.4132 19.2025 13.5062C19.1098 13.5991 18.9841 13.6514 18.853 13.6514H13.8317C13.7006 13.6514 13.5749 13.5991 13.4822 13.5062C13.3896 13.4132 13.3375 13.2871 13.3375 13.1556C13.3375 13.0242 13.3896 12.8981 13.4822 12.8051C13.5749 12.7121 13.7006 12.6599 13.8317 12.6599ZM4.5403 12.8119C4.59167 12.8525 4.63451 12.9029 4.66634 12.9602C4.69816 13.0175 4.71833 13.0805 4.72569 13.1457C4.73304 13.2109 4.72743 13.2768 4.70918 13.3398C4.69093 13.4028 4.66041 13.4615 4.61937 13.5126L3.24214 15.2179H8.84335C8.97442 15.2179 9.10013 15.2702 9.19281 15.3631C9.2855 15.4561 9.33757 15.5822 9.33757 15.7137C9.33757 15.8451 9.2855 15.9712 9.19281 16.0642C9.10013 16.1572 8.97442 16.2094 8.84335 16.2094H3.20259H3.13011L4.56666 17.9875C4.64859 18.0904 4.68691 18.2216 4.67335 18.3527C4.65979 18.4837 4.59544 18.6042 4.49417 18.6881C4.40423 18.76 4.29287 18.7996 4.17787 18.8005C4.10462 18.7991 4.03252 18.7819 3.96655 18.75C3.90057 18.718 3.84228 18.6721 3.79567 18.6154L1.77264 16.1036C1.70205 16.0156 1.66356 15.906 1.66356 15.793C1.66356 15.68 1.70205 15.5704 1.77264 15.4823L3.84838 12.8978C3.92897 12.7947 4.047 12.7278 4.17666 12.7117C4.30632 12.6955 4.43706 12.7316 4.5403 12.8119Z"
        fill="#148EE6" />
</svg>